solid OpenSCAD_Model
  facet normal 0 0 -1
    outer loop
      vertex 4.84776 -12.0382 21.7361
      vertex -5.97062 -11.4207 21.7361
      vertex -5.8525 -8.54899 21.7361
    endloop
  endfacet
  facet normal 0 0 -1
    outer loop
      vertex -4.05593 -27.1841 21.7361
      vertex -6.325 -13.8937 21.7361
      vertex -5.97062 -11.4207 21.7361
    endloop
  endfacet
  facet normal 0 0 -1
    outer loop
      vertex -4.05593 -27.1841 21.7361
      vertex -6.91563 -15.9682 21.7361
      vertex -6.325 -13.8937 21.7361
    endloop
  endfacet
  facet normal 0 0 -1
    outer loop
      vertex -10.1148 -19.8595 21.7361
      vertex -5.7145 -28 21.7361
      vertex -7.48994 -28.6374 21.7361
    endloop
  endfacet
  facet normal 0 0 -1
    outer loop
      vertex -4.05593 -27.1841 21.7361
      vertex -7.7425 -17.644 21.7361
      vertex -6.91563 -15.9682 21.7361
    endloop
  endfacet
  facet normal 0 0 -1
    outer loop
      vertex -4.05593 -27.1841 21.7361
      vertex -8.80807 -18.9364 21.7361
      vertex -7.7425 -17.644 21.7361
    endloop
  endfacet
  facet normal 0 0 -1
    outer loop
      vertex -11.6626 -20.4134 21.7361
      vertex -7.48994 -28.6374 21.7361
      vertex -9.37125 -29.0927 21.7361
    endloop
  endfacet
  facet normal 0 0 -1
    outer loop
      vertex -4.05593 -27.1841 21.7361
      vertex -10.1148 -19.8595 21.7361
      vertex -8.80807 -18.9364 21.7361
    endloop
  endfacet
  facet normal 0 0 -1
    outer loop
      vertex -11.6626 -20.4134 21.7361
      vertex -9.37125 -29.0927 21.7361
      vertex -11.3584 -29.3659 21.7361
    endloop
  endfacet
  facet normal 0 0 -1
    outer loop
      vertex -7.48994 -28.6374 21.7361
      vertex -11.6626 -20.4134 21.7361
      vertex -10.1148 -19.8595 21.7361
    endloop
  endfacet
  facet normal 0 0 -1
    outer loop
      vertex -13.4515 -20.598 21.7361
      vertex -11.3584 -29.3659 21.7361
      vertex -13.4515 -29.457 21.7361
    endloop
  endfacet
  facet normal 0 0 -1
    outer loop
      vertex -11.3584 -29.3659 21.7361
      vertex -13.4515 -20.598 21.7361
      vertex -11.6626 -20.4134 21.7361
    endloop
  endfacet
  facet normal 0 0 -1
    outer loop
      vertex -15.5633 -29.3659 21.7361
      vertex -13.4515 -20.598 21.7361
      vertex -13.4515 -29.457 21.7361
    endloop
  endfacet
  facet normal -0 0 -1
    outer loop
      vertex -13.4515 -20.598 21.7361
      vertex -15.5633 -29.3659 21.7361
      vertex -15.2233 -20.4232 21.7361
    endloop
  endfacet
  facet normal 0 0 -1
    outer loop
      vertex -17.5667 -29.0927 21.7361
      vertex -15.2233 -20.4232 21.7361
      vertex -15.5633 -29.3659 21.7361
    endloop
  endfacet
  facet normal -0 0 -1
    outer loop
      vertex -15.2233 -20.4232 21.7361
      vertex -17.5667 -29.0927 21.7361
      vertex -16.759 -19.899 21.7361
    endloop
  endfacet
  facet normal 0 0 -1
    outer loop
      vertex -19.4618 -28.6374 21.7361
      vertex -16.759 -19.899 21.7361
      vertex -17.5667 -29.0927 21.7361
    endloop
  endfacet
  facet normal 0 0 -1
    outer loop
      vertex -21.2485 -28 21.7361
      vertex -16.759 -19.899 21.7361
      vertex -19.4618 -28.6374 21.7361
    endloop
  endfacet
  facet normal -0 0 -1
    outer loop
      vertex -16.759 -19.899 21.7361
      vertex -21.2485 -28 21.7361
      vertex -18.0584 -19.0252 21.7361
    endloop
  endfacet
  facet normal 0 0 -1
    outer loop
      vertex -22.9157 -27.1841 21.7361
      vertex -18.0584 -19.0252 21.7361
      vertex -21.2485 -28 21.7361
    endloop
  endfacet
  facet normal 0 0 -1
    outer loop
      vertex -24.4525 -26.1935 21.7361
      vertex -18.0584 -19.0252 21.7361
      vertex -22.9157 -27.1841 21.7361
    endloop
  endfacet
  facet normal 0 0 -1
    outer loop
      vertex -25.8587 -25.0281 21.7361
      vertex -18.0584 -19.0252 21.7361
      vertex -24.4525 -26.1935 21.7361
    endloop
  endfacet
  facet normal 0 0 -1
    outer loop
      vertex -32.1545 -6.81599 21.7361
      vertex -21.1295 -1.776 21.7361
      vertex -21.1295 -9.218 21.7361
    endloop
  endfacet
  facet normal -0 0 -1
    outer loop
      vertex -18.0584 -19.0252 21.7361
      vertex -25.8587 -25.0281 21.7361
      vertex -19.1215 -17.802 21.7361
    endloop
  endfacet
  facet normal 0 0 -1
    outer loop
      vertex -27.1345 -23.688 21.7361
      vertex -19.1215 -17.802 21.7361
      vertex -25.8587 -25.0281 21.7361
    endloop
  endfacet
  facet normal 0 0 -1
    outer loop
      vertex -28.2753 -22.1748 21.7361
      vertex -19.1215 -17.802 21.7361
      vertex -27.1345 -23.688 21.7361
    endloop
  endfacet
  facet normal -0 0 -1
    outer loop
      vertex -19.1215 -17.802 21.7361
      vertex -28.2753 -22.1748 21.7361
      vertex -19.9557 -16.217 21.7361
    endloop
  endfacet
  facet normal 0 0 -1
    outer loop
      vertex -29.2757 -20.4892 21.7361
      vertex -19.9557 -16.217 21.7361
      vertex -28.2753 -22.1748 21.7361
    endloop
  endfacet
  facet normal 0 0 -1
    outer loop
      vertex -30.1358 -18.6313 21.7361
      vertex -19.9557 -16.217 21.7361
      vertex -29.2757 -20.4892 21.7361
    endloop
  endfacet
  facet normal -0 0 -1
    outer loop
      vertex -19.9557 -16.217 21.7361
      vertex -30.1358 -18.6313 21.7361
      vertex -20.5685 -14.258 21.7361
    endloop
  endfacet
  facet normal 0 0 -1
    outer loop
      vertex -30.8555 -16.601 21.7361
      vertex -20.5685 -14.258 21.7361
      vertex -30.1358 -18.6313 21.7361
    endloop
  endfacet
  facet normal 0 0 -1
    outer loop
      vertex -31.4238 -14.4021 21.7361
      vertex -20.5685 -14.258 21.7361
      vertex -30.8555 -16.601 21.7361
    endloop
  endfacet
  facet normal -0 0 -1
    outer loop
      vertex -20.5685 -14.258 21.7361
      vertex -31.4238 -14.4021 21.7361
      vertex -20.9597 -11.925 21.7361
    endloop
  endfacet
  facet normal 0 0 -1
    outer loop
      vertex -31.8297 -12.0382 21.7361
      vertex -20.9597 -11.925 21.7361
      vertex -31.4238 -14.4021 21.7361
    endloop
  endfacet
  facet normal -0 0 -1
    outer loop
      vertex -20.9597 -11.925 21.7361
      vertex -31.8297 -12.0382 21.7361
      vertex -21.1295 -9.218 21.7361
    endloop
  endfacet
  facet normal 0 0 -1
    outer loop
      vertex -32.0733 -9.50955 21.7361
      vertex -21.1295 -9.218 21.7361
      vertex -31.8297 -12.0382 21.7361
    endloop
  endfacet
  facet normal 0 0 -1
    outer loop
      vertex -32.1545 -6.81599 21.7361
      vertex -21.1295 -9.218 21.7361
      vertex -32.0733 -9.50955 21.7361
    endloop
  endfacet
  facet normal 0 0 -1
    outer loop
      vertex -32.1545 0.709994 21.7361
      vertex -21.1295 -1.776 21.7361
      vertex -32.1545 -6.81599 21.7361
    endloop
  endfacet
  facet normal 0 0 -1
    outer loop
      vertex -21.1295 -1.776 21.7361
      vertex -32.1545 0.709994 21.7361
      vertex -21.1295 0.709994 21.7361
    endloop
  endfacet
  facet normal 0 0 -1
    outer loop
      vertex -5.8525 -8.54899 21.7361
      vertex 5.17251 -6.81599 21.7361
      vertex 5.09132 -9.50955 21.7361
    endloop
  endfacet
  facet normal 0 0 -1
    outer loop
      vertex -5.8525 -8.54899 21.7361
      vertex 5.09132 -9.50955 21.7361
      vertex 4.84776 -12.0382 21.7361
    endloop
  endfacet
  facet normal 0 0 -1
    outer loop
      vertex -5.97062 -11.4207 21.7361
      vertex 4.84776 -12.0382 21.7361
      vertex 4.44181 -14.4021 21.7361
    endloop
  endfacet
  facet normal 0 0 -1
    outer loop
      vertex -5.97062 -11.4207 21.7361
      vertex 4.44181 -14.4021 21.7361
      vertex 3.8735 -16.601 21.7361
    endloop
  endfacet
  facet normal 0 0 -1
    outer loop
      vertex -5.97062 -11.4207 21.7361
      vertex 3.8735 -16.601 21.7361
      vertex 3.15344 -18.6313 21.7361
    endloop
  endfacet
  facet normal 0 0 -1
    outer loop
      vertex -5.97062 -11.4207 21.7361
      vertex 3.15344 -18.6313 21.7361
      vertex 2.29325 -20.4892 21.7361
    endloop
  endfacet
  facet normal 0 0 -1
    outer loop
      vertex -5.97062 -11.4207 21.7361
      vertex 2.29325 -20.4892 21.7361
      vertex 1.29295 -22.1748 21.7361
    endloop
  endfacet
  facet normal 0 0 -1
    outer loop
      vertex -5.97062 -11.4207 21.7361
      vertex 1.29295 -22.1748 21.7361
      vertex 0.152505 -23.688 21.7361
    endloop
  endfacet
  facet normal 0 0 -1
    outer loop
      vertex -5.97062 -11.4207 21.7361
      vertex 0.152505 -23.688 21.7361
      vertex -1.12243 -25.0281 21.7361
    endloop
  endfacet
  facet normal 0 0 -1
    outer loop
      vertex -5.97062 -11.4207 21.7361
      vertex -1.12243 -25.0281 21.7361
      vertex -2.52524 -26.1935 21.7361
    endloop
  endfacet
  facet normal 0 0 -1
    outer loop
      vertex -5.97062 -11.4207 21.7361
      vertex -2.52524 -26.1935 21.7361
      vertex -4.05593 -27.1841 21.7361
    endloop
  endfacet
  facet normal 0 0 -1
    outer loop
      vertex -10.1148 -19.8595 21.7361
      vertex -4.05593 -27.1841 21.7361
      vertex -5.7145 -28 21.7361
    endloop
  endfacet
  facet normal 0 0 -1
    outer loop
      vertex -5.8525 0.709994 21.7361
      vertex 5.17251 -6.81599 21.7361
      vertex -5.8525 -8.54899 21.7361
    endloop
  endfacet
  facet normal 0 0 -1
    outer loop
      vertex 5.17251 -6.81599 21.7361
      vertex -5.8525 0.709994 21.7361
      vertex 5.17251 0.709994 21.7361
    endloop
  endfacet
  facet normal 0 0 -1
    outer loop
      vertex -21.1295 -9.218 21.7361
      vertex -17.7804 0.709994 21.7361
      vertex -7.80056 0.709994 21.7361
    endloop
  endfacet
  facet normal 0 0 -1
    outer loop
      vertex -17.7804 0.709994 21.7361
      vertex -21.1295 -9.218 21.7361
      vertex -21.1295 -1.776 21.7361
    endloop
  endfacet
  facet normal -0 0 1
    outer loop
      vertex -32.1545 0.709994 22.0361
      vertex -21.1295 -1.776 22.0361
      vertex -21.1295 0.709994 22.0361
    endloop
  endfacet
  facet normal 0 0 1
    outer loop
      vertex -21.1295 -1.776 22.0361
      vertex -32.1545 -6.81599 22.0361
      vertex -21.1295 -9.218 22.0361
    endloop
  endfacet
  facet normal 0 0 1
    outer loop
      vertex -21.1295 -9.218 22.0361
      vertex -22.9157 -27.1841 22.0361
      vertex -21.2485 -28 22.0361
    endloop
  endfacet
  facet normal 0 0 1
    outer loop
      vertex -21.1295 -9.218 22.0361
      vertex -24.4525 -26.1935 22.0361
      vertex -22.9157 -27.1841 22.0361
    endloop
  endfacet
  facet normal 0 0 1
    outer loop
      vertex -21.1295 -9.218 22.0361
      vertex -25.8587 -25.0281 22.0361
      vertex -24.4525 -26.1935 22.0361
    endloop
  endfacet
  facet normal 0 0 1
    outer loop
      vertex -21.1295 -9.218 22.0361
      vertex -27.1345 -23.688 22.0361
      vertex -25.8587 -25.0281 22.0361
    endloop
  endfacet
  facet normal 0 0 1
    outer loop
      vertex -21.1295 -9.218 22.0361
      vertex -28.2753 -22.1748 22.0361
      vertex -27.1345 -23.688 22.0361
    endloop
  endfacet
  facet normal 0 0 1
    outer loop
      vertex -21.1295 -9.218 22.0361
      vertex -29.2757 -20.4892 22.0361
      vertex -28.2753 -22.1748 22.0361
    endloop
  endfacet
  facet normal 0 0 1
    outer loop
      vertex -21.1295 -9.218 22.0361
      vertex -30.1358 -18.6313 22.0361
      vertex -29.2757 -20.4892 22.0361
    endloop
  endfacet
  facet normal 0 0 1
    outer loop
      vertex -21.1295 -9.218 22.0361
      vertex -30.8555 -16.601 22.0361
      vertex -30.1358 -18.6313 22.0361
    endloop
  endfacet
  facet normal 0 0 1
    outer loop
      vertex -21.1295 -9.218 22.0361
      vertex -31.4238 -14.4021 22.0361
      vertex -30.8555 -16.601 22.0361
    endloop
  endfacet
  facet normal 0 0 1
    outer loop
      vertex -21.1295 -9.218 22.0361
      vertex -31.8297 -12.0382 22.0361
      vertex -31.4238 -14.4021 22.0361
    endloop
  endfacet
  facet normal 0 0 1
    outer loop
      vertex -21.1295 -9.218 22.0361
      vertex -32.0733 -9.50955 22.0361
      vertex -31.8297 -12.0382 22.0361
    endloop
  endfacet
  facet normal 0 0 1
    outer loop
      vertex -21.1295 -1.776 22.0361
      vertex -32.1545 0.709994 22.0361
      vertex -32.1545 -6.81599 22.0361
    endloop
  endfacet
  facet normal 0 0 1
    outer loop
      vertex -21.1295 -9.218 22.0361
      vertex -32.1545 -6.81599 22.0361
      vertex -32.0733 -9.50955 22.0361
    endloop
  endfacet
  facet normal 0 0 1
    outer loop
      vertex -21.1295 -9.218 22.0361
      vertex -17.7804 0.709994 22.0361
      vertex -21.1295 -1.776 22.0361
    endloop
  endfacet
  facet normal -0 0 1
    outer loop
      vertex -17.7804 0.709994 22.0361
      vertex -21.1295 -9.218 22.0361
      vertex -7.80056 0.709994 22.0361
    endloop
  endfacet
  facet normal -0 0 1
    outer loop
      vertex -5.8525 0.709994 22.0361
      vertex 5.17251 -6.81599 22.0361
      vertex 5.17251 0.709994 22.0361
    endloop
  endfacet
  facet normal 0 0 1
    outer loop
      vertex 5.17251 -6.81599 22.0361
      vertex -5.8525 -8.54899 22.0361
      vertex 5.09132 -9.50955 22.0361
    endloop
  endfacet
  facet normal 0 0 1
    outer loop
      vertex 5.09132 -9.50955 22.0361
      vertex -5.8525 -8.54899 22.0361
      vertex 4.84776 -12.0382 22.0361
    endloop
  endfacet
  facet normal -0 0 1
    outer loop
      vertex -5.97062 -11.4207 22.0361
      vertex 4.84776 -12.0382 22.0361
      vertex -5.8525 -8.54899 22.0361
    endloop
  endfacet
  facet normal 0 0 1
    outer loop
      vertex 4.84776 -12.0382 22.0361
      vertex -5.97062 -11.4207 22.0361
      vertex 4.44181 -14.4021 22.0361
    endloop
  endfacet
  facet normal -0 0 1
    outer loop
      vertex -6.325 -13.8937 22.0361
      vertex 4.44181 -14.4021 22.0361
      vertex -5.97062 -11.4207 22.0361
    endloop
  endfacet
  facet normal 0 0 1
    outer loop
      vertex 4.44181 -14.4021 22.0361
      vertex -6.325 -13.8937 22.0361
      vertex 3.8735 -16.601 22.0361
    endloop
  endfacet
  facet normal -0 0 1
    outer loop
      vertex -6.91563 -15.9682 22.0361
      vertex 3.15344 -18.6313 22.0361
      vertex -6.325 -13.8937 22.0361
    endloop
  endfacet
  facet normal 0 0 1
    outer loop
      vertex 3.15344 -18.6313 22.0361
      vertex -6.91563 -15.9682 22.0361
      vertex 2.29325 -20.4892 22.0361
    endloop
  endfacet
  facet normal 0 0 1
    outer loop
      vertex 2.29325 -20.4892 22.0361
      vertex -6.91563 -15.9682 22.0361
      vertex 1.29295 -22.1748 22.0361
    endloop
  endfacet
  facet normal 0 0 1
    outer loop
      vertex 1.29295 -22.1748 22.0361
      vertex -7.7425 -17.644 22.0361
      vertex 0.152505 -23.688 22.0361
    endloop
  endfacet
  facet normal 0 0 1
    outer loop
      vertex 0.152505 -23.688 22.0361
      vertex -7.7425 -17.644 22.0361
      vertex -1.12243 -25.0281 22.0361
    endloop
  endfacet
  facet normal 0 0 1
    outer loop
      vertex 5.17251 -6.81599 22.0361
      vertex -5.8525 0.709994 22.0361
      vertex -5.8525 -8.54899 22.0361
    endloop
  endfacet
  facet normal 0 0 1
    outer loop
      vertex 3.8735 -16.601 22.0361
      vertex -6.325 -13.8937 22.0361
      vertex 3.15344 -18.6313 22.0361
    endloop
  endfacet
  facet normal -0 0 1
    outer loop
      vertex -7.7425 -17.644 22.0361
      vertex 1.29295 -22.1748 22.0361
      vertex -6.91563 -15.9682 22.0361
    endloop
  endfacet
  facet normal -0 0 1
    outer loop
      vertex -8.80807 -18.9364 22.0361
      vertex -1.12243 -25.0281 22.0361
      vertex -7.7425 -17.644 22.0361
    endloop
  endfacet
  facet normal 0 0 1
    outer loop
      vertex -1.12243 -25.0281 22.0361
      vertex -8.80807 -18.9364 22.0361
      vertex -2.52524 -26.1935 22.0361
    endloop
  endfacet
  facet normal 0 0 1
    outer loop
      vertex -2.52524 -26.1935 22.0361
      vertex -8.80807 -18.9364 22.0361
      vertex -4.05593 -27.1841 22.0361
    endloop
  endfacet
  facet normal -0 0 1
    outer loop
      vertex -10.1148 -19.8595 22.0361
      vertex -4.05593 -27.1841 22.0361
      vertex -8.80807 -18.9364 22.0361
    endloop
  endfacet
  facet normal 0 0 1
    outer loop
      vertex -4.05593 -27.1841 22.0361
      vertex -10.1148 -19.8595 22.0361
      vertex -5.7145 -28 22.0361
    endloop
  endfacet
  facet normal 0 0 1
    outer loop
      vertex -5.7145 -28 22.0361
      vertex -10.1148 -19.8595 22.0361
      vertex -7.48994 -28.6374 22.0361
    endloop
  endfacet
  facet normal -0 0 1
    outer loop
      vertex -11.6626 -20.4134 22.0361
      vertex -7.48994 -28.6374 22.0361
      vertex -10.1148 -19.8595 22.0361
    endloop
  endfacet
  facet normal 0 0 1
    outer loop
      vertex -7.48994 -28.6374 22.0361
      vertex -11.6626 -20.4134 22.0361
      vertex -9.37125 -29.0927 22.0361
    endloop
  endfacet
  facet normal 0 0 1
    outer loop
      vertex -9.37125 -29.0927 22.0361
      vertex -11.6626 -20.4134 22.0361
      vertex -11.3584 -29.3659 22.0361
    endloop
  endfacet
  facet normal -0 0 1
    outer loop
      vertex -13.4515 -20.598 22.0361
      vertex -11.3584 -29.3659 22.0361
      vertex -11.6626 -20.4134 22.0361
    endloop
  endfacet
  facet normal 0 0 1
    outer loop
      vertex -13.4515 -20.598 22.0361
      vertex -13.4515 -29.457 22.0361
      vertex -11.3584 -29.3659 22.0361
    endloop
  endfacet
  facet normal 0 0 1
    outer loop
      vertex -15.5633 -29.3659 22.0361
      vertex -13.4515 -20.598 22.0361
      vertex -15.2233 -20.4232 22.0361
    endloop
  endfacet
  facet normal 0 0 1
    outer loop
      vertex -13.4515 -20.598 22.0361
      vertex -15.5633 -29.3659 22.0361
      vertex -13.4515 -29.457 22.0361
    endloop
  endfacet
  facet normal 0 0 1
    outer loop
      vertex -17.5667 -29.0927 22.0361
      vertex -15.2233 -20.4232 22.0361
      vertex -16.759 -19.899 22.0361
    endloop
  endfacet
  facet normal 0 0 1
    outer loop
      vertex -15.2233 -20.4232 22.0361
      vertex -17.5667 -29.0927 22.0361
      vertex -15.5633 -29.3659 22.0361
    endloop
  endfacet
  facet normal 0 0 1
    outer loop
      vertex -21.2485 -28 22.0361
      vertex -16.759 -19.899 22.0361
      vertex -18.0584 -19.0252 22.0361
    endloop
  endfacet
  facet normal 0 0 1
    outer loop
      vertex -21.2485 -28 22.0361
      vertex -18.0584 -19.0252 22.0361
      vertex -19.1215 -17.802 22.0361
    endloop
  endfacet
  facet normal 0 0 1
    outer loop
      vertex -16.759 -19.899 22.0361
      vertex -19.4618 -28.6374 22.0361
      vertex -17.5667 -29.0927 22.0361
    endloop
  endfacet
  facet normal 0 0 1
    outer loop
      vertex -21.2485 -28 22.0361
      vertex -19.1215 -17.802 22.0361
      vertex -19.9557 -16.217 22.0361
    endloop
  endfacet
  facet normal 0 0 1
    outer loop
      vertex -21.2485 -28 22.0361
      vertex -19.9557 -16.217 22.0361
      vertex -20.5685 -14.258 22.0361
    endloop
  endfacet
  facet normal 0 0 1
    outer loop
      vertex -21.2485 -28 22.0361
      vertex -20.5685 -14.258 22.0361
      vertex -20.9597 -11.925 22.0361
    endloop
  endfacet
  facet normal 0 0 1
    outer loop
      vertex -16.759 -19.899 22.0361
      vertex -21.2485 -28 22.0361
      vertex -19.4618 -28.6374 22.0361
    endloop
  endfacet
  facet normal 0 0 1
    outer loop
      vertex -21.2485 -28 22.0361
      vertex -20.9597 -11.925 22.0361
      vertex -21.1295 -9.218 22.0361
    endloop
  endfacet
  facet normal -0.999546 -0.0301323 0
    outer loop
      vertex -32.0733 -9.50955 21.7361
      vertex -32.1545 -6.81599 22.0361
      vertex -32.1545 -6.81599 21.7361
    endloop
  endfacet
  facet normal -0.999546 -0.0301323 0
    outer loop
      vertex -32.1545 -6.81599 22.0361
      vertex -32.0733 -9.50955 21.7361
      vertex -32.0733 -9.50955 22.0361
    endloop
  endfacet
  facet normal -0.995392 -0.095892 0
    outer loop
      vertex -31.8297 -12.0382 21.7361
      vertex -32.0733 -9.50955 22.0361
      vertex -32.0733 -9.50955 21.7361
    endloop
  endfacet
  facet normal -0.995392 -0.095892 0
    outer loop
      vertex -32.0733 -9.50955 22.0361
      vertex -31.8297 -12.0382 21.7361
      vertex -31.8297 -12.0382 22.0361
    endloop
  endfacet
  facet normal -0.985576 -0.169231 0
    outer loop
      vertex -31.4238 -14.4021 21.7361
      vertex -31.8297 -12.0382 22.0361
      vertex -31.8297 -12.0382 21.7361
    endloop
  endfacet
  facet normal -0.985576 -0.169231 0
    outer loop
      vertex -31.8297 -12.0382 22.0361
      vertex -31.4238 -14.4021 21.7361
      vertex -31.4238 -14.4021 22.0361
    endloop
  endfacet
  facet normal -0.968188 -0.250226 0
    outer loop
      vertex -30.8555 -16.601 21.7361
      vertex -31.4238 -14.4021 22.0361
      vertex -31.4238 -14.4021 21.7361
    endloop
  endfacet
  facet normal -0.968188 -0.250226 0
    outer loop
      vertex -31.4238 -14.4021 22.0361
      vertex -30.8555 -16.601 21.7361
      vertex -30.8555 -16.601 22.0361
    endloop
  endfacet
  facet normal -0.942534 -0.334109 0
    outer loop
      vertex -30.1358 -18.6313 21.7361
      vertex -30.8555 -16.601 22.0361
      vertex -30.8555 -16.601 21.7361
    endloop
  endfacet
  facet normal -0.942534 -0.334109 0
    outer loop
      vertex -30.8555 -16.601 22.0361
      vertex -30.1358 -18.6313 21.7361
      vertex -30.1358 -18.6313 22.0361
    endloop
  endfacet
  facet normal -0.907474 -0.420108 0
    outer loop
      vertex -29.2757 -20.4892 21.7361
      vertex -30.1358 -18.6313 22.0361
      vertex -30.1358 -18.6313 21.7361
    endloop
  endfacet
  facet normal -0.907474 -0.420108 0
    outer loop
      vertex -30.1358 -18.6313 22.0361
      vertex -29.2757 -20.4892 21.7361
      vertex -29.2757 -20.4892 22.0361
    endloop
  endfacet
  facet normal -0.85995 -0.510378 0
    outer loop
      vertex -28.2753 -22.1748 21.7361
      vertex -29.2757 -20.4892 22.0361
      vertex -29.2757 -20.4892 21.7361
    endloop
  endfacet
  facet normal -0.85995 -0.510378 0
    outer loop
      vertex -29.2757 -20.4892 22.0361
      vertex -28.2753 -22.1748 21.7361
      vertex -28.2753 -22.1748 22.0361
    endloop
  endfacet
  facet normal -0.798503 -0.601991 0
    outer loop
      vertex -27.1345 -23.688 21.7361
      vertex -28.2753 -22.1748 22.0361
      vertex -28.2753 -22.1748 21.7361
    endloop
  endfacet
  facet normal -0.798503 -0.601991 0
    outer loop
      vertex -28.2753 -22.1748 22.0361
      vertex -27.1345 -23.688 21.7361
      vertex -27.1345 -23.688 22.0361
    endloop
  endfacet
  facet normal -0.724269 -0.689518 0
    outer loop
      vertex -25.8587 -25.0281 21.7361
      vertex -27.1345 -23.688 22.0361
      vertex -27.1345 -23.688 21.7361
    endloop
  endfacet
  facet normal -0.724269 -0.689518 0
    outer loop
      vertex -27.1345 -23.688 22.0361
      vertex -25.8587 -25.0281 21.7361
      vertex -25.8587 -25.0281 22.0361
    endloop
  endfacet
  facet normal -0.638103 -0.769951 0
    outer loop
      vertex -25.8587 -25.0281 21.7361
      vertex -24.4525 -26.1935 22.0361
      vertex -25.8587 -25.0281 22.0361
    endloop
  endfacet
  facet normal -0.638103 -0.769951 -0
    outer loop
      vertex -24.4525 -26.1935 22.0361
      vertex -25.8587 -25.0281 21.7361
      vertex -24.4525 -26.1935 21.7361
    endloop
  endfacet
  facet normal -0.541785 -0.840517 0
    outer loop
      vertex -24.4525 -26.1935 21.7361
      vertex -22.9157 -27.1841 22.0361
      vertex -24.4525 -26.1935 22.0361
    endloop
  endfacet
  facet normal -0.541785 -0.840517 -0
    outer loop
      vertex -22.9157 -27.1841 22.0361
      vertex -24.4525 -26.1935 21.7361
      vertex -22.9157 -27.1841 21.7361
    endloop
  endfacet
  facet normal -0.439569 -0.898209 0
    outer loop
      vertex -22.9157 -27.1841 21.7361
      vertex -21.2485 -28 22.0361
      vertex -22.9157 -27.1841 22.0361
    endloop
  endfacet
  facet normal -0.439569 -0.898209 -0
    outer loop
      vertex -21.2485 -28 22.0361
      vertex -22.9157 -27.1841 21.7361
      vertex -21.2485 -28 21.7361
    endloop
  endfacet
  facet normal -0.336006 -0.94186 0
    outer loop
      vertex -21.2485 -28 21.7361
      vertex -19.4618 -28.6374 22.0361
      vertex -21.2485 -28 22.0361
    endloop
  endfacet
  facet normal -0.336006 -0.94186 -0
    outer loop
      vertex -19.4618 -28.6374 22.0361
      vertex -21.2485 -28 21.7361
      vertex -19.4618 -28.6374 21.7361
    endloop
  endfacet
  facet normal -0.233604 -0.972332 0
    outer loop
      vertex -19.4618 -28.6374 21.7361
      vertex -17.5667 -29.0927 22.0361
      vertex -19.4618 -28.6374 22.0361
    endloop
  endfacet
  facet normal -0.233604 -0.972332 -0
    outer loop
      vertex -17.5667 -29.0927 22.0361
      vertex -19.4618 -28.6374 21.7361
      vertex -17.5667 -29.0927 21.7361
    endloop
  endfacet
  facet normal -0.135118 -0.99083 0
    outer loop
      vertex -17.5667 -29.0927 21.7361
      vertex -15.5633 -29.3659 22.0361
      vertex -17.5667 -29.0927 22.0361
    endloop
  endfacet
  facet normal -0.135118 -0.99083 -0
    outer loop
      vertex -15.5633 -29.3659 22.0361
      vertex -17.5667 -29.0927 21.7361
      vertex -15.5633 -29.3659 21.7361
    endloop
  endfacet
  facet normal -0.0430985 -0.999071 0
    outer loop
      vertex -15.5633 -29.3659 21.7361
      vertex -13.4515 -29.457 22.0361
      vertex -15.5633 -29.3659 22.0361
    endloop
  endfacet
  facet normal -0.0430985 -0.999071 -0
    outer loop
      vertex -13.4515 -29.457 22.0361
      vertex -15.5633 -29.3659 21.7361
      vertex -13.4515 -29.457 21.7361
    endloop
  endfacet
  facet normal 0.0434828 -0.999054 0
    outer loop
      vertex -13.4515 -29.457 21.7361
      vertex -11.3584 -29.3659 22.0361
      vertex -13.4515 -29.457 22.0361
    endloop
  endfacet
  facet normal 0.0434828 -0.999054 0
    outer loop
      vertex -11.3584 -29.3659 22.0361
      vertex -13.4515 -29.457 21.7361
      vertex -11.3584 -29.3659 21.7361
    endloop
  endfacet
  facet normal 0.136202 -0.990681 0
    outer loop
      vertex -11.3584 -29.3659 21.7361
      vertex -9.37125 -29.0927 22.0361
      vertex -11.3584 -29.3659 22.0361
    endloop
  endfacet
  facet normal 0.136202 -0.990681 0
    outer loop
      vertex -9.37125 -29.0927 22.0361
      vertex -11.3584 -29.3659 21.7361
      vertex -9.37125 -29.0927 21.7361
    endloop
  endfacet
  facet normal 0.235222 -0.971942 0
    outer loop
      vertex -9.37125 -29.0927 21.7361
      vertex -7.48994 -28.6374 22.0361
      vertex -9.37125 -29.0927 22.0361
    endloop
  endfacet
  facet normal 0.235222 -0.971942 0
    outer loop
      vertex -7.48994 -28.6374 22.0361
      vertex -9.37125 -29.0927 21.7361
      vertex -7.48994 -28.6374 21.7361
    endloop
  endfacet
  facet normal 0.337894 -0.941184 0
    outer loop
      vertex -7.48994 -28.6374 21.7361
      vertex -5.7145 -28 22.0361
      vertex -7.48994 -28.6374 22.0361
    endloop
  endfacet
  facet normal 0.337894 -0.941184 0
    outer loop
      vertex -5.7145 -28 22.0361
      vertex -7.48994 -28.6374 21.7361
      vertex -5.7145 -28 21.7361
    endloop
  endfacet
  facet normal 0.441411 -0.897305 0
    outer loop
      vertex -5.7145 -28 21.7361
      vertex -4.05593 -27.1841 22.0361
      vertex -5.7145 -28 22.0361
    endloop
  endfacet
  facet normal 0.441411 -0.897305 0
    outer loop
      vertex -4.05593 -27.1841 22.0361
      vertex -5.7145 -28 21.7361
      vertex -4.05593 -27.1841 21.7361
    endloop
  endfacet
  facet normal 0.543311 -0.839532 0
    outer loop
      vertex -4.05593 -27.1841 21.7361
      vertex -2.52524 -26.1935 22.0361
      vertex -4.05593 -27.1841 22.0361
    endloop
  endfacet
  facet normal 0.543311 -0.839532 0
    outer loop
      vertex -2.52524 -26.1935 22.0361
      vertex -4.05593 -27.1841 21.7361
      vertex -2.52524 -26.1935 21.7361
    endloop
  endfacet
  facet normal 0.639016 -0.769193 0
    outer loop
      vertex -2.52524 -26.1935 21.7361
      vertex -1.12243 -25.0281 22.0361
      vertex -2.52524 -26.1935 22.0361
    endloop
  endfacet
  facet normal 0.639016 -0.769193 0
    outer loop
      vertex -1.12243 -25.0281 22.0361
      vertex -2.52524 -26.1935 21.7361
      vertex -1.12243 -25.0281 21.7361
    endloop
  endfacet
  facet normal 0.724503 -0.689272 0
    outer loop
      vertex -1.12243 -25.0281 22.0361
      vertex 0.152505 -23.688 21.7361
      vertex 0.152505 -23.688 22.0361
    endloop
  endfacet
  facet normal 0.724503 -0.689272 0
    outer loop
      vertex 0.152505 -23.688 21.7361
      vertex -1.12243 -25.0281 22.0361
      vertex -1.12243 -25.0281 21.7361
    endloop
  endfacet
  facet normal 0.798593 -0.601871 0
    outer loop
      vertex 0.152505 -23.688 22.0361
      vertex 1.29295 -22.1748 21.7361
      vertex 1.29295 -22.1748 22.0361
    endloop
  endfacet
  facet normal 0.798593 -0.601871 0
    outer loop
      vertex 1.29295 -22.1748 21.7361
      vertex 0.152505 -23.688 22.0361
      vertex 0.152505 -23.688 21.7361
    endloop
  endfacet
  facet normal 0.859972 -0.510341 0
    outer loop
      vertex 1.29295 -22.1748 22.0361
      vertex 2.29325 -20.4892 21.7361
      vertex 2.29325 -20.4892 22.0361
    endloop
  endfacet
  facet normal 0.859972 -0.510341 0
    outer loop
      vertex 2.29325 -20.4892 21.7361
      vertex 1.29295 -22.1748 22.0361
      vertex 1.29295 -22.1748 21.7361
    endloop
  endfacet
  facet normal 0.907457 -0.420144 0
    outer loop
      vertex 2.29325 -20.4892 22.0361
      vertex 3.15344 -18.6313 21.7361
      vertex 3.15344 -18.6313 22.0361
    endloop
  endfacet
  facet normal 0.907457 -0.420144 0
    outer loop
      vertex 3.15344 -18.6313 21.7361
      vertex 2.29325 -20.4892 22.0361
      vertex 2.29325 -20.4892 21.7361
    endloop
  endfacet
  facet normal 0.942482 -0.334258 0
    outer loop
      vertex 3.15344 -18.6313 22.0361
      vertex 3.8735 -16.601 21.7361
      vertex 3.8735 -16.601 22.0361
    endloop
  endfacet
  facet normal 0.942482 -0.334258 0
    outer loop
      vertex 3.8735 -16.601 21.7361
      vertex 3.15344 -18.6313 22.0361
      vertex 3.15344 -18.6313 21.7361
    endloop
  endfacet
  facet normal 0.968187 -0.25023 0
    outer loop
      vertex 3.8735 -16.601 22.0361
      vertex 4.44181 -14.4021 21.7361
      vertex 4.44181 -14.4021 22.0361
    endloop
  endfacet
  facet normal 0.968187 -0.25023 0
    outer loop
      vertex 4.44181 -14.4021 21.7361
      vertex 3.8735 -16.601 22.0361
      vertex 3.8735 -16.601 21.7361
    endloop
  endfacet
  facet normal 0.985573 -0.169251 0
    outer loop
      vertex 4.44181 -14.4021 22.0361
      vertex 4.84776 -12.0382 21.7361
      vertex 4.84776 -12.0382 22.0361
    endloop
  endfacet
  facet normal 0.985573 -0.169251 0
    outer loop
      vertex 4.84776 -12.0382 21.7361
      vertex 4.44181 -14.4021 22.0361
      vertex 4.44181 -14.4021 21.7361
    endloop
  endfacet
  facet normal 0.995393 -0.0958764 0
    outer loop
      vertex 4.84776 -12.0382 22.0361
      vertex 5.09132 -9.50955 21.7361
      vertex 5.09132 -9.50955 22.0361
    endloop
  endfacet
  facet normal 0.995393 -0.0958764 0
    outer loop
      vertex 5.09132 -9.50955 21.7361
      vertex 4.84776 -12.0382 22.0361
      vertex 4.84776 -12.0382 21.7361
    endloop
  endfacet
  facet normal 0.999546 -0.0301286 0
    outer loop
      vertex 5.09132 -9.50955 22.0361
      vertex 5.17251 -6.81599 21.7361
      vertex 5.17251 -6.81599 22.0361
    endloop
  endfacet
  facet normal 0.999546 -0.0301286 0
    outer loop
      vertex 5.17251 -6.81599 21.7361
      vertex 5.09132 -9.50955 22.0361
      vertex 5.09132 -9.50955 21.7361
    endloop
  endfacet
  facet normal 1 -0 0
    outer loop
      vertex 5.17251 -6.81599 22.0361
      vertex 5.17251 0.709994 21.7361
      vertex 5.17251 0.709994 22.0361
    endloop
  endfacet
  facet normal 1 0 0
    outer loop
      vertex 5.17251 0.709994 21.7361
      vertex 5.17251 -6.81599 22.0361
      vertex 5.17251 -6.81599 21.7361
    endloop
  endfacet
  facet normal 0 1 -0
    outer loop
      vertex 5.17251 0.709994 21.7361
      vertex -5.8525 0.709994 22.0361
      vertex 5.17251 0.709994 22.0361
    endloop
  endfacet
  facet normal 0 1 0
    outer loop
      vertex -5.8525 0.709994 22.0361
      vertex 5.17251 0.709994 21.7361
      vertex -5.8525 0.709994 21.7361
    endloop
  endfacet
  facet normal -1 0 0
    outer loop
      vertex -5.8525 -8.54899 21.7361
      vertex -5.8525 0.709994 22.0361
      vertex -5.8525 0.709994 21.7361
    endloop
  endfacet
  facet normal -1 -0 0
    outer loop
      vertex -5.8525 0.709994 22.0361
      vertex -5.8525 -8.54899 21.7361
      vertex -5.8525 -8.54899 22.0361
    endloop
  endfacet
  facet normal -0.999155 0.0410975 0
    outer loop
      vertex -5.97062 -11.4207 21.7361
      vertex -5.8525 -8.54899 22.0361
      vertex -5.8525 -8.54899 21.7361
    endloop
  endfacet
  facet normal -0.999155 0.0410975 0
    outer loop
      vertex -5.8525 -8.54899 22.0361
      vertex -5.97062 -11.4207 21.7361
      vertex -5.97062 -11.4207 22.0361
    endloop
  endfacet
  facet normal -0.989888 0.141851 0
    outer loop
      vertex -6.325 -13.8937 21.7361
      vertex -5.97062 -11.4207 22.0361
      vertex -5.97062 -11.4207 21.7361
    endloop
  endfacet
  facet normal -0.989888 0.141851 0
    outer loop
      vertex -5.97062 -11.4207 22.0361
      vertex -6.325 -13.8937 21.7361
      vertex -6.325 -13.8937 22.0361
    endloop
  endfacet
  facet normal -0.961779 0.273828 0
    outer loop
      vertex -6.91563 -15.9682 21.7361
      vertex -6.325 -13.8937 22.0361
      vertex -6.325 -13.8937 21.7361
    endloop
  endfacet
  facet normal -0.961779 0.273828 0
    outer loop
      vertex -6.325 -13.8937 22.0361
      vertex -6.91563 -15.9682 21.7361
      vertex -6.91563 -15.9682 22.0361
    endloop
  endfacet
  facet normal -0.896776 0.442485 0
    outer loop
      vertex -7.7425 -17.644 21.7361
      vertex -6.91563 -15.9682 22.0361
      vertex -6.91563 -15.9682 21.7361
    endloop
  endfacet
  facet normal -0.896776 0.442485 0
    outer loop
      vertex -6.91563 -15.9682 22.0361
      vertex -7.7425 -17.644 21.7361
      vertex -7.7425 -17.644 22.0361
    endloop
  endfacet
  facet normal -0.771567 0.636148 0
    outer loop
      vertex -8.80807 -18.9364 21.7361
      vertex -7.7425 -17.644 22.0361
      vertex -7.7425 -17.644 21.7361
    endloop
  endfacet
  facet normal -0.771567 0.636148 0
    outer loop
      vertex -7.7425 -17.644 22.0361
      vertex -8.80807 -18.9364 21.7361
      vertex -8.80807 -18.9364 22.0361
    endloop
  endfacet
  facet normal -0.576976 0.816761 0
    outer loop
      vertex -8.80807 -18.9364 21.7361
      vertex -10.1148 -19.8595 22.0361
      vertex -8.80807 -18.9364 22.0361
    endloop
  endfacet
  facet normal -0.576976 0.816761 0
    outer loop
      vertex -10.1148 -19.8595 22.0361
      vertex -8.80807 -18.9364 21.7361
      vertex -10.1148 -19.8595 21.7361
    endloop
  endfacet
  facet normal -0.336937 0.941527 0
    outer loop
      vertex -10.1148 -19.8595 21.7361
      vertex -11.6626 -20.4134 22.0361
      vertex -10.1148 -19.8595 22.0361
    endloop
  endfacet
  facet normal -0.336937 0.941527 0
    outer loop
      vertex -11.6626 -20.4134 22.0361
      vertex -10.1148 -19.8595 21.7361
      vertex -11.6626 -20.4134 21.7361
    endloop
  endfacet
  facet normal -0.102647 0.994718 0
    outer loop
      vertex -11.6626 -20.4134 21.7361
      vertex -13.4515 -20.598 22.0361
      vertex -11.6626 -20.4134 22.0361
    endloop
  endfacet
  facet normal -0.102647 0.994718 0
    outer loop
      vertex -13.4515 -20.598 22.0361
      vertex -11.6626 -20.4134 21.7361
      vertex -13.4515 -20.598 21.7361
    endloop
  endfacet
  facet normal 0.0981801 0.995169 -0
    outer loop
      vertex -13.4515 -20.598 21.7361
      vertex -15.2233 -20.4232 22.0361
      vertex -13.4515 -20.598 22.0361
    endloop
  endfacet
  facet normal 0.0981801 0.995169 0
    outer loop
      vertex -15.2233 -20.4232 22.0361
      vertex -13.4515 -20.598 21.7361
      vertex -15.2233 -20.4232 21.7361
    endloop
  endfacet
  facet normal 0.323042 0.946385 -0
    outer loop
      vertex -15.2233 -20.4232 21.7361
      vertex -16.759 -19.899 22.0361
      vertex -15.2233 -20.4232 22.0361
    endloop
  endfacet
  facet normal 0.323042 0.946385 0
    outer loop
      vertex -16.759 -19.899 22.0361
      vertex -15.2233 -20.4232 21.7361
      vertex -16.759 -19.899 21.7361
    endloop
  endfacet
  facet normal 0.558026 0.829823 -0
    outer loop
      vertex -16.759 -19.899 21.7361
      vertex -18.0584 -19.0252 22.0361
      vertex -16.759 -19.899 22.0361
    endloop
  endfacet
  facet normal 0.558026 0.829823 0
    outer loop
      vertex -18.0584 -19.0252 22.0361
      vertex -16.759 -19.899 21.7361
      vertex -18.0584 -19.0252 21.7361
    endloop
  endfacet
  facet normal 0.754774 0.655985 0
    outer loop
      vertex -18.0584 -19.0252 22.0361
      vertex -19.1215 -17.802 21.7361
      vertex -19.1215 -17.802 22.0361
    endloop
  endfacet
  facet normal 0.754774 0.655985 0
    outer loop
      vertex -19.1215 -17.802 21.7361
      vertex -18.0584 -19.0252 22.0361
      vertex -18.0584 -19.0252 21.7361
    endloop
  endfacet
  facet normal 0.884921 0.465742 0
    outer loop
      vertex -19.1215 -17.802 22.0361
      vertex -19.9557 -16.217 21.7361
      vertex -19.9557 -16.217 22.0361
    endloop
  endfacet
  facet normal 0.884921 0.465742 0
    outer loop
      vertex -19.9557 -16.217 21.7361
      vertex -19.1215 -17.802 22.0361
      vertex -19.1215 -17.802 21.7361
    endloop
  endfacet
  facet normal 0.954395 0.298547 0
    outer loop
      vertex -19.9557 -16.217 22.0361
      vertex -20.5685 -14.258 21.7361
      vertex -20.5685 -14.258 22.0361
    endloop
  endfacet
  facet normal 0.954395 0.298547 0
    outer loop
      vertex -20.5685 -14.258 21.7361
      vertex -19.9557 -16.217 22.0361
      vertex -19.9557 -16.217 21.7361
    endloop
  endfacet
  facet normal 0.986231 0.165372 0
    outer loop
      vertex -20.5685 -14.258 22.0361
      vertex -20.9597 -11.925 21.7361
      vertex -20.9597 -11.925 22.0361
    endloop
  endfacet
  facet normal 0.986231 0.165372 0
    outer loop
      vertex -20.9597 -11.925 21.7361
      vertex -20.5685 -14.258 22.0361
      vertex -20.5685 -14.258 21.7361
    endloop
  endfacet
  facet normal 0.998038 0.0626032 0
    outer loop
      vertex -20.9597 -11.925 22.0361
      vertex -21.1295 -9.218 21.7361
      vertex -21.1295 -9.218 22.0361
    endloop
  endfacet
  facet normal 0.998038 0.0626032 0
    outer loop
      vertex -21.1295 -9.218 21.7361
      vertex -20.9597 -11.925 22.0361
      vertex -20.9597 -11.925 21.7361
    endloop
  endfacet
  facet normal 0.597351 -0.80198 0
    outer loop
      vertex -21.1295 -9.218 21.7361
      vertex -7.80056 0.709994 22.0361
      vertex -21.1295 -9.218 22.0361
    endloop
  endfacet
  facet normal 0.597351 -0.80198 0
    outer loop
      vertex -7.80056 0.709994 22.0361
      vertex -21.1295 -9.218 21.7361
      vertex -7.80056 0.709994 21.7361
    endloop
  endfacet
  facet normal 0 1 -0
    outer loop
      vertex -7.80056 0.709994 21.7361
      vertex -17.7804 0.709994 22.0361
      vertex -7.80056 0.709994 22.0361
    endloop
  endfacet
  facet normal 0 1 0
    outer loop
      vertex -17.7804 0.709994 22.0361
      vertex -7.80056 0.709994 21.7361
      vertex -17.7804 0.709994 21.7361
    endloop
  endfacet
  facet normal -0.596029 0.802963 0
    outer loop
      vertex -17.7804 0.709994 21.7361
      vertex -21.1295 -1.776 22.0361
      vertex -17.7804 0.709994 22.0361
    endloop
  endfacet
  facet normal -0.596029 0.802963 0
    outer loop
      vertex -21.1295 -1.776 22.0361
      vertex -17.7804 0.709994 21.7361
      vertex -21.1295 -1.776 21.7361
    endloop
  endfacet
  facet normal 1 -0 0
    outer loop
      vertex -21.1295 -1.776 22.0361
      vertex -21.1295 0.709994 21.7361
      vertex -21.1295 0.709994 22.0361
    endloop
  endfacet
  facet normal 1 0 0
    outer loop
      vertex -21.1295 0.709994 21.7361
      vertex -21.1295 -1.776 22.0361
      vertex -21.1295 -1.776 21.7361
    endloop
  endfacet
  facet normal 0 1 -0
    outer loop
      vertex -21.1295 0.709994 21.7361
      vertex -32.1545 0.709994 22.0361
      vertex -21.1295 0.709994 22.0361
    endloop
  endfacet
  facet normal 0 1 0
    outer loop
      vertex -32.1545 0.709994 22.0361
      vertex -21.1295 0.709994 21.7361
      vertex -32.1545 0.709994 21.7361
    endloop
  endfacet
  facet normal -1 0 0
    outer loop
      vertex -32.1545 -6.81599 21.7361
      vertex -32.1545 0.709994 22.0361
      vertex -32.1545 0.709994 21.7361
    endloop
  endfacet
  facet normal -1 -0 0
    outer loop
      vertex -32.1545 0.709994 22.0361
      vertex -32.1545 -6.81599 21.7361
      vertex -32.1545 -6.81599 22.0361
    endloop
  endfacet
  facet normal 0 -1 0
    outer loop
      vertex -21.6415 -27.3 21.2541
      vertex -10.5775 -27.3 21.5541
      vertex -21.6415 -27.3 21.5541
    endloop
  endfacet
  facet normal 0 -1 -0
    outer loop
      vertex -10.5775 -27.3 21.5541
      vertex -21.6415 -27.3 21.2541
      vertex -10.5775 -27.3 21.2541
    endloop
  endfacet
  facet normal -0 0 1
    outer loop
      vertex -21.6415 0.709994 21.5541
      vertex -10.5775 -27.3 21.5541
      vertex -10.5775 0.709994 21.5541
    endloop
  endfacet
  facet normal 0 0 1
    outer loop
      vertex -10.5775 -27.3 21.5541
      vertex -21.6415 0.709994 21.5541
      vertex -21.6415 -27.3 21.5541
    endloop
  endfacet
  facet normal -1 0 0
    outer loop
      vertex -21.6415 -27.3 21.2541
      vertex -21.6415 0.709994 21.5541
      vertex -21.6415 0.709994 21.2541
    endloop
  endfacet
  facet normal -1 -0 0
    outer loop
      vertex -21.6415 0.709994 21.5541
      vertex -21.6415 -27.3 21.2541
      vertex -21.6415 -27.3 21.5541
    endloop
  endfacet
  facet normal 0 0 -1
    outer loop
      vertex -21.6415 -27.3 21.2541
      vertex -10.5775 0.709994 21.2541
      vertex -10.5775 -27.3 21.2541
    endloop
  endfacet
  facet normal -0 0 -1
    outer loop
      vertex -10.5775 0.709994 21.2541
      vertex -21.6415 -27.3 21.2541
      vertex -21.6415 0.709994 21.2541
    endloop
  endfacet
  facet normal 1 -0 0
    outer loop
      vertex -10.5775 -27.3 21.5541
      vertex -10.5775 0.709994 21.2541
      vertex -10.5775 0.709994 21.5541
    endloop
  endfacet
  facet normal 1 0 0
    outer loop
      vertex -10.5775 0.709994 21.2541
      vertex -10.5775 -27.3 21.5541
      vertex -10.5775 -27.3 21.2541
    endloop
  endfacet
  facet normal 0 1 -0
    outer loop
      vertex -10.5775 0.709994 21.2541
      vertex -21.6415 0.709994 21.5541
      vertex -10.5775 0.709994 21.5541
    endloop
  endfacet
  facet normal 0 1 0
    outer loop
      vertex -21.6415 0.709994 21.5541
      vertex -10.5775 0.709994 21.2541
      vertex -21.6415 0.709994 21.2541
    endloop
  endfacet
  facet normal 0 0 -1
    outer loop
      vertex -32.1545 8.87202 21.7363
      vertex -21.1295 10.526 21.7363
      vertex -21.1295 2.67604 21.7363
    endloop
  endfacet
  facet normal 0 0 -1
    outer loop
      vertex -21.1295 10.526 21.7363
      vertex -22.9925 29.2402 21.7363
      vertex -21.3265 30.056 21.7363
    endloop
  endfacet
  facet normal 0 0 -1
    outer loop
      vertex -21.1295 10.526 21.7363
      vertex -24.5257 28.2498 21.7363
      vertex -22.9925 29.2402 21.7363
    endloop
  endfacet
  facet normal 0 0 -1
    outer loop
      vertex -21.1295 10.526 21.7363
      vertex -25.926 27.0847 21.7363
      vertex -24.5257 28.2498 21.7363
    endloop
  endfacet
  facet normal 0 0 -1
    outer loop
      vertex -21.1295 10.526 21.7363
      vertex -27.1935 25.745 21.7363
      vertex -25.926 27.0847 21.7363
    endloop
  endfacet
  facet normal 0 0 -1
    outer loop
      vertex -21.1295 10.526 21.7363
      vertex -28.3243 24.2314 21.7363
      vertex -27.1935 25.745 21.7363
    endloop
  endfacet
  facet normal 0 0 -1
    outer loop
      vertex -21.1295 10.526 21.7363
      vertex -29.3147 22.5455 21.7363
      vertex -28.3243 24.2314 21.7363
    endloop
  endfacet
  facet normal 0 0 -1
    outer loop
      vertex -21.1295 10.526 21.7363
      vertex -30.1648 20.6874 21.7363
      vertex -29.3147 22.5455 21.7363
    endloop
  endfacet
  facet normal 0 0 -1
    outer loop
      vertex -21.1295 10.526 21.7363
      vertex -30.8745 18.657 21.7363
      vertex -30.1648 20.6874 21.7363
    endloop
  endfacet
  facet normal 0 0 -1
    outer loop
      vertex -21.1295 10.526 21.7363
      vertex -31.4345 16.4581 21.7363
      vertex -30.8745 18.657 21.7363
    endloop
  endfacet
  facet normal 0 0 -1
    outer loop
      vertex -21.1295 10.526 21.7363
      vertex -31.8345 14.0943 21.7363
      vertex -31.4345 16.4581 21.7363
    endloop
  endfacet
  facet normal 0 0 -1
    outer loop
      vertex -21.1295 10.526 21.7363
      vertex -32.0745 11.5656 21.7363
      vertex -31.8345 14.0943 21.7363
    endloop
  endfacet
  facet normal 0 0 -1
    outer loop
      vertex -32.1545 8.87202 21.7363
      vertex -21.1295 2.67604 21.7363
      vertex -32.1545 2.67604 21.7363
    endloop
  endfacet
  facet normal -0 0 -1
    outer loop
      vertex -21.1295 10.526 21.7363
      vertex -32.1545 8.87202 21.7363
      vertex -32.0745 11.5656 21.7363
    endloop
  endfacet
  facet normal 0 0 -1
    outer loop
      vertex -7.8274 2.67604 21.7363
      vertex -5.8525 11.55 21.7363
      vertex -5.8525 4.14703 21.7363
    endloop
  endfacet
  facet normal 0 0 -1
    outer loop
      vertex -5.8525 11.55 21.7363
      vertex -7.8274 2.67604 21.7363
      vertex -17.8073 2.67604 21.7363
    endloop
  endfacet
  facet normal 0 0 -1
    outer loop
      vertex -5.8525 4.14703 21.7363
      vertex 5.17251 8.87202 21.7363
      vertex 5.17251 2.67604 21.7363
    endloop
  endfacet
  facet normal 0 0 -1
    outer loop
      vertex -5.8525 11.55 21.7363
      vertex 5.17251 8.87202 21.7363
      vertex -5.8525 4.14703 21.7363
    endloop
  endfacet
  facet normal -0 0 -1
    outer loop
      vertex 5.09007 11.5656 21.7363
      vertex -5.8525 11.55 21.7363
      vertex 4.84275 14.0943 21.7363
    endloop
  endfacet
  facet normal 0 0 -1
    outer loop
      vertex -6.05681 14.2017 21.7363
      vertex 4.84275 14.0943 21.7363
      vertex -5.8525 11.55 21.7363
    endloop
  endfacet
  facet normal 0 0 -1
    outer loop
      vertex 4.84275 14.0943 21.7363
      vertex -6.05681 14.2017 21.7363
      vertex 4.43057 16.4581 21.7363
    endloop
  endfacet
  facet normal -0 0 -1
    outer loop
      vertex 4.43057 16.4581 21.7363
      vertex -6.05681 14.2017 21.7363
      vertex 3.85351 18.657 21.7363
    endloop
  endfacet
  facet normal 0 0 -1
    outer loop
      vertex -6.47274 16.4868 21.7363
      vertex 3.85351 18.657 21.7363
      vertex -6.05681 14.2017 21.7363
    endloop
  endfacet
  facet normal 0 0 -1
    outer loop
      vertex -7.1003 18.4052 21.7363
      vertex 3.12513 20.6874 21.7363
      vertex -6.47274 16.4868 21.7363
    endloop
  endfacet
  facet normal -0 0 -1
    outer loop
      vertex 3.12513 20.6874 21.7363
      vertex -7.1003 18.4052 21.7363
      vertex 2.259 22.5455 21.7363
    endloop
  endfacet
  facet normal -0 0 -1
    outer loop
      vertex 2.259 22.5455 21.7363
      vertex -7.1003 18.4052 21.7363
      vertex 1.25514 24.2314 21.7363
    endloop
  endfacet
  facet normal 0 0 -1
    outer loop
      vertex -7.93949 19.957 21.7363
      vertex 1.25514 24.2314 21.7363
      vertex -7.1003 18.4052 21.7363
    endloop
  endfacet
  facet normal -0 0 -1
    outer loop
      vertex 0.113504 25.745 21.7363
      vertex -7.93949 19.957 21.7363
      vertex -1.16268 27.0847 21.7363
    endloop
  endfacet
  facet normal 0 0 -1
    outer loop
      vertex -5.8525 4.14703 21.7363
      vertex 5.17251 2.67604 21.7363
      vertex -5.8525 2.67604 21.7363
    endloop
  endfacet
  facet normal 0 0 -1
    outer loop
      vertex 5.17251 8.87202 21.7363
      vertex -5.8525 11.55 21.7363
      vertex 5.09007 11.5656 21.7363
    endloop
  endfacet
  facet normal -0 0 -1
    outer loop
      vertex 3.85351 18.657 21.7363
      vertex -6.47274 16.4868 21.7363
      vertex 3.12513 20.6874 21.7363
    endloop
  endfacet
  facet normal -0 0 -1
    outer loop
      vertex 1.25514 24.2314 21.7363
      vertex -7.93949 19.957 21.7363
      vertex 0.113504 25.745 21.7363
    endloop
  endfacet
  facet normal 0 0 -1
    outer loop
      vertex -8.99769 21.154 21.7363
      vertex -1.16268 27.0847 21.7363
      vertex -7.93949 19.957 21.7363
    endloop
  endfacet
  facet normal -0 0 -1
    outer loop
      vertex -1.16268 27.0847 21.7363
      vertex -8.99769 21.154 21.7363
      vertex -2.56925 28.2498 21.7363
    endloop
  endfacet
  facet normal -0 0 -1
    outer loop
      vertex -2.56925 28.2498 21.7363
      vertex -8.99769 21.154 21.7363
      vertex -4.10618 29.2402 21.7363
    endloop
  endfacet
  facet normal -0 0 -1
    outer loop
      vertex -4.10618 29.2402 21.7363
      vertex -8.99769 21.154 21.7363
      vertex -5.77349 30.056 21.7363
    endloop
  endfacet
  facet normal 0 0 -1
    outer loop
      vertex -10.2822 22.009 21.7363
      vertex -5.77349 30.056 21.7363
      vertex -8.99769 21.154 21.7363
    endloop
  endfacet
  facet normal -0 0 -1
    outer loop
      vertex -5.77349 30.056 21.7363
      vertex -10.2822 22.009 21.7363
      vertex -7.55768 30.6935 21.7363
    endloop
  endfacet
  facet normal -0 0 -1
    outer loop
      vertex -7.55768 30.6935 21.7363
      vertex -10.2822 22.009 21.7363
      vertex -9.44524 31.1488 21.7363
    endloop
  endfacet
  facet normal 0 0 -1
    outer loop
      vertex -11.7932 22.522 21.7363
      vertex -9.44524 31.1488 21.7363
      vertex -10.2822 22.009 21.7363
    endloop
  endfacet
  facet normal -0 0 -1
    outer loop
      vertex -9.44524 31.1488 21.7363
      vertex -11.7932 22.522 21.7363
      vertex -11.4362 31.422 21.7363
    endloop
  endfacet
  facet normal 0 0 -1
    outer loop
      vertex -13.5305 22.693 21.7363
      vertex -11.4362 31.422 21.7363
      vertex -11.7932 22.522 21.7363
    endloop
  endfacet
  facet normal 0 0 -1
    outer loop
      vertex -13.5305 22.693 21.7363
      vertex -13.5305 31.513 21.7363
      vertex -11.4362 31.422 21.7363
    endloop
  endfacet
  facet normal 0 0 -1
    outer loop
      vertex -15.6419 31.422 21.7363
      vertex -13.5305 22.693 21.7363
      vertex -15.3357 22.506 21.7363
    endloop
  endfacet
  facet normal 0 0 -1
    outer loop
      vertex -13.5305 22.693 21.7363
      vertex -15.6419 31.422 21.7363
      vertex -13.5305 31.513 21.7363
    endloop
  endfacet
  facet normal 0 0 -1
    outer loop
      vertex -19.5399 30.6935 21.7363
      vertex -15.3357 22.506 21.7363
      vertex -16.8922 21.945 21.7363
    endloop
  endfacet
  facet normal 0 0 -1
    outer loop
      vertex -15.3357 22.506 21.7363
      vertex -17.645 31.1488 21.7363
      vertex -15.6419 31.422 21.7363
    endloop
  endfacet
  facet normal 0 0 -1
    outer loop
      vertex -21.3265 30.056 21.7363
      vertex -16.8922 21.945 21.7363
      vertex -18.2002 21.01 21.7363
    endloop
  endfacet
  facet normal 0 0 -1
    outer loop
      vertex -21.3265 30.056 21.7363
      vertex -18.2002 21.01 21.7363
      vertex -19.2595 19.701 21.7363
    endloop
  endfacet
  facet normal 0 0 -1
    outer loop
      vertex -15.3357 22.506 21.7363
      vertex -19.5399 30.6935 21.7363
      vertex -17.645 31.1488 21.7363
    endloop
  endfacet
  facet normal 0 0 -1
    outer loop
      vertex -21.3265 30.056 21.7363
      vertex -19.2595 19.701 21.7363
      vertex -20.0776 18.0052 21.7363
    endloop
  endfacet
  facet normal 0 0 -1
    outer loop
      vertex -21.3265 30.056 21.7363
      vertex -20.0776 18.0052 21.7363
      vertex -20.662 15.9108 21.7363
    endloop
  endfacet
  facet normal 0 0 -1
    outer loop
      vertex -21.3265 30.056 21.7363
      vertex -20.662 15.9108 21.7363
      vertex -21.0126 13.4177 21.7363
    endloop
  endfacet
  facet normal 0 0 -1
    outer loop
      vertex -16.8922 21.945 21.7363
      vertex -21.3265 30.056 21.7363
      vertex -19.5399 30.6935 21.7363
    endloop
  endfacet
  facet normal 0 0 -1
    outer loop
      vertex -21.3265 30.056 21.7363
      vertex -21.0126 13.4177 21.7363
      vertex -21.1295 10.526 21.7363
    endloop
  endfacet
  facet normal 0 0 1
    outer loop
      vertex -5.8525 11.55 22.0363
      vertex -7.8274 2.67604 22.0363
      vertex -5.8525 4.14703 22.0363
    endloop
  endfacet
  facet normal 0 -0 1
    outer loop
      vertex -7.8274 2.67604 22.0363
      vertex -5.8525 11.55 22.0363
      vertex -17.8073 2.67604 22.0363
    endloop
  endfacet
  facet normal 0 0 1
    outer loop
      vertex 4.84275 14.0943 22.0363
      vertex -6.05681 14.2017 22.0363
      vertex -5.8525 11.55 22.0363
    endloop
  endfacet
  facet normal 0 0 1
    outer loop
      vertex -4.10618 29.2402 22.0363
      vertex -6.47274 16.4868 22.0363
      vertex -6.05681 14.2017 22.0363
    endloop
  endfacet
  facet normal 0 0 1
    outer loop
      vertex -4.10618 29.2402 22.0363
      vertex -7.1003 18.4052 22.0363
      vertex -6.47274 16.4868 22.0363
    endloop
  endfacet
  facet normal 0 0 1
    outer loop
      vertex -10.2822 22.009 22.0363
      vertex -5.77349 30.056 22.0363
      vertex -7.55768 30.6935 22.0363
    endloop
  endfacet
  facet normal 0 0 1
    outer loop
      vertex -4.10618 29.2402 22.0363
      vertex -7.93949 19.957 22.0363
      vertex -7.1003 18.4052 22.0363
    endloop
  endfacet
  facet normal 0 0 1
    outer loop
      vertex -4.10618 29.2402 22.0363
      vertex -8.99769 21.154 22.0363
      vertex -7.93949 19.957 22.0363
    endloop
  endfacet
  facet normal 0 0 1
    outer loop
      vertex -10.2822 22.009 22.0363
      vertex -7.55768 30.6935 22.0363
      vertex -9.44524 31.1488 22.0363
    endloop
  endfacet
  facet normal 0 0 1
    outer loop
      vertex -5.77349 30.056 22.0363
      vertex -10.2822 22.009 22.0363
      vertex -8.99769 21.154 22.0363
    endloop
  endfacet
  facet normal 0 0 1
    outer loop
      vertex -11.7932 22.522 22.0363
      vertex -9.44524 31.1488 22.0363
      vertex -11.4362 31.422 22.0363
    endloop
  endfacet
  facet normal 0 0 1
    outer loop
      vertex -9.44524 31.1488 22.0363
      vertex -11.7932 22.522 22.0363
      vertex -10.2822 22.009 22.0363
    endloop
  endfacet
  facet normal 0 0 1
    outer loop
      vertex -13.5305 22.693 22.0363
      vertex -11.4362 31.422 22.0363
      vertex -13.5305 31.513 22.0363
    endloop
  endfacet
  facet normal 0 0 1
    outer loop
      vertex -11.4362 31.422 22.0363
      vertex -13.5305 22.693 22.0363
      vertex -11.7932 22.522 22.0363
    endloop
  endfacet
  facet normal -0 0 1
    outer loop
      vertex -15.6419 31.422 22.0363
      vertex -13.5305 22.693 22.0363
      vertex -13.5305 31.513 22.0363
    endloop
  endfacet
  facet normal 0 0 1
    outer loop
      vertex -13.5305 22.693 22.0363
      vertex -15.6419 31.422 22.0363
      vertex -15.3357 22.506 22.0363
    endloop
  endfacet
  facet normal -0 0 1
    outer loop
      vertex -17.645 31.1488 22.0363
      vertex -15.3357 22.506 22.0363
      vertex -15.6419 31.422 22.0363
    endloop
  endfacet
  facet normal -0 0 1
    outer loop
      vertex -19.5399 30.6935 22.0363
      vertex -15.3357 22.506 22.0363
      vertex -17.645 31.1488 22.0363
    endloop
  endfacet
  facet normal 0 0 1
    outer loop
      vertex -15.3357 22.506 22.0363
      vertex -19.5399 30.6935 22.0363
      vertex -16.8922 21.945 22.0363
    endloop
  endfacet
  facet normal -0 0 1
    outer loop
      vertex -21.3265 30.056 22.0363
      vertex -16.8922 21.945 22.0363
      vertex -19.5399 30.6935 22.0363
    endloop
  endfacet
  facet normal -0 0 1
    outer loop
      vertex -22.9925 29.2402 22.0363
      vertex -16.8922 21.945 22.0363
      vertex -21.3265 30.056 22.0363
    endloop
  endfacet
  facet normal 0 0 1
    outer loop
      vertex -16.8922 21.945 22.0363
      vertex -22.9925 29.2402 22.0363
      vertex -18.2002 21.01 22.0363
    endloop
  endfacet
  facet normal -0 0 1
    outer loop
      vertex -24.5257 28.2498 22.0363
      vertex -18.2002 21.01 22.0363
      vertex -22.9925 29.2402 22.0363
    endloop
  endfacet
  facet normal -0 0 1
    outer loop
      vertex -25.926 27.0847 22.0363
      vertex -18.2002 21.01 22.0363
      vertex -24.5257 28.2498 22.0363
    endloop
  endfacet
  facet normal 0 0 1
    outer loop
      vertex -18.2002 21.01 22.0363
      vertex -25.926 27.0847 22.0363
      vertex -19.2595 19.701 22.0363
    endloop
  endfacet
  facet normal -0 0 1
    outer loop
      vertex -27.1935 25.745 22.0363
      vertex -19.2595 19.701 22.0363
      vertex -25.926 27.0847 22.0363
    endloop
  endfacet
  facet normal -0 0 1
    outer loop
      vertex -28.3243 24.2314 22.0363
      vertex -19.2595 19.701 22.0363
      vertex -27.1935 25.745 22.0363
    endloop
  endfacet
  facet normal 0 0 1
    outer loop
      vertex -19.2595 19.701 22.0363
      vertex -28.3243 24.2314 22.0363
      vertex -20.0776 18.0052 22.0363
    endloop
  endfacet
  facet normal -0 0 1
    outer loop
      vertex -29.3147 22.5455 22.0363
      vertex -20.0776 18.0052 22.0363
      vertex -28.3243 24.2314 22.0363
    endloop
  endfacet
  facet normal -0 0 1
    outer loop
      vertex -30.1648 20.6874 22.0363
      vertex -20.0776 18.0052 22.0363
      vertex -29.3147 22.5455 22.0363
    endloop
  endfacet
  facet normal 0 0 1
    outer loop
      vertex -20.0776 18.0052 22.0363
      vertex -30.1648 20.6874 22.0363
      vertex -20.662 15.9108 22.0363
    endloop
  endfacet
  facet normal -0 0 1
    outer loop
      vertex -30.8745 18.657 22.0363
      vertex -20.662 15.9108 22.0363
      vertex -30.1648 20.6874 22.0363
    endloop
  endfacet
  facet normal -0 0 1
    outer loop
      vertex -31.4345 16.4581 22.0363
      vertex -20.662 15.9108 22.0363
      vertex -30.8745 18.657 22.0363
    endloop
  endfacet
  facet normal 0 0 1
    outer loop
      vertex -20.662 15.9108 22.0363
      vertex -31.4345 16.4581 22.0363
      vertex -21.0126 13.4177 22.0363
    endloop
  endfacet
  facet normal -0 0 1
    outer loop
      vertex -31.8345 14.0943 22.0363
      vertex -21.0126 13.4177 22.0363
      vertex -31.4345 16.4581 22.0363
    endloop
  endfacet
  facet normal 0 0 1
    outer loop
      vertex -32.0745 11.5656 22.0363
      vertex -21.0126 13.4177 22.0363
      vertex -31.8345 14.0943 22.0363
    endloop
  endfacet
  facet normal 0 0 1
    outer loop
      vertex -21.0126 13.4177 22.0363
      vertex -32.0745 11.5656 22.0363
      vertex -21.1295 10.526 22.0363
    endloop
  endfacet
  facet normal 0 0 1
    outer loop
      vertex -32.1545 8.87202 22.0363
      vertex -21.1295 10.526 22.0363
      vertex -32.0745 11.5656 22.0363
    endloop
  endfacet
  facet normal 0 0 1
    outer loop
      vertex -21.1295 10.526 22.0363
      vertex -32.1545 8.87202 22.0363
      vertex -21.1295 2.67604 22.0363
    endloop
  endfacet
  facet normal 0 0 1
    outer loop
      vertex -21.1295 2.67604 22.0363
      vertex -32.1545 8.87202 22.0363
      vertex -32.1545 2.67604 22.0363
    endloop
  endfacet
  facet normal -0 0 1
    outer loop
      vertex -5.8525 11.55 22.0363
      vertex 5.17251 8.87202 22.0363
      vertex 5.09007 11.5656 22.0363
    endloop
  endfacet
  facet normal 0 0 1
    outer loop
      vertex -5.8525 11.55 22.0363
      vertex 5.09007 11.5656 22.0363
      vertex 4.84275 14.0943 22.0363
    endloop
  endfacet
  facet normal -0 0 1
    outer loop
      vertex -6.05681 14.2017 22.0363
      vertex 4.84275 14.0943 22.0363
      vertex 4.43057 16.4581 22.0363
    endloop
  endfacet
  facet normal 0 0 1
    outer loop
      vertex -6.05681 14.2017 22.0363
      vertex 4.43057 16.4581 22.0363
      vertex 3.85351 18.657 22.0363
    endloop
  endfacet
  facet normal 0 0 1
    outer loop
      vertex -6.05681 14.2017 22.0363
      vertex 3.85351 18.657 22.0363
      vertex 3.12513 20.6874 22.0363
    endloop
  endfacet
  facet normal 0 0 1
    outer loop
      vertex -6.05681 14.2017 22.0363
      vertex 3.12513 20.6874 22.0363
      vertex 2.259 22.5455 22.0363
    endloop
  endfacet
  facet normal 0 0 1
    outer loop
      vertex -6.05681 14.2017 22.0363
      vertex 2.259 22.5455 22.0363
      vertex 1.25514 24.2314 22.0363
    endloop
  endfacet
  facet normal 0 0 1
    outer loop
      vertex -6.05681 14.2017 22.0363
      vertex 1.25514 24.2314 22.0363
      vertex 0.113504 25.745 22.0363
    endloop
  endfacet
  facet normal 0 0 1
    outer loop
      vertex -6.05681 14.2017 22.0363
      vertex 0.113504 25.745 22.0363
      vertex -1.16268 27.0847 22.0363
    endloop
  endfacet
  facet normal 0 0 1
    outer loop
      vertex -6.05681 14.2017 22.0363
      vertex -1.16268 27.0847 22.0363
      vertex -2.56925 28.2498 22.0363
    endloop
  endfacet
  facet normal 0 0 1
    outer loop
      vertex -6.05681 14.2017 22.0363
      vertex -2.56925 28.2498 22.0363
      vertex -4.10618 29.2402 22.0363
    endloop
  endfacet
  facet normal 0 0 1
    outer loop
      vertex -8.99769 21.154 22.0363
      vertex -4.10618 29.2402 22.0363
      vertex -5.77349 30.056 22.0363
    endloop
  endfacet
  facet normal 0 0 1
    outer loop
      vertex 5.17251 8.87202 22.0363
      vertex -5.8525 11.55 22.0363
      vertex -5.8525 4.14703 22.0363
    endloop
  endfacet
  facet normal 0 0 1
    outer loop
      vertex 5.17251 8.87202 22.0363
      vertex -5.8525 4.14703 22.0363
      vertex 5.17251 2.67604 22.0363
    endloop
  endfacet
  facet normal 0 0 1
    outer loop
      vertex 5.17251 2.67604 22.0363
      vertex -5.8525 4.14703 22.0363
      vertex -5.8525 2.67604 22.0363
    endloop
  endfacet
  facet normal -0.135137 0.990827 0
    outer loop
      vertex -15.6419 31.422 21.7363
      vertex -17.645 31.1488 22.0363
      vertex -15.6419 31.422 22.0363
    endloop
  endfacet
  facet normal -0.135137 0.990827 0
    outer loop
      vertex -17.645 31.1488 22.0363
      vertex -15.6419 31.422 21.7363
      vertex -17.645 31.1488 21.7363
    endloop
  endfacet
  facet normal -0.233627 0.972326 0
    outer loop
      vertex -17.645 31.1488 21.7363
      vertex -19.5399 30.6935 22.0363
      vertex -17.645 31.1488 22.0363
    endloop
  endfacet
  facet normal -0.233627 0.972326 0
    outer loop
      vertex -19.5399 30.6935 22.0363
      vertex -17.645 31.1488 21.7363
      vertex -19.5399 30.6935 21.7363
    endloop
  endfacet
  facet normal -0.336069 0.941837 0
    outer loop
      vertex -19.5399 30.6935 21.7363
      vertex -21.3265 30.056 22.0363
      vertex -19.5399 30.6935 22.0363
    endloop
  endfacet
  facet normal -0.336069 0.941837 0
    outer loop
      vertex -21.3265 30.056 22.0363
      vertex -19.5399 30.6935 21.7363
      vertex -21.3265 30.056 21.7363
    endloop
  endfacet
  facet normal -0.43978 0.898105 0
    outer loop
      vertex -21.3265 30.056 21.7363
      vertex -22.9925 29.2402 22.0363
      vertex -21.3265 30.056 22.0363
    endloop
  endfacet
  facet normal -0.43978 0.898105 0
    outer loop
      vertex -22.9925 29.2402 22.0363
      vertex -21.3265 30.056 21.7363
      vertex -22.9925 29.2402 21.7363
    endloop
  endfacet
  facet normal -0.542606 0.839987 0
    outer loop
      vertex -22.9925 29.2402 21.7363
      vertex -24.5257 28.2498 22.0363
      vertex -22.9925 29.2402 22.0363
    endloop
  endfacet
  facet normal -0.542606 0.839987 0
    outer loop
      vertex -24.5257 28.2498 22.0363
      vertex -22.9925 29.2402 21.7363
      vertex -24.5257 28.2498 21.7363
    endloop
  endfacet
  facet normal -0.639596 0.768712 0
    outer loop
      vertex -24.5257 28.2498 21.7363
      vertex -25.926 27.0847 22.0363
      vertex -24.5257 28.2498 22.0363
    endloop
  endfacet
  facet normal -0.639596 0.768712 0
    outer loop
      vertex -25.926 27.0847 22.0363
      vertex -24.5257 28.2498 21.7363
      vertex -25.926 27.0847 21.7363
    endloop
  endfacet
  facet normal -0.72641 0.687262 0
    outer loop
      vertex -27.1935 25.745 21.7363
      vertex -25.926 27.0847 22.0363
      vertex -25.926 27.0847 21.7363
    endloop
  endfacet
  facet normal -0.72641 0.687262 0
    outer loop
      vertex -25.926 27.0847 22.0363
      vertex -27.1935 25.745 21.7363
      vertex -27.1935 25.745 22.0363
    endloop
  endfacet
  facet normal -0.801116 0.598509 0
    outer loop
      vertex -28.3243 24.2314 21.7363
      vertex -27.1935 25.745 22.0363
      vertex -27.1935 25.745 21.7363
    endloop
  endfacet
  facet normal -0.801116 0.598509 0
    outer loop
      vertex -27.1935 25.745 22.0363
      vertex -28.3243 24.2314 21.7363
      vertex -28.3243 24.2314 22.0363
    endloop
  endfacet
  facet normal -0.862226 0.506524 0
    outer loop
      vertex -29.3147 22.5455 21.7363
      vertex -28.3243 24.2314 22.0363
      vertex -28.3243 24.2314 21.7363
    endloop
  endfacet
  facet normal -0.862226 0.506524 0
    outer loop
      vertex -28.3243 24.2314 22.0363
      vertex -29.3147 22.5455 21.7363
      vertex -29.3147 22.5455 22.0363
    endloop
  endfacet
  facet normal -0.909348 0.416036 0
    outer loop
      vertex -30.1648 20.6874 21.7363
      vertex -29.3147 22.5455 22.0363
      vertex -29.3147 22.5455 21.7363
    endloop
  endfacet
  facet normal -0.909348 0.416036 0
    outer loop
      vertex -29.3147 22.5455 22.0363
      vertex -30.1648 20.6874 21.7363
      vertex -30.1648 20.6874 22.0363
    endloop
  endfacet
  facet normal -0.943995 0.329961 0
    outer loop
      vertex -30.8745 18.657 21.7363
      vertex -30.1648 20.6874 22.0363
      vertex -30.1648 20.6874 21.7363
    endloop
  endfacet
  facet normal -0.943995 0.329961 0
    outer loop
      vertex -30.1648 20.6874 22.0363
      vertex -30.8745 18.657 21.7363
      vertex -30.8745 18.657 22.0363
    endloop
  endfacet
  facet normal -0.969068 0.246795 0
    outer loop
      vertex -31.4345 16.4581 21.7363
      vertex -30.8745 18.657 22.0363
      vertex -30.8745 18.657 21.7363
    endloop
  endfacet
  facet normal -0.969068 0.246795 0
    outer loop
      vertex -30.8745 18.657 22.0363
      vertex -31.4345 16.4581 21.7363
      vertex -31.4345 16.4581 22.0363
    endloop
  endfacet
  facet normal -0.985983 0.166847 0
    outer loop
      vertex -31.8345 14.0943 21.7363
      vertex -31.4345 16.4581 22.0363
      vertex -31.4345 16.4581 21.7363
    endloop
  endfacet
  facet normal -0.985983 0.166847 0
    outer loop
      vertex -31.4345 16.4581 22.0363
      vertex -31.8345 14.0943 21.7363
      vertex -31.8345 14.0943 22.0363
    endloop
  endfacet
  facet normal -0.995526 0.0944858 0
    outer loop
      vertex -32.0745 11.5656 21.7363
      vertex -31.8345 14.0943 22.0363
      vertex -31.8345 14.0943 21.7363
    endloop
  endfacet
  facet normal -0.995526 0.0944858 0
    outer loop
      vertex -31.8345 14.0943 22.0363
      vertex -32.0745 11.5656 21.7363
      vertex -32.0745 11.5656 22.0363
    endloop
  endfacet
  facet normal -0.999559 0.0296872 0
    outer loop
      vertex -32.1545 8.87202 21.7363
      vertex -32.0745 11.5656 22.0363
      vertex -32.0745 11.5656 21.7363
    endloop
  endfacet
  facet normal -0.999559 0.0296872 0
    outer loop
      vertex -32.0745 11.5656 22.0363
      vertex -32.1545 8.87202 21.7363
      vertex -32.1545 8.87202 22.0363
    endloop
  endfacet
  facet normal -1 0 0
    outer loop
      vertex -32.1545 2.67604 21.7363
      vertex -32.1545 8.87202 22.0363
      vertex -32.1545 8.87202 21.7363
    endloop
  endfacet
  facet normal -1 -0 0
    outer loop
      vertex -32.1545 8.87202 22.0363
      vertex -32.1545 2.67604 21.7363
      vertex -32.1545 2.67604 22.0363
    endloop
  endfacet
  facet normal 0 -1 0
    outer loop
      vertex -32.1545 2.67604 21.7363
      vertex -21.1295 2.67604 22.0363
      vertex -32.1545 2.67604 22.0363
    endloop
  endfacet
  facet normal 0 -1 -0
    outer loop
      vertex -21.1295 2.67604 22.0363
      vertex -32.1545 2.67604 21.7363
      vertex -21.1295 2.67604 21.7363
    endloop
  endfacet
  facet normal 1 -0 0
    outer loop
      vertex -21.1295 2.67604 22.0363
      vertex -21.1295 10.526 21.7363
      vertex -21.1295 10.526 22.0363
    endloop
  endfacet
  facet normal 1 0 0
    outer loop
      vertex -21.1295 10.526 21.7363
      vertex -21.1295 2.67604 22.0363
      vertex -21.1295 2.67604 21.7363
    endloop
  endfacet
  facet normal 0.999184 -0.0403931 0
    outer loop
      vertex -21.1295 10.526 22.0363
      vertex -21.0126 13.4177 21.7363
      vertex -21.0126 13.4177 22.0363
    endloop
  endfacet
  facet normal 0.999184 -0.0403931 0
    outer loop
      vertex -21.0126 13.4177 21.7363
      vertex -21.1295 10.526 22.0363
      vertex -21.1295 10.526 21.7363
    endloop
  endfacet
  facet normal 0.990256 -0.139258 0
    outer loop
      vertex -21.0126 13.4177 22.0363
      vertex -20.662 15.9108 21.7363
      vertex -20.662 15.9108 22.0363
    endloop
  endfacet
  facet normal 0.990256 -0.139258 0
    outer loop
      vertex -20.662 15.9108 21.7363
      vertex -21.0126 13.4177 22.0363
      vertex -21.0126 13.4177 21.7363
    endloop
  endfacet
  facet normal 0.963206 -0.268763 0
    outer loop
      vertex -20.662 15.9108 22.0363
      vertex -20.0776 18.0052 21.7363
      vertex -20.0776 18.0052 22.0363
    endloop
  endfacet
  facet normal 0.963206 -0.268763 0
    outer loop
      vertex -20.0776 18.0052 21.7363
      vertex -20.662 15.9108 22.0363
      vertex -20.662 15.9108 21.7363
    endloop
  endfacet
  facet normal 0.900668 -0.434507 0
    outer loop
      vertex -20.0776 18.0052 22.0363
      vertex -19.2595 19.701 21.7363
      vertex -19.2595 19.701 22.0363
    endloop
  endfacet
  facet normal 0.900668 -0.434507 0
    outer loop
      vertex -19.2595 19.701 21.7363
      vertex -20.0776 18.0052 22.0363
      vertex -20.0776 18.0052 21.7363
    endloop
  endfacet
  facet normal 0.777351 -0.629067 0
    outer loop
      vertex -19.2595 19.701 22.0363
      vertex -18.2002 21.01 21.7363
      vertex -18.2002 21.01 22.0363
    endloop
  endfacet
  facet normal 0.777351 -0.629067 0
    outer loop
      vertex -18.2002 21.01 21.7363
      vertex -19.2595 19.701 22.0363
      vertex -19.2595 19.701 21.7363
    endloop
  endfacet
  facet normal 0.581532 -0.813523 0
    outer loop
      vertex -18.2002 21.01 21.7363
      vertex -16.8922 21.945 22.0363
      vertex -18.2002 21.01 22.0363
    endloop
  endfacet
  facet normal 0.581532 -0.813523 0
    outer loop
      vertex -16.8922 21.945 22.0363
      vertex -18.2002 21.01 21.7363
      vertex -16.8922 21.945 21.7363
    endloop
  endfacet
  facet normal 0.339073 -0.94076 0
    outer loop
      vertex -16.8922 21.945 21.7363
      vertex -15.3357 22.506 22.0363
      vertex -16.8922 21.945 22.0363
    endloop
  endfacet
  facet normal 0.339073 -0.94076 0
    outer loop
      vertex -15.3357 22.506 22.0363
      vertex -16.8922 21.945 21.7363
      vertex -15.3357 22.506 21.7363
    endloop
  endfacet
  facet normal 0.103038 -0.994677 0
    outer loop
      vertex -15.3357 22.506 21.7363
      vertex -13.5305 22.693 22.0363
      vertex -15.3357 22.506 22.0363
    endloop
  endfacet
  facet normal 0.103038 -0.994677 0
    outer loop
      vertex -13.5305 22.693 22.0363
      vertex -15.3357 22.506 21.7363
      vertex -13.5305 22.693 21.7363
    endloop
  endfacet
  facet normal -0.0979552 -0.995191 0
    outer loop
      vertex -13.5305 22.693 21.7363
      vertex -11.7932 22.522 22.0363
      vertex -13.5305 22.693 22.0363
    endloop
  endfacet
  facet normal -0.0979552 -0.995191 -0
    outer loop
      vertex -11.7932 22.522 22.0363
      vertex -13.5305 22.693 21.7363
      vertex -11.7932 22.522 21.7363
    endloop
  endfacet
  facet normal -0.321487 -0.946914 0
    outer loop
      vertex -11.7932 22.522 21.7363
      vertex -10.2822 22.009 22.0363
      vertex -11.7932 22.522 22.0363
    endloop
  endfacet
  facet normal -0.321487 -0.946914 -0
    outer loop
      vertex -10.2822 22.009 22.0363
      vertex -11.7932 22.522 21.7363
      vertex -10.2822 22.009 21.7363
    endloop
  endfacet
  facet normal -0.554099 -0.832451 0
    outer loop
      vertex -10.2822 22.009 21.7363
      vertex -8.99769 21.154 22.0363
      vertex -10.2822 22.009 22.0363
    endloop
  endfacet
  facet normal -0.554099 -0.832451 -0
    outer loop
      vertex -8.99769 21.154 22.0363
      vertex -10.2822 22.009 21.7363
      vertex -8.99769 21.154 21.7363
    endloop
  endfacet
  facet normal -0.749209 -0.662333 0
    outer loop
      vertex -7.93949 19.957 21.7363
      vertex -8.99769 21.154 22.0363
      vertex -8.99769 21.154 21.7363
    endloop
  endfacet
  facet normal -0.749209 -0.662333 0
    outer loop
      vertex -8.99769 21.154 22.0363
      vertex -7.93949 19.957 21.7363
      vertex -7.93949 19.957 22.0363
    endloop
  endfacet
  facet normal -0.879617 -0.475683 0
    outer loop
      vertex -7.1003 18.4052 21.7363
      vertex -7.93949 19.957 22.0363
      vertex -7.93949 19.957 21.7363
    endloop
  endfacet
  facet normal -0.879617 -0.475683 0
    outer loop
      vertex -7.93949 19.957 22.0363
      vertex -7.1003 18.4052 21.7363
      vertex -7.1003 18.4052 22.0363
    endloop
  endfacet
  facet normal -0.950438 -0.310914 0
    outer loop
      vertex -6.47274 16.4868 21.7363
      vertex -7.1003 18.4052 22.0363
      vertex -7.1003 18.4052 21.7363
    endloop
  endfacet
  facet normal -0.950438 -0.310914 0
    outer loop
      vertex -7.1003 18.4052 22.0363
      vertex -6.47274 16.4868 21.7363
      vertex -6.47274 16.4868 22.0363
    endloop
  endfacet
  facet normal -0.983835 -0.179076 0
    outer loop
      vertex -6.05681 14.2017 21.7363
      vertex -6.47274 16.4868 22.0363
      vertex -6.47274 16.4868 21.7363
    endloop
  endfacet
  facet normal -0.983835 -0.179076 0
    outer loop
      vertex -6.47274 16.4868 22.0363
      vertex -6.05681 14.2017 21.7363
      vertex -6.05681 14.2017 22.0363
    endloop
  endfacet
  facet normal -0.997045 -0.076821 0
    outer loop
      vertex -5.8525 11.55 21.7363
      vertex -6.05681 14.2017 22.0363
      vertex -6.05681 14.2017 21.7363
    endloop
  endfacet
  facet normal -0.997045 -0.076821 0
    outer loop
      vertex -6.05681 14.2017 22.0363
      vertex -5.8525 11.55 21.7363
      vertex -5.8525 11.55 22.0363
    endloop
  endfacet
  facet normal -0.596032 0.802961 0
    outer loop
      vertex -5.8525 11.55 21.7363
      vertex -17.8073 2.67604 22.0363
      vertex -5.8525 11.55 22.0363
    endloop
  endfacet
  facet normal -0.596032 0.802961 0
    outer loop
      vertex -17.8073 2.67604 22.0363
      vertex -5.8525 11.55 21.7363
      vertex -17.8073 2.67604 21.7363
    endloop
  endfacet
  facet normal 0 -1 0
    outer loop
      vertex -17.8073 2.67604 21.7363
      vertex -7.8274 2.67604 22.0363
      vertex -17.8073 2.67604 22.0363
    endloop
  endfacet
  facet normal 0 -1 -0
    outer loop
      vertex -7.8274 2.67604 22.0363
      vertex -17.8073 2.67604 21.7363
      vertex -7.8274 2.67604 21.7363
    endloop
  endfacet
  facet normal 0.59735 -0.801981 0
    outer loop
      vertex -7.8274 2.67604 21.7363
      vertex -5.8525 4.14703 22.0363
      vertex -7.8274 2.67604 22.0363
    endloop
  endfacet
  facet normal 0.59735 -0.801981 0
    outer loop
      vertex -5.8525 4.14703 22.0363
      vertex -7.8274 2.67604 21.7363
      vertex -5.8525 4.14703 21.7363
    endloop
  endfacet
  facet normal -1 0 0
    outer loop
      vertex -5.8525 2.67604 21.7363
      vertex -5.8525 4.14703 22.0363
      vertex -5.8525 4.14703 21.7363
    endloop
  endfacet
  facet normal -1 -0 0
    outer loop
      vertex -5.8525 4.14703 22.0363
      vertex -5.8525 2.67604 21.7363
      vertex -5.8525 2.67604 22.0363
    endloop
  endfacet
  facet normal 0 -1 0
    outer loop
      vertex -5.8525 2.67604 21.7363
      vertex 5.17251 2.67604 22.0363
      vertex -5.8525 2.67604 22.0363
    endloop
  endfacet
  facet normal 0 -1 -0
    outer loop
      vertex 5.17251 2.67604 22.0363
      vertex -5.8525 2.67604 21.7363
      vertex 5.17251 2.67604 21.7363
    endloop
  endfacet
  facet normal 1 -0 0
    outer loop
      vertex 5.17251 2.67604 22.0363
      vertex 5.17251 8.87202 21.7363
      vertex 5.17251 8.87202 22.0363
    endloop
  endfacet
  facet normal 1 0 0
    outer loop
      vertex 5.17251 8.87202 21.7363
      vertex 5.17251 2.67604 22.0363
      vertex 5.17251 2.67604 21.7363
    endloop
  endfacet
  facet normal 0.999532 0.0305918 0
    outer loop
      vertex 5.17251 8.87202 22.0363
      vertex 5.09007 11.5656 21.7363
      vertex 5.09007 11.5656 22.0363
    endloop
  endfacet
  facet normal 0.999532 0.0305918 0
    outer loop
      vertex 5.09007 11.5656 21.7363
      vertex 5.17251 8.87202 22.0363
      vertex 5.17251 8.87202 21.7363
    endloop
  endfacet
  facet normal 0.995251 0.0973407 0
    outer loop
      vertex 5.09007 11.5656 22.0363
      vertex 4.84275 14.0943 21.7363
      vertex 4.84275 14.0943 22.0363
    endloop
  endfacet
  facet normal 0.995251 0.0973407 0
    outer loop
      vertex 4.84275 14.0943 21.7363
      vertex 5.09007 11.5656 22.0363
      vertex 5.09007 11.5656 21.7363
    endloop
  endfacet
  facet normal 0.985135 0.17178 0
    outer loop
      vertex 4.84275 14.0943 22.0363
      vertex 4.43057 16.4581 21.7363
      vertex 4.43057 16.4581 22.0363
    endloop
  endfacet
  facet normal 0.985135 0.17178 0
    outer loop
      vertex 4.43057 16.4581 21.7363
      vertex 4.84275 14.0943 22.0363
      vertex 4.84275 14.0943 21.7363
    endloop
  endfacet
  facet normal 0.967247 0.253836 0
    outer loop
      vertex 4.43057 16.4581 22.0363
      vertex 3.85351 18.657 21.7363
      vertex 3.85351 18.657 22.0363
    endloop
  endfacet
  facet normal 0.967247 0.253836 0
    outer loop
      vertex 3.85351 18.657 21.7363
      vertex 4.43057 16.4581 22.0363
      vertex 4.43057 16.4581 21.7363
    endloop
  endfacet
  facet normal 0.941266 0.337667 0
    outer loop
      vertex 3.85351 18.657 22.0363
      vertex 3.12513 20.6874 21.7363
      vertex 3.12513 20.6874 22.0363
    endloop
  endfacet
  facet normal 0.941266 0.337667 0
    outer loop
      vertex 3.12513 20.6874 21.7363
      vertex 3.85351 18.657 22.0363
      vertex 3.85351 18.657 21.7363
    endloop
  endfacet
  facet normal 0.906367 0.422492 0
    outer loop
      vertex 3.12513 20.6874 22.0363
      vertex 2.259 22.5455 21.7363
      vertex 2.259 22.5455 22.0363
    endloop
  endfacet
  facet normal 0.906367 0.422492 0
    outer loop
      vertex 2.259 22.5455 21.7363
      vertex 3.12513 20.6874 22.0363
      vertex 3.12513 20.6874 21.7363
    endloop
  endfacet
  facet normal 0.859215 0.511615 0
    outer loop
      vertex 2.259 22.5455 22.0363
      vertex 1.25514 24.2314 21.7363
      vertex 1.25514 24.2314 22.0363
    endloop
  endfacet
  facet normal 0.859215 0.511615 0
    outer loop
      vertex 1.25514 24.2314 21.7363
      vertex 2.259 22.5455 22.0363
      vertex 2.259 22.5455 21.7363
    endloop
  endfacet
  facet normal 0.798368 0.60217 0
    outer loop
      vertex 1.25514 24.2314 22.0363
      vertex 0.113504 25.745 21.7363
      vertex 0.113504 25.745 22.0363
    endloop
  endfacet
  facet normal 0.798368 0.60217 0
    outer loop
      vertex 0.113504 25.745 21.7363
      vertex 1.25514 24.2314 22.0363
      vertex 1.25514 24.2314 21.7363
    endloop
  endfacet
  facet normal 0.724063 0.689734 0
    outer loop
      vertex 0.113504 25.745 22.0363
      vertex -1.16268 27.0847 21.7363
      vertex -1.16268 27.0847 22.0363
    endloop
  endfacet
  facet normal 0.724063 0.689734 0
    outer loop
      vertex -1.16268 27.0847 21.7363
      vertex 0.113504 25.745 22.0363
      vertex 0.113504 25.745 21.7363
    endloop
  endfacet
  facet normal 0.637906 0.770114 -0
    outer loop
      vertex -1.16268 27.0847 21.7363
      vertex -2.56925 28.2498 22.0363
      vertex -1.16268 27.0847 22.0363
    endloop
  endfacet
  facet normal 0.637906 0.770114 0
    outer loop
      vertex -2.56925 28.2498 22.0363
      vertex -1.16268 27.0847 21.7363
      vertex -2.56925 28.2498 21.7363
    endloop
  endfacet
  facet normal 0.541676 0.840587 -0
    outer loop
      vertex -2.56925 28.2498 21.7363
      vertex -4.10618 29.2402 22.0363
      vertex -2.56925 28.2498 22.0363
    endloop
  endfacet
  facet normal 0.541676 0.840587 0
    outer loop
      vertex -4.10618 29.2402 22.0363
      vertex -2.56925 28.2498 21.7363
      vertex -4.10618 29.2402 21.7363
    endloop
  endfacet
  facet normal 0.439502 0.898242 -0
    outer loop
      vertex -4.10618 29.2402 21.7363
      vertex -5.77349 30.056 22.0363
      vertex -4.10618 29.2402 22.0363
    endloop
  endfacet
  facet normal 0.439502 0.898242 0
    outer loop
      vertex -5.77349 30.056 22.0363
      vertex -4.10618 29.2402 21.7363
      vertex -5.77349 30.056 21.7363
    endloop
  endfacet
  facet normal 0.336472 0.941694 -0
    outer loop
      vertex -5.77349 30.056 21.7363
      vertex -7.55768 30.6935 22.0363
      vertex -5.77349 30.056 22.0363
    endloop
  endfacet
  facet normal 0.336472 0.941694 0
    outer loop
      vertex -7.55768 30.6935 22.0363
      vertex -5.77349 30.056 21.7363
      vertex -7.55768 30.6935 21.7363
    endloop
  endfacet
  facet normal 0.234486 0.97212 -0
    outer loop
      vertex -7.55768 30.6935 21.7363
      vertex -9.44524 31.1488 22.0363
      vertex -7.55768 30.6935 22.0363
    endloop
  endfacet
  facet normal 0.234486 0.97212 0
    outer loop
      vertex -9.44524 31.1488 22.0363
      vertex -7.55768 30.6935 21.7363
      vertex -9.44524 31.1488 21.7363
    endloop
  endfacet
  facet normal 0.135946 0.990716 -0
    outer loop
      vertex -9.44524 31.1488 21.7363
      vertex -11.4362 31.422 22.0363
      vertex -9.44524 31.1488 22.0363
    endloop
  endfacet
  facet normal 0.135946 0.990716 0
    outer loop
      vertex -11.4362 31.422 22.0363
      vertex -9.44524 31.1488 21.7363
      vertex -11.4362 31.422 21.7363
    endloop
  endfacet
  facet normal 0.0434103 0.999057 -0
    outer loop
      vertex -11.4362 31.422 21.7363
      vertex -13.5305 31.513 22.0363
      vertex -11.4362 31.422 22.0363
    endloop
  endfacet
  facet normal 0.0434103 0.999057 0
    outer loop
      vertex -13.5305 31.513 22.0363
      vertex -11.4362 31.422 21.7363
      vertex -13.5305 31.513 21.7363
    endloop
  endfacet
  facet normal -0.0430594 0.999073 0
    outer loop
      vertex -13.5305 31.513 21.7363
      vertex -15.6419 31.422 22.0363
      vertex -13.5305 31.513 22.0363
    endloop
  endfacet
  facet normal -0.0430594 0.999073 0
    outer loop
      vertex -15.6419 31.422 22.0363
      vertex -13.5305 31.513 21.7363
      vertex -15.6419 31.422 21.7363
    endloop
  endfacet
endsolid OpenSCAD_Model
