solid OpenSCAD_Model
  facet normal -0.580885 0.813986 0
    outer loop
      vertex -18.536 -10.117 21.7361
      vertex -19.1031 -10.5217 22.0361
      vertex -18.536 -10.117 22.0361
    endloop
  endfacet
  facet normal -0.580885 0.813986 0
    outer loop
      vertex -19.1031 -10.5217 22.0361
      vertex -18.536 -10.117 21.7361
      vertex -19.1031 -10.5217 21.7361
    endloop
  endfacet
  facet normal 0.224217 -0.974539 0
    outer loop
      vertex -12.359 -23.1402 21.7361
      vertex -11.5836 -22.9618 22.0361
      vertex -12.359 -23.1402 22.0361
    endloop
  endfacet
  facet normal 0.224217 -0.974539 0
    outer loop
      vertex -11.5836 -22.9618 22.0361
      vertex -12.359 -23.1402 21.7361
      vertex -11.5836 -22.9618 21.7361
    endloop
  endfacet
  facet normal -0.414176 -0.910197 0
    outer loop
      vertex -17.9121 -22.4023 21.7361
      vertex -17.2315 -22.712 22.0361
      vertex -17.9121 -22.4023 22.0361
    endloop
  endfacet
  facet normal -0.414176 -0.910197 -0
    outer loop
      vertex -17.2315 -22.712 22.0361
      vertex -17.9121 -22.4023 21.7361
      vertex -17.2315 -22.712 21.7361
    endloop
  endfacet
  facet normal 0.661149 -0.750255 0
    outer loop
      vertex -8.96999 -21.6348 21.7361
      vertex -8.45049 -21.177 22.0361
      vertex -8.96999 -21.6348 22.0361
    endloop
  endfacet
  facet normal 0.661149 -0.750255 0
    outer loop
      vertex -8.45049 -21.177 22.0361
      vertex -8.96999 -21.6348 21.7361
      vertex -8.45049 -21.177 21.7361
    endloop
  endfacet
  facet normal 0.659927 0.75133 -0
    outer loop
      vertex -8.45049 -10.978 21.7361
      vertex -8.96999 -10.5217 22.0361
      vertex -8.45049 -10.978 22.0361
    endloop
  endfacet
  facet normal 0.659927 0.75133 0
    outer loop
      vertex -8.96999 -10.5217 22.0361
      vertex -8.45049 -10.978 21.7361
      vertex -8.96999 -10.5217 21.7361
    endloop
  endfacet
  facet normal -0.945115 -0.326739 0
    outer loop
      vertex -21.1095 -18.893 21.7361
      vertex -21.3422 -18.2199 22.0361
      vertex -21.3422 -18.2199 21.7361
    endloop
  endfacet
  facet normal -0.945115 -0.326739 0
    outer loop
      vertex -21.3422 -18.2199 22.0361
      vertex -21.1095 -18.893 21.7361
      vertex -21.1095 -18.893 22.0361
    endloop
  endfacet
  facet normal -0.125102 0.992144 0
    outer loop
      vertex -14.9063 -8.94543 21.7361
      vertex -15.7257 -9.04875 22.0361
      vertex -14.9063 -8.94543 22.0361
    endloop
  endfacet
  facet normal -0.125102 0.992144 0
    outer loop
      vertex -15.7257 -9.04875 22.0361
      vertex -14.9063 -8.94543 21.7361
      vertex -15.7257 -9.04875 21.7361
    endloop
  endfacet
  facet normal 0.125072 0.992148 -0
    outer loop
      vertex -12.359 -9.04875 21.7361
      vertex -13.1786 -8.94543 22.0361
      vertex -12.359 -9.04875 22.0361
    endloop
  endfacet
  facet normal 0.125072 0.992148 0
    outer loop
      vertex -13.1786 -8.94543 22.0361
      vertex -12.359 -9.04875 21.7361
      vertex -13.1786 -8.94543 21.7361
    endloop
  endfacet
  facet normal -0.943444 0.331531 0
    outer loop
      vertex -21.3422 -13.9042 21.7361
      vertex -21.1095 -13.242 22.0361
      vertex -21.1095 -13.242 21.7361
    endloop
  endfacet
  facet normal -0.943444 0.331531 0
    outer loop
      vertex -21.1095 -13.242 22.0361
      vertex -21.3422 -13.9042 21.7361
      vertex -21.3422 -13.9042 22.0361
    endloop
  endfacet
  facet normal -0.972936 -0.231076 0
    outer loop
      vertex -21.3422 -18.2199 21.7361
      vertex -21.5085 -17.5197 22.0361
      vertex -21.5085 -17.5197 21.7361
    endloop
  endfacet
  facet normal -0.972936 -0.231076 0
    outer loop
      vertex -21.5085 -17.5197 22.0361
      vertex -21.3422 -18.2199 21.7361
      vertex -21.3422 -18.2199 22.0361
    endloop
  endfacet
  facet normal 0.991011 0.133784 0
    outer loop
      vertex -6.47449 -15.3022 22.0361
      vertex -6.5705 -14.591 21.7361
      vertex -6.5705 -14.591 22.0361
    endloop
  endfacet
  facet normal 0.991011 0.133784 0
    outer loop
      vertex -6.5705 -14.591 21.7361
      vertex -6.47449 -15.3022 22.0361
      vertex -6.47449 -15.3022 21.7361
    endloop
  endfacet
  facet normal 0.974875 -0.222751 0
    outer loop
      vertex -6.73049 -18.2199 22.0361
      vertex -6.5705 -17.5197 21.7361
      vertex -6.5705 -17.5197 22.0361
    endloop
  endfacet
  facet normal 0.974875 -0.222751 0
    outer loop
      vertex -6.5705 -17.5197 21.7361
      vertex -6.73049 -18.2199 22.0361
      vertex -6.73049 -18.2199 21.7361
    endloop
  endfacet
  facet normal 0.86472 -0.502255 0
    outer loop
      vertex -7.58449 -20.1235 22.0361
      vertex -7.24 -19.5304 21.7361
      vertex -7.24 -19.5304 22.0361
    endloop
  endfacet
  facet normal 0.86472 -0.502255 0
    outer loop
      vertex -7.24 -19.5304 21.7361
      vertex -7.58449 -20.1235 22.0361
      vertex -7.58449 -20.1235 21.7361
    endloop
  endfacet
  facet normal 0.323325 -0.946288 0
    outer loop
      vertex -11.5836 -22.9618 21.7361
      vertex -10.8525 -22.712 22.0361
      vertex -11.5836 -22.9618 22.0361
    endloop
  endfacet
  facet normal 0.323325 -0.946288 0
    outer loop
      vertex -10.8525 -22.712 22.0361
      vertex -11.5836 -22.9618 21.7361
      vertex -10.8525 -22.712 21.7361
    endloop
  endfacet
  facet normal 0.736396 0.676551 0
    outer loop
      vertex -7.988 -11.4814 22.0361
      vertex -8.45049 -10.978 21.7361
      vertex -8.45049 -10.978 22.0361
    endloop
  endfacet
  facet normal 0.736396 0.676551 0
    outer loop
      vertex -8.45049 -10.978 21.7361
      vertex -7.988 -11.4814 22.0361
      vertex -7.988 -11.4814 21.7361
    endloop
  endfacet
  facet normal 0.912627 -0.408792 0
    outer loop
      vertex -7.24 -19.5304 22.0361
      vertex -6.95449 -18.893 21.7361
      vertex -6.95449 -18.893 22.0361
    endloop
  endfacet
  facet normal 0.912627 -0.408792 0
    outer loop
      vertex -6.95449 -18.893 21.7361
      vertex -7.24 -19.5304 22.0361
      vertex -7.24 -19.5304 21.7361
    endloop
  endfacet
  facet normal 0.0398341 0.999206 -0
    outer loop
      vertex -13.1786 -8.94543 21.7361
      vertex -14.0425 -8.91099 22.0361
      vertex -13.1786 -8.94543 22.0361
    endloop
  endfacet
  facet normal 0.0398341 0.999206 0
    outer loop
      vertex -14.0425 -8.91099 22.0361
      vertex -13.1786 -8.94543 21.7361
      vertex -14.0425 -8.91099 21.7361
    endloop
  endfacet
  facet normal 0.999056 0.0434355 0
    outer loop
      vertex -6.4425 -16.038 22.0361
      vertex -6.47449 -15.3022 21.7361
      vertex -6.47449 -15.3022 22.0361
    endloop
  endfacet
  facet normal 0.999056 0.0434355 0
    outer loop
      vertex -6.47449 -15.3022 21.7361
      vertex -6.4425 -16.038 22.0361
      vertex -6.4425 -16.038 21.7361
    endloop
  endfacet
  facet normal 0.999102 -0.0423665 0
    outer loop
      vertex -6.47449 -16.7924 22.0361
      vertex -6.4425 -16.038 21.7361
      vertex -6.4425 -16.038 22.0361
    endloop
  endfacet
  facet normal 0.999102 -0.0423665 0
    outer loop
      vertex -6.4425 -16.038 21.7361
      vertex -6.47449 -16.7924 22.0361
      vertex -6.47449 -16.7924 21.7361
    endloop
  endfacet
  facet normal 0.216773 0.976222 -0
    outer loop
      vertex -11.5836 -9.22093 21.7361
      vertex -12.359 -9.04875 22.0361
      vertex -11.5836 -9.22093 22.0361
    endloop
  endfacet
  facet normal 0.216773 0.976222 0
    outer loop
      vertex -12.359 -9.04875 22.0361
      vertex -11.5836 -9.22093 21.7361
      vertex -12.359 -9.04875 21.7361
    endloop
  endfacet
  facet normal -0.216853 0.976204 0
    outer loop
      vertex -15.7257 -9.04875 21.7361
      vertex -16.5008 -9.22093 22.0361
      vertex -15.7257 -9.04875 22.0361
    endloop
  endfacet
  facet normal -0.216853 0.976204 0
    outer loop
      vertex -16.5008 -9.22093 22.0361
      vertex -15.7257 -9.04875 21.7361
      vertex -16.5008 -9.22093 21.7361
    endloop
  endfacet
  facet normal 0.991399 -0.130873 0
    outer loop
      vertex -6.5705 -17.5197 22.0361
      vertex -6.47449 -16.7924 21.7361
      vertex -6.47449 -16.7924 22.0361
    endloop
  endfacet
  facet normal 0.991399 -0.130873 0
    outer loop
      vertex -6.47449 -16.7924 21.7361
      vertex -6.5705 -17.5197 22.0361
      vertex -6.5705 -17.5197 21.7361
    endloop
  endfacet
  facet normal -0.498844 -0.866692 0
    outer loop
      vertex -18.536 -22.0432 21.7361
      vertex -17.9121 -22.4023 22.0361
      vertex -18.536 -22.0432 22.0361
    endloop
  endfacet
  facet normal -0.498844 -0.866692 -0
    outer loop
      vertex -17.9121 -22.4023 22.0361
      vertex -18.536 -22.0432 21.7361
      vertex -17.9121 -22.4023 21.7361
    endloop
  endfacet
  facet normal 0.490563 0.871406 -0
    outer loop
      vertex -9.54349 -10.117 21.7361
      vertex -10.171 -9.76374 22.0361
      vertex -9.54349 -10.117 22.0361
    endloop
  endfacet
  facet normal 0.490563 0.871406 0
    outer loop
      vertex -10.171 -9.76374 22.0361
      vertex -9.54349 -10.117 21.7361
      vertex -10.171 -9.76374 21.7361
    endloop
  endfacet
  facet normal 0.805716 -0.592302 0
    outer loop
      vertex -7.988 -20.6724 22.0361
      vertex -7.58449 -20.1235 21.7361
      vertex -7.58449 -20.1235 22.0361
    endloop
  endfacet
  facet normal 0.805716 -0.592302 0
    outer loop
      vertex -7.58449 -20.1235 21.7361
      vertex -7.988 -20.6724 22.0361
      vertex -7.988 -20.6724 21.7361
    endloop
  endfacet
  facet normal 0 0 -1
    outer loop
      vertex -10.8525 -22.712 21.7361
      vertex -6.4425 -16.038 21.7361
      vertex -6.47449 -16.7924 21.7361
    endloop
  endfacet
  facet normal 0 0 -1
    outer loop
      vertex -10.8525 -22.712 21.7361
      vertex -6.47449 -16.7924 21.7361
      vertex -6.5705 -17.5197 21.7361
    endloop
  endfacet
  facet normal 0 0 -1
    outer loop
      vertex -11.5836 -22.9618 21.7361
      vertex -6.4425 -16.038 21.7361
      vertex -10.8525 -22.712 21.7361
    endloop
  endfacet
  facet normal 0 0 -1
    outer loop
      vertex -10.8525 -22.712 21.7361
      vertex -6.5705 -17.5197 21.7361
      vertex -6.73049 -18.2199 21.7361
    endloop
  endfacet
  facet normal 0 0 -1
    outer loop
      vertex -6.4425 -16.038 21.7361
      vertex -11.5836 -9.22093 21.7361
      vertex -6.47449 -15.3022 21.7361
    endloop
  endfacet
  facet normal 0 0 -1
    outer loop
      vertex -10.171 -22.4023 21.7361
      vertex -6.73049 -18.2199 21.7361
      vertex -6.95449 -18.893 21.7361
    endloop
  endfacet
  facet normal 0 0 -1
    outer loop
      vertex -10.8525 -22.712 21.7361
      vertex -6.73049 -18.2199 21.7361
      vertex -10.171 -22.4023 21.7361
    endloop
  endfacet
  facet normal 0 0 -1
    outer loop
      vertex -9.54349 -22.0432 21.7361
      vertex -6.95449 -18.893 21.7361
      vertex -7.24 -19.5304 21.7361
    endloop
  endfacet
  facet normal 0 0 -1
    outer loop
      vertex -6.47449 -15.3022 21.7361
      vertex -11.5836 -9.22093 21.7361
      vertex -6.5705 -14.591 21.7361
    endloop
  endfacet
  facet normal 0 0 -1
    outer loop
      vertex -9.54349 -22.0432 21.7361
      vertex -7.24 -19.5304 21.7361
      vertex -7.58449 -20.1235 21.7361
    endloop
  endfacet
  facet normal 0 0 -1
    outer loop
      vertex -6.95449 -18.893 21.7361
      vertex -9.54349 -22.0432 21.7361
      vertex -10.171 -22.4023 21.7361
    endloop
  endfacet
  facet normal 0 0 -1
    outer loop
      vertex -8.96999 -21.6348 21.7361
      vertex -7.58449 -20.1235 21.7361
      vertex -7.988 -20.6724 21.7361
    endloop
  endfacet
  facet normal 0 0 -1
    outer loop
      vertex -8.96999 -21.6348 21.7361
      vertex -7.988 -20.6724 21.7361
      vertex -8.45049 -21.177 21.7361
    endloop
  endfacet
  facet normal 0 0 -1
    outer loop
      vertex -9.54349 -22.0432 21.7361
      vertex -7.58449 -20.1235 21.7361
      vertex -8.96999 -21.6348 21.7361
    endloop
  endfacet
  facet normal 0 0 -1
    outer loop
      vertex -7.58449 -12.0265 21.7361
      vertex -8.45049 -10.978 21.7361
      vertex -7.988 -11.4814 21.7361
    endloop
  endfacet
  facet normal 0 0 -1
    outer loop
      vertex -6.73049 -13.9042 21.7361
      vertex -10.171 -9.76374 21.7361
      vertex -6.95449 -13.242 21.7361
    endloop
  endfacet
  facet normal 0 0 -1
    outer loop
      vertex -7.58449 -12.0265 21.7361
      vertex -8.96999 -10.5217 21.7361
      vertex -8.45049 -10.978 21.7361
    endloop
  endfacet
  facet normal 0 0 -1
    outer loop
      vertex -7.24 -12.6134 21.7361
      vertex -9.54349 -10.117 21.7361
      vertex -7.58449 -12.0265 21.7361
    endloop
  endfacet
  facet normal 0 0 -1
    outer loop
      vertex -7.58449 -12.0265 21.7361
      vertex -9.54349 -10.117 21.7361
      vertex -8.96999 -10.5217 21.7361
    endloop
  endfacet
  facet normal 0 0 -1
    outer loop
      vertex -6.95449 -13.242 21.7361
      vertex -10.171 -9.76374 21.7361
      vertex -7.24 -12.6134 21.7361
    endloop
  endfacet
  facet normal 0 0 -1
    outer loop
      vertex -7.24 -12.6134 21.7361
      vertex -10.171 -9.76374 21.7361
      vertex -9.54349 -10.117 21.7361
    endloop
  endfacet
  facet normal -0 -0 -1
    outer loop
      vertex -10.8525 -9.46199 21.7361
      vertex -6.5705 -14.591 21.7361
      vertex -11.5836 -9.22093 21.7361
    endloop
  endfacet
  facet normal 0 0 -1
    outer loop
      vertex -6.73049 -13.9042 21.7361
      vertex -10.8525 -9.46199 21.7361
      vertex -10.171 -9.76374 21.7361
    endloop
  endfacet
  facet normal -0 0 -1
    outer loop
      vertex -6.4425 -16.038 21.7361
      vertex -11.5836 -22.9618 21.7361
      vertex -11.5836 -9.22093 21.7361
    endloop
  endfacet
  facet normal 0 0 -1
    outer loop
      vertex -6.5705 -14.591 21.7361
      vertex -10.8525 -9.46199 21.7361
      vertex -6.73049 -13.9042 21.7361
    endloop
  endfacet
  facet normal 0 0 -1
    outer loop
      vertex -12.359 -23.1402 21.7361
      vertex -11.5836 -9.22093 21.7361
      vertex -11.5836 -22.9618 21.7361
    endloop
  endfacet
  facet normal 0 0 -1
    outer loop
      vertex -12.359 -23.1402 21.7361
      vertex -12.359 -9.04875 21.7361
      vertex -11.5836 -9.22093 21.7361
    endloop
  endfacet
  facet normal 0 0 -1
    outer loop
      vertex -13.1786 -23.2473 21.7361
      vertex -12.359 -9.04875 21.7361
      vertex -12.359 -23.1402 21.7361
    endloop
  endfacet
  facet normal 0 0 -1
    outer loop
      vertex -13.1786 -23.2473 21.7361
      vertex -13.1786 -8.94543 21.7361
      vertex -12.359 -9.04875 21.7361
    endloop
  endfacet
  facet normal 0 0 -1
    outer loop
      vertex -14.0425 -23.283 21.7361
      vertex -13.1786 -8.94543 21.7361
      vertex -13.1786 -23.2473 21.7361
    endloop
  endfacet
  facet normal 0 0 -1
    outer loop
      vertex -14.0425 -23.283 21.7361
      vertex -14.0425 -8.91099 21.7361
      vertex -13.1786 -8.94543 21.7361
    endloop
  endfacet
  facet normal 0 0 -1
    outer loop
      vertex -14.9063 -23.2473 21.7361
      vertex -14.0425 -8.91099 21.7361
      vertex -14.0425 -23.283 21.7361
    endloop
  endfacet
  facet normal 0 0 -1
    outer loop
      vertex -14.9063 -23.2473 21.7361
      vertex -14.9063 -8.94543 21.7361
      vertex -14.0425 -8.91099 21.7361
    endloop
  endfacet
  facet normal 0 0 -1
    outer loop
      vertex -15.7257 -23.1402 21.7361
      vertex -14.9063 -8.94543 21.7361
      vertex -14.9063 -23.2473 21.7361
    endloop
  endfacet
  facet normal 0 0 -1
    outer loop
      vertex -15.7257 -23.1402 21.7361
      vertex -15.7257 -9.04875 21.7361
      vertex -14.9063 -8.94543 21.7361
    endloop
  endfacet
  facet normal 0 0 -1
    outer loop
      vertex -16.5008 -22.9618 21.7361
      vertex -15.7257 -9.04875 21.7361
      vertex -15.7257 -23.1402 21.7361
    endloop
  endfacet
  facet normal 0 0 -1
    outer loop
      vertex -21.6082 -16.7924 21.7361
      vertex -15.7257 -9.04875 21.7361
      vertex -16.5008 -22.9618 21.7361
    endloop
  endfacet
  facet normal 0 0 -1
    outer loop
      vertex -21.6082 -16.7924 21.7361
      vertex -16.5008 -22.9618 21.7361
      vertex -17.2315 -22.712 21.7361
    endloop
  endfacet
  facet normal 0 0 -1
    outer loop
      vertex -21.6415 -16.038 21.7361
      vertex -15.7257 -9.04875 21.7361
      vertex -21.6082 -16.7924 21.7361
    endloop
  endfacet
  facet normal 0 0 -1
    outer loop
      vertex -21.6082 -16.7924 21.7361
      vertex -17.2315 -22.712 21.7361
      vertex -17.9121 -22.4023 21.7361
    endloop
  endfacet
  facet normal 0 0 -1
    outer loop
      vertex -15.7257 -9.04875 21.7361
      vertex -21.6415 -16.038 21.7361
      vertex -16.5008 -9.22093 21.7361
    endloop
  endfacet
  facet normal 0 0 -1
    outer loop
      vertex -21.3422 -18.2199 21.7361
      vertex -17.9121 -22.4023 21.7361
      vertex -18.536 -22.0432 21.7361
    endloop
  endfacet
  facet normal 0 0 -1
    outer loop
      vertex -16.5008 -9.22093 21.7361
      vertex -21.6415 -16.038 21.7361
      vertex -17.2315 -9.46199 21.7361
    endloop
  endfacet
  facet normal 0 0 -1
    outer loop
      vertex -21.1095 -18.893 21.7361
      vertex -18.536 -22.0432 21.7361
      vertex -19.1031 -21.6348 21.7361
    endloop
  endfacet
  facet normal 0 -0 -1
    outer loop
      vertex -21.6082 -15.3022 21.7361
      vertex -17.2315 -9.46199 21.7361
      vertex -21.6415 -16.038 21.7361
    endloop
  endfacet
  facet normal 0 0 -1
    outer loop
      vertex -20.0689 -20.6724 21.7361
      vertex -19.1031 -21.6348 21.7361
      vertex -19.6135 -21.177 21.7361
    endloop
  endfacet
  facet normal 0 0 -1
    outer loop
      vertex -20.47 -20.1235 21.7361
      vertex -19.1031 -21.6348 21.7361
      vertex -20.0689 -20.6724 21.7361
    endloop
  endfacet
  facet normal 0 0 -1
    outer loop
      vertex -20.8169 -19.5304 21.7361
      vertex -19.1031 -21.6348 21.7361
      vertex -20.47 -20.1235 21.7361
    endloop
  endfacet
  facet normal 0 0 -1
    outer loop
      vertex -21.1095 -18.893 21.7361
      vertex -19.1031 -21.6348 21.7361
      vertex -20.8169 -19.5304 21.7361
    endloop
  endfacet
  facet normal 0 0 -1
    outer loop
      vertex -18.536 -22.0432 21.7361
      vertex -21.1095 -18.893 21.7361
      vertex -21.3422 -18.2199 21.7361
    endloop
  endfacet
  facet normal 0 0 -1
    outer loop
      vertex -17.9121 -22.4023 21.7361
      vertex -21.3422 -18.2199 21.7361
      vertex -21.5085 -17.5197 21.7361
    endloop
  endfacet
  facet normal 0 0 -1
    outer loop
      vertex -19.1031 -10.5217 21.7361
      vertex -20.0689 -11.4814 21.7361
      vertex -19.6135 -10.978 21.7361
    endloop
  endfacet
  facet normal 0 0 -1
    outer loop
      vertex -19.1031 -10.5217 21.7361
      vertex -20.47 -12.0265 21.7361
      vertex -20.0689 -11.4814 21.7361
    endloop
  endfacet
  facet normal 0 0 -1
    outer loop
      vertex -19.1031 -10.5217 21.7361
      vertex -20.8169 -12.6134 21.7361
      vertex -20.47 -12.0265 21.7361
    endloop
  endfacet
  facet normal 0 0 -1
    outer loop
      vertex -18.536 -10.117 21.7361
      vertex -20.8169 -12.6134 21.7361
      vertex -19.1031 -10.5217 21.7361
    endloop
  endfacet
  facet normal 0 0 -1
    outer loop
      vertex -17.9121 -22.4023 21.7361
      vertex -21.5085 -17.5197 21.7361
      vertex -21.6082 -16.7924 21.7361
    endloop
  endfacet
  facet normal 0 0 -1
    outer loop
      vertex -17.2315 -9.46199 21.7361
      vertex -21.6082 -15.3022 21.7361
      vertex -17.9121 -9.76374 21.7361
    endloop
  endfacet
  facet normal 0 -0 -1
    outer loop
      vertex -20.8169 -12.6134 21.7361
      vertex -18.536 -10.117 21.7361
      vertex -21.1095 -13.242 21.7361
    endloop
  endfacet
  facet normal 0 0 -1
    outer loop
      vertex -17.9121 -9.76374 21.7361
      vertex -21.1095 -13.242 21.7361
      vertex -18.536 -10.117 21.7361
    endloop
  endfacet
  facet normal 0 -0 -1
    outer loop
      vertex -21.5085 -14.591 21.7361
      vertex -17.9121 -9.76374 21.7361
      vertex -21.6082 -15.3022 21.7361
    endloop
  endfacet
  facet normal 0 -0 -1
    outer loop
      vertex -21.1095 -13.242 21.7361
      vertex -17.9121 -9.76374 21.7361
      vertex -21.3422 -13.9042 21.7361
    endloop
  endfacet
  facet normal 0 -0 -1
    outer loop
      vertex -21.3422 -13.9042 21.7361
      vertex -17.9121 -9.76374 21.7361
      vertex -21.5085 -14.591 21.7361
    endloop
  endfacet
  facet normal -0.323483 -0.946234 0
    outer loop
      vertex -17.2315 -22.712 21.7361
      vertex -16.5008 -22.9618 22.0361
      vertex -17.2315 -22.712 22.0361
    endloop
  endfacet
  facet normal -0.323483 -0.946234 -0
    outer loop
      vertex -16.5008 -22.9618 22.0361
      vertex -17.2315 -22.712 21.7361
      vertex -16.5008 -22.9618 21.7361
    endloop
  endfacet
  facet normal -0.860865 0.508833 0
    outer loop
      vertex -20.8169 -12.6134 21.7361
      vertex -20.47 -12.0265 22.0361
      vertex -20.47 -12.0265 21.7361
    endloop
  endfacet
  facet normal -0.860865 0.508833 0
    outer loop
      vertex -20.47 -12.0265 22.0361
      vertex -20.8169 -12.6134 21.7361
      vertex -20.8169 -12.6134 22.0361
    endloop
  endfacet
  facet normal -0.224299 -0.97452 0
    outer loop
      vertex -16.5008 -22.9618 21.7361
      vertex -15.7257 -23.1402 22.0361
      vertex -16.5008 -22.9618 22.0361
    endloop
  endfacet
  facet normal -0.224299 -0.97452 -0
    outer loop
      vertex -15.7257 -23.1402 22.0361
      vertex -16.5008 -22.9618 21.7361
      vertex -15.7257 -23.1402 21.7361
    endloop
  endfacet
  facet normal -0.906595 0.422001 0
    outer loop
      vertex -21.1095 -13.242 21.7361
      vertex -20.8169 -12.6134 22.0361
      vertex -20.8169 -12.6134 21.7361
    endloop
  endfacet
  facet normal -0.906595 0.422001 0
    outer loop
      vertex -20.8169 -12.6134 22.0361
      vertex -21.1095 -13.242 21.7361
      vertex -21.1095 -13.242 22.0361
    endloop
  endfacet
  facet normal 0.737198 -0.675677 0
    outer loop
      vertex -8.45049 -21.177 22.0361
      vertex -7.988 -20.6724 21.7361
      vertex -7.988 -20.6724 22.0361
    endloop
  endfacet
  facet normal 0.737198 -0.675677 0
    outer loop
      vertex -7.988 -20.6724 21.7361
      vertex -8.45049 -21.177 22.0361
      vertex -8.45049 -21.177 21.7361
    endloop
  endfacet
  facet normal -0.805446 0.59267 0
    outer loop
      vertex -20.47 -12.0265 21.7361
      vertex -20.0689 -11.4814 22.0361
      vertex -20.0689 -11.4814 21.7361
    endloop
  endfacet
  facet normal -0.805446 0.59267 0
    outer loop
      vertex -20.0689 -11.4814 22.0361
      vertex -20.47 -12.0265 21.7361
      vertex -20.47 -12.0265 22.0361
    endloop
  endfacet
  facet normal -0.667707 -0.744424 0
    outer loop
      vertex -19.6135 -21.177 21.7361
      vertex -19.1031 -21.6348 22.0361
      vertex -19.6135 -21.177 22.0361
    endloop
  endfacet
  facet normal -0.667707 -0.744424 -0
    outer loop
      vertex -19.1031 -21.6348 22.0361
      vertex -19.6135 -21.177 21.7361
      vertex -19.1031 -21.6348 21.7361
    endloop
  endfacet
  facet normal 0.31314 0.949707 -0
    outer loop
      vertex -10.8525 -9.46199 21.7361
      vertex -11.5836 -9.22093 22.0361
      vertex -10.8525 -9.46199 22.0361
    endloop
  endfacet
  facet normal 0.31314 0.949707 0
    outer loop
      vertex -11.5836 -9.22093 22.0361
      vertex -10.8525 -9.46199 21.7361
      vertex -11.5836 -9.22093 21.7361
    endloop
  endfacet
  facet normal 0.948838 -0.315763 0
    outer loop
      vertex -6.95449 -18.893 22.0361
      vertex -6.73049 -18.2199 21.7361
      vertex -6.73049 -18.2199 22.0361
    endloop
  endfacet
  facet normal 0.948838 -0.315763 0
    outer loop
      vertex -6.73049 -18.2199 21.7361
      vertex -6.95449 -18.893 22.0361
      vertex -6.95449 -18.893 21.7361
    endloop
  endfacet
  facet normal 0.041289 -0.999147 0
    outer loop
      vertex -14.0425 -23.283 21.7361
      vertex -13.1786 -23.2473 22.0361
      vertex -14.0425 -23.283 22.0361
    endloop
  endfacet
  facet normal 0.041289 -0.999147 0
    outer loop
      vertex -13.1786 -23.2473 22.0361
      vertex -14.0425 -23.283 21.7361
      vertex -13.1786 -23.2473 21.7361
    endloop
  endfacet
  facet normal -0.666492 0.745512 0
    outer loop
      vertex -19.1031 -10.5217 21.7361
      vertex -19.6135 -10.978 22.0361
      vertex -19.1031 -10.5217 22.0361
    endloop
  endfacet
  facet normal -0.666492 0.745512 0
    outer loop
      vertex -19.6135 -10.978 22.0361
      vertex -19.1031 -10.5217 21.7361
      vertex -19.6135 -10.978 21.7361
    endloop
  endfacet
  facet normal 0.404862 0.914378 -0
    outer loop
      vertex -10.171 -9.76374 21.7361
      vertex -10.8525 -9.46199 22.0361
      vertex -10.171 -9.76374 22.0361
    endloop
  endfacet
  facet normal 0.404862 0.914378 0
    outer loop
      vertex -10.8525 -9.46199 22.0361
      vertex -10.171 -9.76374 21.7361
      vertex -10.8525 -9.46199 21.7361
    endloop
  endfacet
  facet normal -0.313294 0.949656 0
    outer loop
      vertex -16.5008 -9.22093 21.7361
      vertex -17.2315 -9.46199 22.0361
      vertex -16.5008 -9.22093 22.0361
    endloop
  endfacet
  facet normal -0.313294 0.949656 0
    outer loop
      vertex -17.2315 -9.46199 22.0361
      vertex -16.5008 -9.22093 21.7361
      vertex -17.2315 -9.46199 21.7361
    endloop
  endfacet
  facet normal -0.908817 -0.417195 0
    outer loop
      vertex -20.8169 -19.5304 21.7361
      vertex -21.1095 -18.893 22.0361
      vertex -21.1095 -18.893 21.7361
    endloop
  endfacet
  facet normal -0.908817 -0.417195 0
    outer loop
      vertex -21.1095 -18.893 22.0361
      vertex -20.8169 -19.5304 21.7361
      vertex -20.8169 -19.5304 22.0361
    endloop
  endfacet
  facet normal 0.862412 0.506206 0
    outer loop
      vertex -7.24 -12.6134 22.0361
      vertex -7.58449 -12.0265 21.7361
      vertex -7.58449 -12.0265 22.0361
    endloop
  endfacet
  facet normal 0.862412 0.506206 0
    outer loop
      vertex -7.58449 -12.0265 21.7361
      vertex -7.24 -12.6134 22.0361
      vertex -7.24 -12.6134 21.7361
    endloop
  endfacet
  facet normal 0.803746 0.594973 0
    outer loop
      vertex -7.58449 -12.0265 22.0361
      vertex -7.988 -11.4814 21.7361
      vertex -7.988 -11.4814 22.0361
    endloop
  endfacet
  facet normal 0.803746 0.594973 0
    outer loop
      vertex -7.988 -11.4814 21.7361
      vertex -7.58449 -12.0265 22.0361
      vertex -7.58449 -12.0265 21.7361
    endloop
  endfacet
  facet normal -0.0398387 0.999206 0
    outer loop
      vertex -14.0425 -8.91099 21.7361
      vertex -14.9063 -8.94543 22.0361
      vertex -14.0425 -8.91099 22.0361
    endloop
  endfacet
  facet normal -0.0398387 0.999206 0
    outer loop
      vertex -14.9063 -8.94543 22.0361
      vertex -14.0425 -8.91099 21.7361
      vertex -14.9063 -8.94543 21.7361
    endloop
  endfacet
  facet normal -0.40531 0.91418 0
    outer loop
      vertex -17.2315 -9.46199 21.7361
      vertex -17.9121 -9.76374 22.0361
      vertex -17.2315 -9.46199 22.0361
    endloop
  endfacet
  facet normal -0.40531 0.91418 0
    outer loop
      vertex -17.9121 -9.76374 22.0361
      vertex -17.2315 -9.46199 21.7361
      vertex -17.9121 -9.76374 21.7361
    endloop
  endfacet
  facet normal -0.990316 0.138828 0
    outer loop
      vertex -21.6082 -15.3022 21.7361
      vertex -21.5085 -14.591 22.0361
      vertex -21.5085 -14.591 21.7361
    endloop
  endfacet
  facet normal -0.990316 0.138828 0
    outer loop
      vertex -21.5085 -14.591 22.0361
      vertex -21.6082 -15.3022 21.7361
      vertex -21.6082 -15.3022 22.0361
    endloop
  endfacet
  facet normal 0.973924 0.226875 0
    outer loop
      vertex -6.5705 -14.591 22.0361
      vertex -6.73049 -13.9042 21.7361
      vertex -6.73049 -13.9042 22.0361
    endloop
  endfacet
  facet normal 0.973924 0.226875 0
    outer loop
      vertex -6.73049 -13.9042 21.7361
      vertex -6.5705 -14.591 22.0361
      vertex -6.5705 -14.591 21.7361
    endloop
  endfacet
  facet normal -0.492713 0.870192 0
    outer loop
      vertex -17.9121 -9.76374 21.7361
      vertex -18.536 -10.117 22.0361
      vertex -17.9121 -9.76374 22.0361
    endloop
  endfacet
  facet normal -0.492713 0.870192 0
    outer loop
      vertex -18.536 -10.117 22.0361
      vertex -17.9121 -9.76374 21.7361
      vertex -18.536 -10.117 21.7361
    endloop
  endfacet
  facet normal 0.129572 -0.99157 0
    outer loop
      vertex -13.1786 -23.2473 21.7361
      vertex -12.359 -23.1402 22.0361
      vertex -13.1786 -23.2473 22.0361
    endloop
  endfacet
  facet normal 0.129572 -0.99157 0
    outer loop
      vertex -12.359 -23.1402 22.0361
      vertex -13.1786 -23.2473 21.7361
      vertex -12.359 -23.1402 21.7361
    endloop
  endfacet
  facet normal 0.496684 -0.867931 0
    outer loop
      vertex -10.171 -22.4023 21.7361
      vertex -9.54349 -22.0432 22.0361
      vertex -10.171 -22.4023 22.0361
    endloop
  endfacet
  facet normal 0.496684 -0.867931 0
    outer loop
      vertex -9.54349 -22.0432 22.0361
      vertex -10.171 -22.4023 21.7361
      vertex -9.54349 -22.0432 21.7361
    endloop
  endfacet
  facet normal 0.413722 -0.910403 0
    outer loop
      vertex -10.8525 -22.712 21.7361
      vertex -10.171 -22.4023 22.0361
      vertex -10.8525 -22.712 22.0361
    endloop
  endfacet
  facet normal 0.413722 -0.910403 0
    outer loop
      vertex -10.171 -22.4023 22.0361
      vertex -10.8525 -22.712 21.7361
      vertex -10.171 -22.4023 21.7361
    endloop
  endfacet
  facet normal 0.576566 0.817051 -0
    outer loop
      vertex -8.96999 -10.5217 21.7361
      vertex -9.54349 -10.117 22.0361
      vertex -8.96999 -10.5217 22.0361
    endloop
  endfacet
  facet normal 0.576566 0.817051 0
    outer loop
      vertex -9.54349 -10.117 22.0361
      vertex -8.96999 -10.5217 21.7361
      vertex -9.54349 -10.117 21.7361
    endloop
  endfacet
  facet normal 0.580069 -0.814568 0
    outer loop
      vertex -9.54349 -22.0432 21.7361
      vertex -8.96999 -21.6348 22.0361
      vertex -9.54349 -22.0432 22.0361
    endloop
  endfacet
  facet normal 0.580069 -0.814568 0
    outer loop
      vertex -8.96999 -21.6348 22.0361
      vertex -9.54349 -22.0432 21.7361
      vertex -8.96999 -21.6348 21.7361
    endloop
  endfacet
  facet normal -0.0412938 -0.999147 0
    outer loop
      vertex -14.9063 -23.2473 21.7361
      vertex -14.0425 -23.283 22.0361
      vertex -14.9063 -23.2473 22.0361
    endloop
  endfacet
  facet normal -0.0412938 -0.999147 -0
    outer loop
      vertex -14.0425 -23.283 22.0361
      vertex -14.9063 -23.2473 21.7361
      vertex -14.0425 -23.283 21.7361
    endloop
  endfacet
  facet normal -0.741578 0.670867 0
    outer loop
      vertex -20.0689 -11.4814 21.7361
      vertex -19.6135 -10.978 22.0361
      vertex -19.6135 -10.978 21.7361
    endloop
  endfacet
  facet normal -0.741578 0.670867 0
    outer loop
      vertex -19.6135 -10.978 22.0361
      vertex -20.0689 -11.4814 21.7361
      vertex -20.0689 -11.4814 22.0361
    endloop
  endfacet
  facet normal -0.999027 -0.0440981 0
    outer loop
      vertex -21.6082 -16.7924 21.7361
      vertex -21.6415 -16.038 22.0361
      vertex -21.6415 -16.038 21.7361
    endloop
  endfacet
  facet normal -0.999027 -0.0440981 0
    outer loop
      vertex -21.6415 -16.038 22.0361
      vertex -21.6082 -16.7924 21.7361
      vertex -21.6082 -16.7924 22.0361
    endloop
  endfacet
  facet normal -0.990735 -0.135812 0
    outer loop
      vertex -21.5085 -17.5197 21.7361
      vertex -21.6082 -16.7924 22.0361
      vertex -21.6082 -16.7924 21.7361
    endloop
  endfacet
  facet normal -0.990735 -0.135812 0
    outer loop
      vertex -21.6082 -16.7924 22.0361
      vertex -21.5085 -17.5197 21.7361
      vertex -21.5085 -17.5197 22.0361
    endloop
  endfacet
  facet normal -0.584388 -0.811475 0
    outer loop
      vertex -19.1031 -21.6348 21.7361
      vertex -18.536 -22.0432 22.0361
      vertex -19.1031 -21.6348 22.0361
    endloop
  endfacet
  facet normal -0.584388 -0.811475 -0
    outer loop
      vertex -18.536 -22.0432 22.0361
      vertex -19.1031 -21.6348 21.7361
      vertex -18.536 -22.0432 21.7361
    endloop
  endfacet
  facet normal -0.742372 -0.669988 0
    outer loop
      vertex -19.6135 -21.177 21.7361
      vertex -20.0689 -20.6724 22.0361
      vertex -20.0689 -20.6724 21.7361
    endloop
  endfacet
  facet normal -0.742372 -0.669988 0
    outer loop
      vertex -20.0689 -20.6724 22.0361
      vertex -19.6135 -21.177 21.7361
      vertex -19.6135 -21.177 22.0361
    endloop
  endfacet
  facet normal -0.998977 0.0452106 0
    outer loop
      vertex -21.6415 -16.038 21.7361
      vertex -21.6082 -15.3022 22.0361
      vertex -21.6082 -15.3022 21.7361
    endloop
  endfacet
  facet normal -0.998977 0.0452106 0
    outer loop
      vertex -21.6082 -15.3022 22.0361
      vertex -21.6415 -16.038 21.7361
      vertex -21.6415 -16.038 22.0361
    endloop
  endfacet
  facet normal -0.971914 0.235337 0
    outer loop
      vertex -21.5085 -14.591 21.7361
      vertex -21.3422 -13.9042 22.0361
      vertex -21.3422 -13.9042 21.7361
    endloop
  endfacet
  facet normal -0.971914 0.235337 0
    outer loop
      vertex -21.3422 -13.9042 22.0361
      vertex -21.5085 -14.591 21.7361
      vertex -21.5085 -14.591 22.0361
    endloop
  endfacet
  facet normal 0 0 1
    outer loop
      vertex -11.5836 -9.22093 22.0361
      vertex -6.4425 -16.038 22.0361
      vertex -6.47449 -15.3022 22.0361
    endloop
  endfacet
  facet normal 0 0 1
    outer loop
      vertex -11.5836 -9.22093 22.0361
      vertex -6.47449 -15.3022 22.0361
      vertex -6.5705 -14.591 22.0361
    endloop
  endfacet
  facet normal 0 0 1
    outer loop
      vertex -12.359 -9.04875 22.0361
      vertex -6.4425 -16.038 22.0361
      vertex -11.5836 -9.22093 22.0361
    endloop
  endfacet
  facet normal 0 0 1
    outer loop
      vertex -10.8525 -9.46199 22.0361
      vertex -6.5705 -14.591 22.0361
      vertex -6.73049 -13.9042 22.0361
    endloop
  endfacet
  facet normal 0 0 1
    outer loop
      vertex -11.5836 -9.22093 22.0361
      vertex -6.5705 -14.591 22.0361
      vertex -10.8525 -9.46199 22.0361
    endloop
  endfacet
  facet normal 0 0 1
    outer loop
      vertex -10.171 -9.76374 22.0361
      vertex -6.73049 -13.9042 22.0361
      vertex -6.95449 -13.242 22.0361
    endloop
  endfacet
  facet normal 0 0 1
    outer loop
      vertex -6.4425 -16.038 22.0361
      vertex -12.359 -9.04875 22.0361
      vertex -6.47449 -16.7924 22.0361
    endloop
  endfacet
  facet normal 0 0 1
    outer loop
      vertex -10.171 -9.76374 22.0361
      vertex -6.95449 -13.242 22.0361
      vertex -7.24 -12.6134 22.0361
    endloop
  endfacet
  facet normal 0 0 1
    outer loop
      vertex -6.73049 -13.9042 22.0361
      vertex -10.171 -9.76374 22.0361
      vertex -10.8525 -9.46199 22.0361
    endloop
  endfacet
  facet normal 0 0 1
    outer loop
      vertex -10.171 -9.76374 22.0361
      vertex -7.24 -12.6134 22.0361
      vertex -7.58449 -12.0265 22.0361
    endloop
  endfacet
  facet normal 0 0 1
    outer loop
      vertex -6.47449 -16.7924 22.0361
      vertex -10.8525 -22.712 22.0361
      vertex -6.5705 -17.5197 22.0361
    endloop
  endfacet
  facet normal 0 0 1
    outer loop
      vertex -9.54349 -10.117 22.0361
      vertex -7.58449 -12.0265 22.0361
      vertex -7.988 -11.4814 22.0361
    endloop
  endfacet
  facet normal 0 0 1
    outer loop
      vertex -10.171 -9.76374 22.0361
      vertex -7.58449 -12.0265 22.0361
      vertex -9.54349 -10.117 22.0361
    endloop
  endfacet
  facet normal 0 0 1
    outer loop
      vertex -8.96999 -10.5217 22.0361
      vertex -7.988 -11.4814 22.0361
      vertex -8.45049 -10.978 22.0361
    endloop
  endfacet
  facet normal 0 0 1
    outer loop
      vertex -9.54349 -10.117 22.0361
      vertex -7.988 -11.4814 22.0361
      vertex -8.96999 -10.5217 22.0361
    endloop
  endfacet
  facet normal 0 0 1
    outer loop
      vertex -6.5705 -17.5197 22.0361
      vertex -10.8525 -22.712 22.0361
      vertex -6.73049 -18.2199 22.0361
    endloop
  endfacet
  facet normal 0 0 1
    outer loop
      vertex -7.988 -20.6724 22.0361
      vertex -8.96999 -21.6348 22.0361
      vertex -8.45049 -21.177 22.0361
    endloop
  endfacet
  facet normal 0 0 1
    outer loop
      vertex -6.95449 -18.893 22.0361
      vertex -9.54349 -22.0432 22.0361
      vertex -7.24 -19.5304 22.0361
    endloop
  endfacet
  facet normal 0 0 1
    outer loop
      vertex -7.988 -20.6724 22.0361
      vertex -9.54349 -22.0432 22.0361
      vertex -8.96999 -21.6348 22.0361
    endloop
  endfacet
  facet normal 0 0 1
    outer loop
      vertex -7.58449 -20.1235 22.0361
      vertex -9.54349 -22.0432 22.0361
      vertex -7.988 -20.6724 22.0361
    endloop
  endfacet
  facet normal 0 0 1
    outer loop
      vertex -7.24 -19.5304 22.0361
      vertex -9.54349 -22.0432 22.0361
      vertex -7.58449 -20.1235 22.0361
    endloop
  endfacet
  facet normal 0 -0 1
    outer loop
      vertex -9.54349 -22.0432 22.0361
      vertex -6.95449 -18.893 22.0361
      vertex -10.171 -22.4023 22.0361
    endloop
  endfacet
  facet normal 0 0 1
    outer loop
      vertex -6.73049 -18.2199 22.0361
      vertex -10.171 -22.4023 22.0361
      vertex -6.95449 -18.893 22.0361
    endloop
  endfacet
  facet normal 0 -0 1
    outer loop
      vertex -10.171 -22.4023 22.0361
      vertex -6.73049 -18.2199 22.0361
      vertex -10.8525 -22.712 22.0361
    endloop
  endfacet
  facet normal 0 0 1
    outer loop
      vertex -6.47449 -16.7924 22.0361
      vertex -11.5836 -22.9618 22.0361
      vertex -10.8525 -22.712 22.0361
    endloop
  endfacet
  facet normal 0 0 1
    outer loop
      vertex -6.47449 -16.7924 22.0361
      vertex -12.359 -9.04875 22.0361
      vertex -11.5836 -22.9618 22.0361
    endloop
  endfacet
  facet normal 0 0 1
    outer loop
      vertex -12.359 -9.04875 22.0361
      vertex -12.359 -23.1402 22.0361
      vertex -11.5836 -22.9618 22.0361
    endloop
  endfacet
  facet normal 0 0 1
    outer loop
      vertex -13.1786 -8.94543 22.0361
      vertex -12.359 -23.1402 22.0361
      vertex -12.359 -9.04875 22.0361
    endloop
  endfacet
  facet normal 0 0 1
    outer loop
      vertex -13.1786 -8.94543 22.0361
      vertex -13.1786 -23.2473 22.0361
      vertex -12.359 -23.1402 22.0361
    endloop
  endfacet
  facet normal 0 0 1
    outer loop
      vertex -14.0425 -8.91099 22.0361
      vertex -13.1786 -23.2473 22.0361
      vertex -13.1786 -8.94543 22.0361
    endloop
  endfacet
  facet normal 0 0 1
    outer loop
      vertex -14.0425 -8.91099 22.0361
      vertex -14.0425 -23.283 22.0361
      vertex -13.1786 -23.2473 22.0361
    endloop
  endfacet
  facet normal -0 0 1
    outer loop
      vertex -14.9063 -8.94543 22.0361
      vertex -14.0425 -23.283 22.0361
      vertex -14.0425 -8.91099 22.0361
    endloop
  endfacet
  facet normal 0 0 1
    outer loop
      vertex -14.9063 -8.94543 22.0361
      vertex -14.9063 -23.2473 22.0361
      vertex -14.0425 -23.283 22.0361
    endloop
  endfacet
  facet normal -0 0 1
    outer loop
      vertex -15.7257 -9.04875 22.0361
      vertex -14.9063 -23.2473 22.0361
      vertex -14.9063 -8.94543 22.0361
    endloop
  endfacet
  facet normal 0 0 1
    outer loop
      vertex -15.7257 -9.04875 22.0361
      vertex -15.7257 -23.1402 22.0361
      vertex -14.9063 -23.2473 22.0361
    endloop
  endfacet
  facet normal -0 0 1
    outer loop
      vertex -16.5008 -9.22093 22.0361
      vertex -15.7257 -23.1402 22.0361
      vertex -15.7257 -9.04875 22.0361
    endloop
  endfacet
  facet normal 0 0 1
    outer loop
      vertex -16.5008 -9.22093 22.0361
      vertex -16.5008 -22.9618 22.0361
      vertex -15.7257 -23.1402 22.0361
    endloop
  endfacet
  facet normal 0 0 1
    outer loop
      vertex -17.2315 -22.712 22.0361
      vertex -16.5008 -9.22093 22.0361
      vertex -17.2315 -9.46199 22.0361
    endloop
  endfacet
  facet normal 0 0 1
    outer loop
      vertex -16.5008 -9.22093 22.0361
      vertex -17.2315 -22.712 22.0361
      vertex -16.5008 -22.9618 22.0361
    endloop
  endfacet
  facet normal -0 0 1
    outer loop
      vertex -17.9121 -9.76374 22.0361
      vertex -17.2315 -22.712 22.0361
      vertex -17.2315 -9.46199 22.0361
    endloop
  endfacet
  facet normal 0 0 1
    outer loop
      vertex -17.9121 -9.76374 22.0361
      vertex -17.9121 -22.4023 22.0361
      vertex -17.2315 -22.712 22.0361
    endloop
  endfacet
  facet normal -0 0 1
    outer loop
      vertex -18.536 -10.117 22.0361
      vertex -17.9121 -22.4023 22.0361
      vertex -17.9121 -9.76374 22.0361
    endloop
  endfacet
  facet normal 0 0 1
    outer loop
      vertex -18.536 -10.117 22.0361
      vertex -18.536 -22.0432 22.0361
      vertex -17.9121 -22.4023 22.0361
    endloop
  endfacet
  facet normal -0 0 1
    outer loop
      vertex -19.1031 -10.5217 22.0361
      vertex -18.536 -22.0432 22.0361
      vertex -18.536 -10.117 22.0361
    endloop
  endfacet
  facet normal 0 0 1
    outer loop
      vertex -19.1031 -10.5217 22.0361
      vertex -19.1031 -21.6348 22.0361
      vertex -18.536 -22.0432 22.0361
    endloop
  endfacet
  facet normal -0 0 1
    outer loop
      vertex -19.6135 -10.978 22.0361
      vertex -19.1031 -21.6348 22.0361
      vertex -19.1031 -10.5217 22.0361
    endloop
  endfacet
  facet normal 0 0 1
    outer loop
      vertex -19.6135 -10.978 22.0361
      vertex -19.6135 -21.177 22.0361
      vertex -19.1031 -21.6348 22.0361
    endloop
  endfacet
  facet normal -0 0 1
    outer loop
      vertex -20.0689 -11.4814 22.0361
      vertex -19.6135 -21.177 22.0361
      vertex -19.6135 -10.978 22.0361
    endloop
  endfacet
  facet normal 0 0 1
    outer loop
      vertex -20.0689 -11.4814 22.0361
      vertex -20.0689 -20.6724 22.0361
      vertex -19.6135 -21.177 22.0361
    endloop
  endfacet
  facet normal -0 0 1
    outer loop
      vertex -20.47 -12.0265 22.0361
      vertex -20.0689 -20.6724 22.0361
      vertex -20.0689 -11.4814 22.0361
    endloop
  endfacet
  facet normal 0 0 1
    outer loop
      vertex -20.47 -12.0265 22.0361
      vertex -20.47 -20.1235 22.0361
      vertex -20.0689 -20.6724 22.0361
    endloop
  endfacet
  facet normal -0 0 1
    outer loop
      vertex -20.8169 -12.6134 22.0361
      vertex -20.47 -20.1235 22.0361
      vertex -20.47 -12.0265 22.0361
    endloop
  endfacet
  facet normal 0 0 1
    outer loop
      vertex -20.8169 -12.6134 22.0361
      vertex -20.8169 -19.5304 22.0361
      vertex -20.47 -20.1235 22.0361
    endloop
  endfacet
  facet normal -0 0 1
    outer loop
      vertex -21.1095 -13.242 22.0361
      vertex -20.8169 -19.5304 22.0361
      vertex -20.8169 -12.6134 22.0361
    endloop
  endfacet
  facet normal 0 0 1
    outer loop
      vertex -21.1095 -13.242 22.0361
      vertex -21.1095 -18.893 22.0361
      vertex -20.8169 -19.5304 22.0361
    endloop
  endfacet
  facet normal -0 0 1
    outer loop
      vertex -21.3422 -13.9042 22.0361
      vertex -21.1095 -18.893 22.0361
      vertex -21.1095 -13.242 22.0361
    endloop
  endfacet
  facet normal 0 0 1
    outer loop
      vertex -21.3422 -13.9042 22.0361
      vertex -21.3422 -18.2199 22.0361
      vertex -21.1095 -18.893 22.0361
    endloop
  endfacet
  facet normal -0 0 1
    outer loop
      vertex -21.5085 -14.591 22.0361
      vertex -21.3422 -18.2199 22.0361
      vertex -21.3422 -13.9042 22.0361
    endloop
  endfacet
  facet normal 0 0 1
    outer loop
      vertex -21.5085 -14.591 22.0361
      vertex -21.5085 -17.5197 22.0361
      vertex -21.3422 -18.2199 22.0361
    endloop
  endfacet
  facet normal -0 0 1
    outer loop
      vertex -21.6082 -15.3022 22.0361
      vertex -21.5085 -17.5197 22.0361
      vertex -21.5085 -14.591 22.0361
    endloop
  endfacet
  facet normal 0 0 1
    outer loop
      vertex -21.6082 -15.3022 22.0361
      vertex -21.6082 -16.7924 22.0361
      vertex -21.5085 -17.5197 22.0361
    endloop
  endfacet
  facet normal 0 -0 1
    outer loop
      vertex -21.6082 -16.7924 22.0361
      vertex -21.6082 -15.3022 22.0361
      vertex -21.6415 -16.038 22.0361
    endloop
  endfacet
  facet normal -0.863192 -0.504875 0
    outer loop
      vertex -20.47 -20.1235 21.7361
      vertex -20.8169 -19.5304 22.0361
      vertex -20.8169 -19.5304 21.7361
    endloop
  endfacet
  facet normal -0.863192 -0.504875 0
    outer loop
      vertex -20.8169 -19.5304 22.0361
      vertex -20.47 -20.1235 21.7361
      vertex -20.47 -20.1235 22.0361
    endloop
  endfacet
  facet normal -0.807405 -0.589998 0
    outer loop
      vertex -20.0689 -20.6724 21.7361
      vertex -20.47 -20.1235 22.0361
      vertex -20.47 -20.1235 21.7361
    endloop
  endfacet
  facet normal -0.807405 -0.589998 0
    outer loop
      vertex -20.47 -20.1235 22.0361
      vertex -20.0689 -20.6724 21.7361
      vertex -20.0689 -20.6724 22.0361
    endloop
  endfacet
  facet normal -0.129603 -0.991566 0
    outer loop
      vertex -15.7257 -23.1402 21.7361
      vertex -14.9063 -23.2473 22.0361
      vertex -15.7257 -23.1402 22.0361
    endloop
  endfacet
  facet normal -0.129603 -0.991566 -0
    outer loop
      vertex -14.9063 -23.2473 22.0361
      vertex -15.7257 -23.1402 21.7361
      vertex -14.9063 -23.2473 21.7361
    endloop
  endfacet
  facet normal 0.947272 0.32043 0
    outer loop
      vertex -6.73049 -13.9042 22.0361
      vertex -6.95449 -13.242 21.7361
      vertex -6.95449 -13.242 22.0361
    endloop
  endfacet
  facet normal 0.947272 0.32043 0
    outer loop
      vertex -6.95449 -13.242 21.7361
      vertex -6.73049 -13.9042 22.0361
      vertex -6.73049 -13.9042 21.7361
    endloop
  endfacet
  facet normal 0.910485 0.413542 0
    outer loop
      vertex -6.95449 -13.242 22.0361
      vertex -7.24 -12.6134 21.7361
      vertex -7.24 -12.6134 22.0361
    endloop
  endfacet
  facet normal 0.910485 0.413542 0
    outer loop
      vertex -7.24 -12.6134 21.7361
      vertex -6.95449 -13.242 22.0361
      vertex -6.95449 -13.242 21.7361
    endloop
  endfacet
  facet normal 0.659845 0.751402 -0
    outer loop
      vertex -8.45049 23.532 21.7363
      vertex -8.96999 23.9882 22.0363
      vertex -8.45049 23.532 22.0363
    endloop
  endfacet
  facet normal 0.659845 0.751402 0
    outer loop
      vertex -8.96999 23.9882 22.0363
      vertex -8.45049 23.532 21.7363
      vertex -8.96999 23.9882 21.7363
    endloop
  endfacet
  facet normal -0.58079 0.814053 0
    outer loop
      vertex -18.536 24.3928 21.7363
      vertex -19.1031 23.9882 22.0363
      vertex -18.536 24.3928 22.0363
    endloop
  endfacet
  facet normal -0.58079 0.814053 0
    outer loop
      vertex -19.1031 23.9882 22.0363
      vertex -18.536 24.3928 21.7363
      vertex -19.1031 23.9882 21.7363
    endloop
  endfacet
  facet normal 0.736329 0.676624 0
    outer loop
      vertex -7.988 23.0287 22.0363
      vertex -8.45049 23.532 21.7363
      vertex -8.45049 23.532 22.0363
    endloop
  endfacet
  facet normal 0.736329 0.676624 0
    outer loop
      vertex -8.45049 23.532 21.7363
      vertex -7.988 23.0287 22.0363
      vertex -7.988 23.0287 21.7363
    endloop
  endfacet
  facet normal 0.0399034 0.999204 -0
    outer loop
      vertex -13.1786 25.5645 21.7363
      vertex -14.0425 25.599 22.0363
      vertex -13.1786 25.5645 22.0363
    endloop
  endfacet
  facet normal 0.0399034 0.999204 0
    outer loop
      vertex -14.0425 25.599 22.0363
      vertex -13.1786 25.5645 21.7363
      vertex -14.0425 25.599 21.7363
    endloop
  endfacet
  facet normal -0.414176 -0.910197 0
    outer loop
      vertex -17.9121 12.1077 21.7363
      vertex -17.2315 11.798 22.0363
      vertex -17.9121 12.1077 22.0363
    endloop
  endfacet
  facet normal -0.414176 -0.910197 -0
    outer loop
      vertex -17.2315 11.798 22.0363
      vertex -17.9121 12.1077 21.7363
      vertex -17.2315 11.798 21.7363
    endloop
  endfacet
  facet normal 0.661149 -0.750255 0
    outer loop
      vertex -8.96999 12.8752 21.7363
      vertex -8.45049 13.333 22.0363
      vertex -8.96999 12.8752 22.0363
    endloop
  endfacet
  facet normal 0.661149 -0.750255 0
    outer loop
      vertex -8.45049 13.333 22.0363
      vertex -8.96999 12.8752 21.7363
      vertex -8.45049 13.333 21.7363
    endloop
  endfacet
  facet normal -0.945115 -0.326739 0
    outer loop
      vertex -21.1095 15.617 21.7363
      vertex -21.3422 16.2901 22.0363
      vertex -21.3422 16.2901 21.7363
    endloop
  endfacet
  facet normal -0.945115 -0.326739 0
    outer loop
      vertex -21.3422 16.2901 22.0363
      vertex -21.1095 15.617 21.7363
      vertex -21.1095 15.617 22.0363
    endloop
  endfacet
  facet normal -0.0412938 -0.999147 0
    outer loop
      vertex -14.9063 11.2627 21.7363
      vertex -14.0425 11.227 22.0363
      vertex -14.9063 11.2627 22.0363
    endloop
  endfacet
  facet normal -0.0412938 -0.999147 -0
    outer loop
      vertex -14.0425 11.227 22.0363
      vertex -14.9063 11.2627 21.7363
      vertex -14.0425 11.227 21.7363
    endloop
  endfacet
  facet normal 0.576471 0.817118 -0
    outer loop
      vertex -8.96999 23.9882 21.7363
      vertex -9.54349 24.3928 22.0363
      vertex -8.96999 23.9882 22.0363
    endloop
  endfacet
  facet normal 0.576471 0.817118 0
    outer loop
      vertex -9.54349 24.3928 22.0363
      vertex -8.96999 23.9882 21.7363
      vertex -9.54349 24.3928 21.7363
    endloop
  endfacet
  facet normal 0.999102 -0.0423665 0
    outer loop
      vertex -6.47449 17.7176 22.0363
      vertex -6.4425 18.472 21.7363
      vertex -6.4425 18.472 22.0363
    endloop
  endfacet
  facet normal 0.999102 -0.0423665 0
    outer loop
      vertex -6.4425 18.472 21.7363
      vertex -6.47449 17.7176 22.0363
      vertex -6.47449 17.7176 21.7363
    endloop
  endfacet
  facet normal 0.125286 0.992121 -0
    outer loop
      vertex -12.359 25.461 21.7363
      vertex -13.1786 25.5645 22.0363
      vertex -12.359 25.461 22.0363
    endloop
  endfacet
  facet normal 0.125286 0.992121 0
    outer loop
      vertex -13.1786 25.5645 22.0363
      vertex -12.359 25.461 21.7363
      vertex -13.1786 25.5645 21.7363
    endloop
  endfacet
  facet normal 0.737198 -0.675677 0
    outer loop
      vertex -8.45049 13.333 22.0363
      vertex -7.988 13.8376 21.7363
      vertex -7.988 13.8376 22.0363
    endloop
  endfacet
  facet normal 0.737198 -0.675677 0
    outer loop
      vertex -7.988 13.8376 21.7363
      vertex -8.45049 13.333 22.0363
      vertex -8.45049 13.333 21.7363
    endloop
  endfacet
  facet normal -0.908792 -0.417249 0
    outer loop
      vertex -20.8169 14.9797 21.7363
      vertex -21.1095 15.617 22.0363
      vertex -21.1095 15.617 21.7363
    endloop
  endfacet
  facet normal -0.908792 -0.417249 0
    outer loop
      vertex -21.1095 15.617 22.0363
      vertex -20.8169 14.9797 21.7363
      vertex -20.8169 14.9797 22.0363
    endloop
  endfacet
  facet normal -0.217237 0.976119 0
    outer loop
      vertex -15.7257 25.461 21.7363
      vertex -16.5008 25.2885 22.0363
      vertex -15.7257 25.461 22.0363
    endloop
  endfacet
  facet normal -0.217237 0.976119 0
    outer loop
      vertex -16.5008 25.2885 22.0363
      vertex -15.7257 25.461 21.7363
      vertex -16.5008 25.2885 21.7363
    endloop
  endfacet
  facet normal 0.991011 0.133784 0
    outer loop
      vertex -6.47449 19.2078 22.0363
      vertex -6.5705 19.919 21.7363
      vertex -6.5705 19.919 22.0363
    endloop
  endfacet
  facet normal 0.991011 0.133784 0
    outer loop
      vertex -6.5705 19.919 21.7363
      vertex -6.47449 19.2078 22.0363
      vertex -6.47449 19.2078 21.7363
    endloop
  endfacet
  facet normal -0.943444 0.331531 0
    outer loop
      vertex -21.3422 20.6058 21.7363
      vertex -21.1095 21.268 22.0363
      vertex -21.1095 21.268 21.7363
    endloop
  endfacet
  facet normal -0.943444 0.331531 0
    outer loop
      vertex -21.1095 21.268 22.0363
      vertex -21.3422 20.6058 21.7363
      vertex -21.3422 20.6058 22.0363
    endloop
  endfacet
  facet normal -0.972936 -0.231076 0
    outer loop
      vertex -21.3422 16.2901 21.7363
      vertex -21.5085 16.9903 22.0363
      vertex -21.5085 16.9903 21.7363
    endloop
  endfacet
  facet normal -0.972936 -0.231076 0
    outer loop
      vertex -21.5085 16.9903 22.0363
      vertex -21.3422 16.2901 21.7363
      vertex -21.3422 16.2901 22.0363
    endloop
  endfacet
  facet normal 0.217157 0.976137 -0
    outer loop
      vertex -11.5836 25.2885 21.7363
      vertex -12.359 25.461 22.0363
      vertex -11.5836 25.2885 22.0363
    endloop
  endfacet
  facet normal 0.217157 0.976137 0
    outer loop
      vertex -12.359 25.461 22.0363
      vertex -11.5836 25.2885 21.7363
      vertex -12.359 25.461 21.7363
    endloop
  endfacet
  facet normal 0.974875 -0.222751 0
    outer loop
      vertex -6.73049 16.2901 22.0363
      vertex -6.5705 16.9903 21.7363
      vertex -6.5705 16.9903 22.0363
    endloop
  endfacet
  facet normal 0.974875 -0.222751 0
    outer loop
      vertex -6.5705 16.9903 21.7363
      vertex -6.73049 16.2901 22.0363
      vertex -6.73049 16.2901 21.7363
    endloop
  endfacet
  facet normal 0.864756 -0.502191 0
    outer loop
      vertex -7.58449 14.3865 22.0363
      vertex -7.24 14.9797 21.7363
      vertex -7.24 14.9797 22.0363
    endloop
  endfacet
  facet normal 0.864756 -0.502191 0
    outer loop
      vertex -7.24 14.9797 21.7363
      vertex -7.58449 14.3865 22.0363
      vertex -7.58449 14.3865 21.7363
    endloop
  endfacet
  facet normal -0.323483 -0.946234 0
    outer loop
      vertex -17.2315 11.798 21.7363
      vertex -16.5008 11.5482 22.0363
      vertex -17.2315 11.798 22.0363
    endloop
  endfacet
  facet normal -0.323483 -0.946234 -0
    outer loop
      vertex -16.5008 11.5482 22.0363
      vertex -17.2315 11.798 21.7363
      vertex -16.5008 11.5482 21.7363
    endloop
  endfacet
  facet normal 0.912603 -0.408846 0
    outer loop
      vertex -7.24 14.9797 22.0363
      vertex -6.95449 15.617 21.7363
      vertex -6.95449 15.617 22.0363
    endloop
  endfacet
  facet normal 0.912603 -0.408846 0
    outer loop
      vertex -6.95449 15.617 21.7363
      vertex -7.24 14.9797 22.0363
      vertex -7.24 14.9797 21.7363
    endloop
  endfacet
  facet normal 0.999056 0.0434355 0
    outer loop
      vertex -6.4425 18.472 22.0363
      vertex -6.47449 19.2078 21.7363
      vertex -6.47449 19.2078 22.0363
    endloop
  endfacet
  facet normal 0.999056 0.0434355 0
    outer loop
      vertex -6.47449 19.2078 21.7363
      vertex -6.4425 18.472 22.0363
      vertex -6.4425 18.472 21.7363
    endloop
  endfacet
  facet normal 0.404357 0.914601 -0
    outer loop
      vertex -10.171 24.7457 21.7363
      vertex -10.8525 25.047 22.0363
      vertex -10.171 24.7457 22.0363
    endloop
  endfacet
  facet normal 0.404357 0.914601 0
    outer loop
      vertex -10.8525 25.047 22.0363
      vertex -10.171 24.7457 21.7363
      vertex -10.8525 25.047 21.7363
    endloop
  endfacet
  facet normal 0.224217 -0.974539 0
    outer loop
      vertex -12.359 11.3698 21.7363
      vertex -11.5836 11.5482 22.0363
      vertex -12.359 11.3698 22.0363
    endloop
  endfacet
  facet normal 0.224217 -0.974539 0
    outer loop
      vertex -11.5836 11.5482 22.0363
      vertex -12.359 11.3698 21.7363
      vertex -11.5836 11.5482 21.7363
    endloop
  endfacet
  facet normal 0.991399 -0.130873 0
    outer loop
      vertex -6.5705 16.9903 22.0363
      vertex -6.47449 17.7176 21.7363
      vertex -6.47449 17.7176 22.0363
    endloop
  endfacet
  facet normal 0.991399 -0.130873 0
    outer loop
      vertex -6.47449 17.7176 21.7363
      vertex -6.5705 16.9903 22.0363
      vertex -6.5705 16.9903 21.7363
    endloop
  endfacet
  facet normal -0.805498 0.592599 0
    outer loop
      vertex -20.47 22.4835 21.7363
      vertex -20.0689 23.0287 22.0363
      vertex -20.0689 23.0287 21.7363
    endloop
  endfacet
  facet normal -0.805498 0.592599 0
    outer loop
      vertex -20.0689 23.0287 22.0363
      vertex -20.47 22.4835 21.7363
      vertex -20.47 22.4835 22.0363
    endloop
  endfacet
  facet normal -0.498844 -0.866692 0
    outer loop
      vertex -18.536 12.4668 21.7363
      vertex -17.9121 12.1077 22.0363
      vertex -18.536 12.4668 22.0363
    endloop
  endfacet
  facet normal -0.498844 -0.866692 -0
    outer loop
      vertex -17.9121 12.1077 22.0363
      vertex -18.536 12.4668 21.7363
      vertex -17.9121 12.1077 21.7363
    endloop
  endfacet
  facet normal 0.490183 0.87162 -0
    outer loop
      vertex -9.54349 24.3928 21.7363
      vertex -10.171 24.7457 22.0363
      vertex -9.54349 24.3928 22.0363
    endloop
  endfacet
  facet normal 0.490183 0.87162 0
    outer loop
      vertex -10.171 24.7457 22.0363
      vertex -9.54349 24.3928 21.7363
      vertex -10.171 24.7457 21.7363
    endloop
  endfacet
  facet normal 0.041289 -0.999147 0
    outer loop
      vertex -14.0425 11.227 21.7363
      vertex -13.1786 11.2627 22.0363
      vertex -14.0425 11.227 22.0363
    endloop
  endfacet
  facet normal 0.041289 -0.999147 0
    outer loop
      vertex -13.1786 11.2627 22.0363
      vertex -14.0425 11.227 21.7363
      vertex -13.1786 11.2627 21.7363
    endloop
  endfacet
  facet normal 0.805716 -0.592302 0
    outer loop
      vertex -7.988 13.8376 22.0363
      vertex -7.58449 14.3865 21.7363
      vertex -7.58449 14.3865 22.0363
    endloop
  endfacet
  facet normal 0.805716 -0.592302 0
    outer loop
      vertex -7.58449 14.3865 21.7363
      vertex -7.988 13.8376 22.0363
      vertex -7.988 13.8376 21.7363
    endloop
  endfacet
  facet normal -0.860827 0.508897 0
    outer loop
      vertex -20.8169 21.8967 21.7363
      vertex -20.47 22.4835 22.0363
      vertex -20.47 22.4835 21.7363
    endloop
  endfacet
  facet normal -0.860827 0.508897 0
    outer loop
      vertex -20.47 22.4835 22.0363
      vertex -20.8169 21.8967 21.7363
      vertex -20.8169 21.8967 22.0363
    endloop
  endfacet
  facet normal -0.224299 -0.97452 0
    outer loop
      vertex -16.5008 11.5482 21.7363
      vertex -15.7257 11.3698 22.0363
      vertex -16.5008 11.5482 22.0363
    endloop
  endfacet
  facet normal -0.224299 -0.97452 -0
    outer loop
      vertex -15.7257 11.3698 22.0363
      vertex -16.5008 11.5482 21.7363
      vertex -15.7257 11.3698 21.7363
    endloop
  endfacet
  facet normal -0.906621 0.421946 0
    outer loop
      vertex -21.1095 21.268 21.7363
      vertex -20.8169 21.8967 22.0363
      vertex -20.8169 21.8967 21.7363
    endloop
  endfacet
  facet normal -0.906621 0.421946 0
    outer loop
      vertex -20.8169 21.8967 22.0363
      vertex -21.1095 21.268 21.7363
      vertex -21.1095 21.268 22.0363
    endloop
  endfacet
  facet normal -0.667707 -0.744424 0
    outer loop
      vertex -19.6135 13.333 21.7363
      vertex -19.1031 12.8752 22.0363
      vertex -19.6135 13.333 22.0363
    endloop
  endfacet
  facet normal -0.667707 -0.744424 -0
    outer loop
      vertex -19.1031 12.8752 22.0363
      vertex -19.6135 13.333 21.7363
      vertex -19.1031 12.8752 21.7363
    endloop
  endfacet
  facet normal 0.948838 -0.315763 0
    outer loop
      vertex -6.95449 15.617 22.0363
      vertex -6.73049 16.2901 21.7363
      vertex -6.73049 16.2901 22.0363
    endloop
  endfacet
  facet normal 0.948838 -0.315763 0
    outer loop
      vertex -6.73049 16.2901 21.7363
      vertex -6.95449 15.617 22.0363
      vertex -6.95449 15.617 21.7363
    endloop
  endfacet
  facet normal -0.66641 0.745585 0
    outer loop
      vertex -19.1031 23.9882 21.7363
      vertex -19.6135 23.532 22.0363
      vertex -19.1031 23.9882 22.0363
    endloop
  endfacet
  facet normal -0.66641 0.745585 0
    outer loop
      vertex -19.6135 23.532 22.0363
      vertex -19.1031 23.9882 21.7363
      vertex -19.6135 23.532 21.7363
    endloop
  endfacet
  facet normal -0.31381 0.949486 0
    outer loop
      vertex -16.5008 25.2885 21.7363
      vertex -17.2315 25.047 22.0363
      vertex -16.5008 25.2885 22.0363
    endloop
  endfacet
  facet normal -0.31381 0.949486 0
    outer loop
      vertex -17.2315 25.047 22.0363
      vertex -16.5008 25.2885 21.7363
      vertex -17.2315 25.047 21.7363
    endloop
  endfacet
  facet normal 0.862375 0.50627 0
    outer loop
      vertex -7.24 21.8967 22.0363
      vertex -7.58449 22.4835 21.7363
      vertex -7.58449 22.4835 22.0363
    endloop
  endfacet
  facet normal 0.862375 0.50627 0
    outer loop
      vertex -7.58449 22.4835 21.7363
      vertex -7.24 21.8967 22.0363
      vertex -7.24 21.8967 21.7363
    endloop
  endfacet
  facet normal -0.039908 0.999203 0
    outer loop
      vertex -14.0425 25.599 21.7363
      vertex -14.9063 25.5645 22.0363
      vertex -14.0425 25.599 22.0363
    endloop
  endfacet
  facet normal -0.039908 0.999203 0
    outer loop
      vertex -14.9063 25.5645 22.0363
      vertex -14.0425 25.599 21.7363
      vertex -14.9063 25.5645 21.7363
    endloop
  endfacet
  facet normal -0.990316 0.138828 0
    outer loop
      vertex -21.6082 19.2078 21.7363
      vertex -21.5085 19.919 22.0363
      vertex -21.5085 19.919 21.7363
    endloop
  endfacet
  facet normal -0.990316 0.138828 0
    outer loop
      vertex -21.5085 19.919 22.0363
      vertex -21.6082 19.2078 21.7363
      vertex -21.6082 19.2078 22.0363
    endloop
  endfacet
  facet normal 0.973924 0.226875 0
    outer loop
      vertex -6.5705 19.919 22.0363
      vertex -6.73049 20.6058 21.7363
      vertex -6.73049 20.6058 22.0363
    endloop
  endfacet
  facet normal 0.973924 0.226875 0
    outer loop
      vertex -6.73049 20.6058 21.7363
      vertex -6.5705 19.919 22.0363
      vertex -6.5705 19.919 21.7363
    endloop
  endfacet
  facet normal -0.404804 0.914403 0
    outer loop
      vertex -17.2315 25.047 21.7363
      vertex -17.9121 24.7457 22.0363
      vertex -17.2315 25.047 22.0363
    endloop
  endfacet
  facet normal -0.404804 0.914403 0
    outer loop
      vertex -17.9121 24.7457 22.0363
      vertex -17.2315 25.047 21.7363
      vertex -17.9121 24.7457 21.7363
    endloop
  endfacet
  facet normal -0.492333 0.870407 0
    outer loop
      vertex -17.9121 24.7457 21.7363
      vertex -18.536 24.3928 22.0363
      vertex -17.9121 24.7457 22.0363
    endloop
  endfacet
  facet normal -0.492333 0.870407 0
    outer loop
      vertex -18.536 24.3928 22.0363
      vertex -17.9121 24.7457 21.7363
      vertex -18.536 24.3928 21.7363
    endloop
  endfacet
  facet normal 0.129572 -0.99157 0
    outer loop
      vertex -13.1786 11.2627 21.7363
      vertex -12.359 11.3698 22.0363
      vertex -13.1786 11.2627 22.0363
    endloop
  endfacet
  facet normal 0.129572 -0.99157 0
    outer loop
      vertex -12.359 11.3698 22.0363
      vertex -13.1786 11.2627 21.7363
      vertex -12.359 11.3698 21.7363
    endloop
  endfacet
  facet normal 0.496684 -0.867931 0
    outer loop
      vertex -10.171 12.1077 21.7363
      vertex -9.54349 12.4668 22.0363
      vertex -10.171 12.1077 22.0363
    endloop
  endfacet
  facet normal 0.496684 -0.867931 0
    outer loop
      vertex -9.54349 12.4668 22.0363
      vertex -10.171 12.1077 21.7363
      vertex -9.54349 12.4668 21.7363
    endloop
  endfacet
  facet normal -0.999027 -0.0440981 0
    outer loop
      vertex -21.6082 17.7176 21.7363
      vertex -21.6415 18.472 22.0363
      vertex -21.6415 18.472 21.7363
    endloop
  endfacet
  facet normal -0.999027 -0.0440981 0
    outer loop
      vertex -21.6415 18.472 22.0363
      vertex -21.6082 17.7176 21.7363
      vertex -21.6082 17.7176 22.0363
    endloop
  endfacet
  facet normal 0.580069 -0.814568 0
    outer loop
      vertex -9.54349 12.4668 21.7363
      vertex -8.96999 12.8752 22.0363
      vertex -9.54349 12.4668 22.0363
    endloop
  endfacet
  facet normal 0.580069 -0.814568 0
    outer loop
      vertex -8.96999 12.8752 22.0363
      vertex -9.54349 12.4668 21.7363
      vertex -8.96999 12.8752 21.7363
    endloop
  endfacet
  facet normal 0.413722 -0.910403 0
    outer loop
      vertex -10.8525 11.798 21.7363
      vertex -10.171 12.1077 22.0363
      vertex -10.8525 11.798 22.0363
    endloop
  endfacet
  facet normal 0.413722 -0.910403 0
    outer loop
      vertex -10.171 12.1077 22.0363
      vertex -10.8525 11.798 21.7363
      vertex -10.171 12.1077 21.7363
    endloop
  endfacet
  facet normal -0.741511 0.67094 0
    outer loop
      vertex -20.0689 23.0287 21.7363
      vertex -19.6135 23.532 22.0363
      vertex -19.6135 23.532 21.7363
    endloop
  endfacet
  facet normal -0.741511 0.67094 0
    outer loop
      vertex -19.6135 23.532 22.0363
      vertex -20.0689 23.0287 21.7363
      vertex -20.0689 23.0287 22.0363
    endloop
  endfacet
  facet normal 0.313655 0.949537 -0
    outer loop
      vertex -10.8525 25.047 21.7363
      vertex -11.5836 25.2885 22.0363
      vertex -10.8525 25.047 22.0363
    endloop
  endfacet
  facet normal 0.313655 0.949537 0
    outer loop
      vertex -11.5836 25.2885 22.0363
      vertex -10.8525 25.047 21.7363
      vertex -11.5836 25.2885 21.7363
    endloop
  endfacet
  facet normal -0.125316 0.992117 0
    outer loop
      vertex -14.9063 25.5645 21.7363
      vertex -15.7257 25.461 22.0363
      vertex -14.9063 25.5645 22.0363
    endloop
  endfacet
  facet normal -0.125316 0.992117 0
    outer loop
      vertex -15.7257 25.461 22.0363
      vertex -14.9063 25.5645 21.7363
      vertex -15.7257 25.461 21.7363
    endloop
  endfacet
  facet normal 0.323325 -0.946288 0
    outer loop
      vertex -11.5836 11.5482 21.7363
      vertex -10.8525 11.798 22.0363
      vertex -11.5836 11.5482 22.0363
    endloop
  endfacet
  facet normal 0.323325 -0.946288 0
    outer loop
      vertex -10.8525 11.798 22.0363
      vertex -11.5836 11.5482 21.7363
      vertex -10.8525 11.798 21.7363
    endloop
  endfacet
  facet normal 0 0 -1
    outer loop
      vertex -10.8525 11.798 21.7363
      vertex -6.4425 18.472 21.7363
      vertex -6.47449 17.7176 21.7363
    endloop
  endfacet
  facet normal 0 0 -1
    outer loop
      vertex -10.8525 11.798 21.7363
      vertex -6.47449 17.7176 21.7363
      vertex -6.5705 16.9903 21.7363
    endloop
  endfacet
  facet normal 0 0 -1
    outer loop
      vertex -11.5836 11.5482 21.7363
      vertex -6.4425 18.472 21.7363
      vertex -10.8525 11.798 21.7363
    endloop
  endfacet
  facet normal 0 0 -1
    outer loop
      vertex -10.8525 11.798 21.7363
      vertex -6.5705 16.9903 21.7363
      vertex -6.73049 16.2901 21.7363
    endloop
  endfacet
  facet normal 0 0 -1
    outer loop
      vertex -6.4425 18.472 21.7363
      vertex -11.5836 25.2885 21.7363
      vertex -6.47449 19.2078 21.7363
    endloop
  endfacet
  facet normal 0 0 -1
    outer loop
      vertex -10.171 12.1077 21.7363
      vertex -6.73049 16.2901 21.7363
      vertex -6.95449 15.617 21.7363
    endloop
  endfacet
  facet normal 0 0 -1
    outer loop
      vertex -10.8525 11.798 21.7363
      vertex -6.73049 16.2901 21.7363
      vertex -10.171 12.1077 21.7363
    endloop
  endfacet
  facet normal 0 0 -1
    outer loop
      vertex -9.54349 12.4668 21.7363
      vertex -6.95449 15.617 21.7363
      vertex -7.24 14.9797 21.7363
    endloop
  endfacet
  facet normal 0 0 -1
    outer loop
      vertex -6.47449 19.2078 21.7363
      vertex -11.5836 25.2885 21.7363
      vertex -6.5705 19.919 21.7363
    endloop
  endfacet
  facet normal 0 0 -1
    outer loop
      vertex -9.54349 12.4668 21.7363
      vertex -7.24 14.9797 21.7363
      vertex -7.58449 14.3865 21.7363
    endloop
  endfacet
  facet normal 0 0 -1
    outer loop
      vertex -6.95449 15.617 21.7363
      vertex -9.54349 12.4668 21.7363
      vertex -10.171 12.1077 21.7363
    endloop
  endfacet
  facet normal 0 0 -1
    outer loop
      vertex -8.96999 12.8752 21.7363
      vertex -7.58449 14.3865 21.7363
      vertex -7.988 13.8376 21.7363
    endloop
  endfacet
  facet normal 0 0 -1
    outer loop
      vertex -8.96999 12.8752 21.7363
      vertex -7.988 13.8376 21.7363
      vertex -8.45049 13.333 21.7363
    endloop
  endfacet
  facet normal 0 0 -1
    outer loop
      vertex -9.54349 12.4668 21.7363
      vertex -7.58449 14.3865 21.7363
      vertex -8.96999 12.8752 21.7363
    endloop
  endfacet
  facet normal 0 0 -1
    outer loop
      vertex -7.58449 22.4835 21.7363
      vertex -8.45049 23.532 21.7363
      vertex -7.988 23.0287 21.7363
    endloop
  endfacet
  facet normal -0 -0 -1
    outer loop
      vertex -10.171 24.7457 21.7363
      vertex -6.73049 20.6058 21.7363
      vertex -10.8525 25.047 21.7363
    endloop
  endfacet
  facet normal 0 0 -1
    outer loop
      vertex -7.58449 22.4835 21.7363
      vertex -8.96999 23.9882 21.7363
      vertex -8.45049 23.532 21.7363
    endloop
  endfacet
  facet normal 0 0 -1
    outer loop
      vertex -7.24 21.8967 21.7363
      vertex -9.54349 24.3928 21.7363
      vertex -7.58449 22.4835 21.7363
    endloop
  endfacet
  facet normal 0 0 -1
    outer loop
      vertex -7.58449 22.4835 21.7363
      vertex -9.54349 24.3928 21.7363
      vertex -8.96999 23.9882 21.7363
    endloop
  endfacet
  facet normal 0 0 -1
    outer loop
      vertex -6.73049 20.6058 21.7363
      vertex -10.171 24.7457 21.7363
      vertex -6.95449 21.268 21.7363
    endloop
  endfacet
  facet normal 0 0 -1
    outer loop
      vertex -7.24 21.8967 21.7363
      vertex -10.171 24.7457 21.7363
      vertex -9.54349 24.3928 21.7363
    endloop
  endfacet
  facet normal -0 -0 -1
    outer loop
      vertex -10.8525 25.047 21.7363
      vertex -6.5705 19.919 21.7363
      vertex -11.5836 25.2885 21.7363
    endloop
  endfacet
  facet normal 0 0 -1
    outer loop
      vertex -6.95449 21.268 21.7363
      vertex -10.171 24.7457 21.7363
      vertex -7.24 21.8967 21.7363
    endloop
  endfacet
  facet normal -0 0 -1
    outer loop
      vertex -6.4425 18.472 21.7363
      vertex -11.5836 11.5482 21.7363
      vertex -11.5836 25.2885 21.7363
    endloop
  endfacet
  facet normal 0 0 -1
    outer loop
      vertex -6.5705 19.919 21.7363
      vertex -10.8525 25.047 21.7363
      vertex -6.73049 20.6058 21.7363
    endloop
  endfacet
  facet normal 0 0 -1
    outer loop
      vertex -12.359 11.3698 21.7363
      vertex -11.5836 25.2885 21.7363
      vertex -11.5836 11.5482 21.7363
    endloop
  endfacet
  facet normal 0 0 -1
    outer loop
      vertex -12.359 11.3698 21.7363
      vertex -12.359 25.461 21.7363
      vertex -11.5836 25.2885 21.7363
    endloop
  endfacet
  facet normal 0 0 -1
    outer loop
      vertex -13.1786 11.2627 21.7363
      vertex -12.359 25.461 21.7363
      vertex -12.359 11.3698 21.7363
    endloop
  endfacet
  facet normal 0 0 -1
    outer loop
      vertex -13.1786 11.2627 21.7363
      vertex -13.1786 25.5645 21.7363
      vertex -12.359 25.461 21.7363
    endloop
  endfacet
  facet normal 0 0 -1
    outer loop
      vertex -14.0425 11.227 21.7363
      vertex -13.1786 25.5645 21.7363
      vertex -13.1786 11.2627 21.7363
    endloop
  endfacet
  facet normal 0 0 -1
    outer loop
      vertex -14.0425 11.227 21.7363
      vertex -14.0425 25.599 21.7363
      vertex -13.1786 25.5645 21.7363
    endloop
  endfacet
  facet normal 0 0 -1
    outer loop
      vertex -14.9063 11.2627 21.7363
      vertex -14.0425 25.599 21.7363
      vertex -14.0425 11.227 21.7363
    endloop
  endfacet
  facet normal 0 0 -1
    outer loop
      vertex -14.9063 11.2627 21.7363
      vertex -14.9063 25.5645 21.7363
      vertex -14.0425 25.599 21.7363
    endloop
  endfacet
  facet normal 0 0 -1
    outer loop
      vertex -15.7257 11.3698 21.7363
      vertex -14.9063 25.5645 21.7363
      vertex -14.9063 11.2627 21.7363
    endloop
  endfacet
  facet normal 0 0 -1
    outer loop
      vertex -15.7257 11.3698 21.7363
      vertex -15.7257 25.461 21.7363
      vertex -14.9063 25.5645 21.7363
    endloop
  endfacet
  facet normal 0 0 -1
    outer loop
      vertex -16.5008 11.5482 21.7363
      vertex -15.7257 25.461 21.7363
      vertex -15.7257 11.3698 21.7363
    endloop
  endfacet
  facet normal 0 0 -1
    outer loop
      vertex -21.6082 17.7176 21.7363
      vertex -15.7257 25.461 21.7363
      vertex -16.5008 11.5482 21.7363
    endloop
  endfacet
  facet normal 0 0 -1
    outer loop
      vertex -21.6082 17.7176 21.7363
      vertex -16.5008 11.5482 21.7363
      vertex -17.2315 11.798 21.7363
    endloop
  endfacet
  facet normal 0 0 -1
    outer loop
      vertex -21.6415 18.472 21.7363
      vertex -15.7257 25.461 21.7363
      vertex -21.6082 17.7176 21.7363
    endloop
  endfacet
  facet normal 0 0 -1
    outer loop
      vertex -21.6082 17.7176 21.7363
      vertex -17.2315 11.798 21.7363
      vertex -17.9121 12.1077 21.7363
    endloop
  endfacet
  facet normal 0 0 -1
    outer loop
      vertex -15.7257 25.461 21.7363
      vertex -21.6415 18.472 21.7363
      vertex -16.5008 25.2885 21.7363
    endloop
  endfacet
  facet normal 0 0 -1
    outer loop
      vertex -21.3422 16.2901 21.7363
      vertex -17.9121 12.1077 21.7363
      vertex -18.536 12.4668 21.7363
    endloop
  endfacet
  facet normal 0 0 -1
    outer loop
      vertex -16.5008 25.2885 21.7363
      vertex -21.6415 18.472 21.7363
      vertex -17.2315 25.047 21.7363
    endloop
  endfacet
  facet normal 0 0 -1
    outer loop
      vertex -21.1095 15.617 21.7363
      vertex -18.536 12.4668 21.7363
      vertex -19.1031 12.8752 21.7363
    endloop
  endfacet
  facet normal 0 -0 -1
    outer loop
      vertex -21.6082 19.2078 21.7363
      vertex -17.2315 25.047 21.7363
      vertex -21.6415 18.472 21.7363
    endloop
  endfacet
  facet normal 0 0 -1
    outer loop
      vertex -20.0689 13.8376 21.7363
      vertex -19.1031 12.8752 21.7363
      vertex -19.6135 13.333 21.7363
    endloop
  endfacet
  facet normal 0 0 -1
    outer loop
      vertex -20.47 14.3865 21.7363
      vertex -19.1031 12.8752 21.7363
      vertex -20.0689 13.8376 21.7363
    endloop
  endfacet
  facet normal 0 0 -1
    outer loop
      vertex -20.8169 14.9797 21.7363
      vertex -19.1031 12.8752 21.7363
      vertex -20.47 14.3865 21.7363
    endloop
  endfacet
  facet normal 0 0 -1
    outer loop
      vertex -21.1095 15.617 21.7363
      vertex -19.1031 12.8752 21.7363
      vertex -20.8169 14.9797 21.7363
    endloop
  endfacet
  facet normal 0 0 -1
    outer loop
      vertex -18.536 12.4668 21.7363
      vertex -21.1095 15.617 21.7363
      vertex -21.3422 16.2901 21.7363
    endloop
  endfacet
  facet normal 0 0 -1
    outer loop
      vertex -17.9121 12.1077 21.7363
      vertex -21.3422 16.2901 21.7363
      vertex -21.5085 16.9903 21.7363
    endloop
  endfacet
  facet normal 0 0 -1
    outer loop
      vertex -19.1031 23.9882 21.7363
      vertex -20.0689 23.0287 21.7363
      vertex -19.6135 23.532 21.7363
    endloop
  endfacet
  facet normal 0 0 -1
    outer loop
      vertex -19.1031 23.9882 21.7363
      vertex -20.47 22.4835 21.7363
      vertex -20.0689 23.0287 21.7363
    endloop
  endfacet
  facet normal 0 0 -1
    outer loop
      vertex -19.1031 23.9882 21.7363
      vertex -20.8169 21.8967 21.7363
      vertex -20.47 22.4835 21.7363
    endloop
  endfacet
  facet normal 0 0 -1
    outer loop
      vertex -18.536 24.3928 21.7363
      vertex -20.8169 21.8967 21.7363
      vertex -19.1031 23.9882 21.7363
    endloop
  endfacet
  facet normal 0 0 -1
    outer loop
      vertex -17.9121 12.1077 21.7363
      vertex -21.5085 16.9903 21.7363
      vertex -21.6082 17.7176 21.7363
    endloop
  endfacet
  facet normal 0 0 -1
    outer loop
      vertex -17.2315 25.047 21.7363
      vertex -21.6082 19.2078 21.7363
      vertex -17.9121 24.7457 21.7363
    endloop
  endfacet
  facet normal 0 -0 -1
    outer loop
      vertex -20.8169 21.8967 21.7363
      vertex -18.536 24.3928 21.7363
      vertex -21.1095 21.268 21.7363
    endloop
  endfacet
  facet normal 0 0 -1
    outer loop
      vertex -17.9121 24.7457 21.7363
      vertex -21.1095 21.268 21.7363
      vertex -18.536 24.3928 21.7363
    endloop
  endfacet
  facet normal 0 -0 -1
    outer loop
      vertex -21.5085 19.919 21.7363
      vertex -17.9121 24.7457 21.7363
      vertex -21.6082 19.2078 21.7363
    endloop
  endfacet
  facet normal 0 -0 -1
    outer loop
      vertex -21.1095 21.268 21.7363
      vertex -17.9121 24.7457 21.7363
      vertex -21.3422 20.6058 21.7363
    endloop
  endfacet
  facet normal 0 -0 -1
    outer loop
      vertex -21.3422 20.6058 21.7363
      vertex -17.9121 24.7457 21.7363
      vertex -21.5085 19.919 21.7363
    endloop
  endfacet
  facet normal -0.990735 -0.135812 0
    outer loop
      vertex -21.5085 16.9903 21.7363
      vertex -21.6082 17.7176 22.0363
      vertex -21.6082 17.7176 21.7363
    endloop
  endfacet
  facet normal -0.990735 -0.135812 0
    outer loop
      vertex -21.6082 17.7176 22.0363
      vertex -21.5085 16.9903 21.7363
      vertex -21.5085 16.9903 22.0363
    endloop
  endfacet
  facet normal -0.584388 -0.811475 0
    outer loop
      vertex -19.1031 12.8752 21.7363
      vertex -18.536 12.4668 22.0363
      vertex -19.1031 12.8752 22.0363
    endloop
  endfacet
  facet normal -0.584388 -0.811475 -0
    outer loop
      vertex -18.536 12.4668 22.0363
      vertex -19.1031 12.8752 21.7363
      vertex -18.536 12.4668 21.7363
    endloop
  endfacet
  facet normal -0.742372 -0.669988 0
    outer loop
      vertex -19.6135 13.333 21.7363
      vertex -20.0689 13.8376 22.0363
      vertex -20.0689 13.8376 21.7363
    endloop
  endfacet
  facet normal -0.742372 -0.669988 0
    outer loop
      vertex -20.0689 13.8376 22.0363
      vertex -19.6135 13.333 21.7363
      vertex -19.6135 13.333 22.0363
    endloop
  endfacet
  facet normal 0.803798 0.594902 0
    outer loop
      vertex -7.58449 22.4835 22.0363
      vertex -7.988 23.0287 21.7363
      vertex -7.988 23.0287 22.0363
    endloop
  endfacet
  facet normal 0.803798 0.594902 0
    outer loop
      vertex -7.988 23.0287 21.7363
      vertex -7.58449 22.4835 22.0363
      vertex -7.58449 22.4835 21.7363
    endloop
  endfacet
  facet normal -0.998977 0.0452106 0
    outer loop
      vertex -21.6415 18.472 21.7363
      vertex -21.6082 19.2078 22.0363
      vertex -21.6082 19.2078 21.7363
    endloop
  endfacet
  facet normal -0.998977 0.0452106 0
    outer loop
      vertex -21.6082 19.2078 22.0363
      vertex -21.6415 18.472 21.7363
      vertex -21.6415 18.472 22.0363
    endloop
  endfacet
  facet normal 0 0 1
    outer loop
      vertex -11.5836 25.2885 22.0363
      vertex -6.4425 18.472 22.0363
      vertex -6.47449 19.2078 22.0363
    endloop
  endfacet
  facet normal 0 0 1
    outer loop
      vertex -11.5836 25.2885 22.0363
      vertex -6.47449 19.2078 22.0363
      vertex -6.5705 19.919 22.0363
    endloop
  endfacet
  facet normal 0 0 1
    outer loop
      vertex -12.359 25.461 22.0363
      vertex -6.4425 18.472 22.0363
      vertex -11.5836 25.2885 22.0363
    endloop
  endfacet
  facet normal 0 0 1
    outer loop
      vertex -10.8525 25.047 22.0363
      vertex -6.5705 19.919 22.0363
      vertex -6.73049 20.6058 22.0363
    endloop
  endfacet
  facet normal 0 0 1
    outer loop
      vertex -11.5836 25.2885 22.0363
      vertex -6.5705 19.919 22.0363
      vertex -10.8525 25.047 22.0363
    endloop
  endfacet
  facet normal 0 0 1
    outer loop
      vertex -10.171 24.7457 22.0363
      vertex -6.73049 20.6058 22.0363
      vertex -6.95449 21.268 22.0363
    endloop
  endfacet
  facet normal 0 0 1
    outer loop
      vertex -6.4425 18.472 22.0363
      vertex -12.359 25.461 22.0363
      vertex -6.47449 17.7176 22.0363
    endloop
  endfacet
  facet normal 0 0 1
    outer loop
      vertex -10.171 24.7457 22.0363
      vertex -6.95449 21.268 22.0363
      vertex -7.24 21.8967 22.0363
    endloop
  endfacet
  facet normal 0 0 1
    outer loop
      vertex -6.47449 17.7176 22.0363
      vertex -10.8525 11.798 22.0363
      vertex -6.5705 16.9903 22.0363
    endloop
  endfacet
  facet normal 0 0 1
    outer loop
      vertex -10.171 24.7457 22.0363
      vertex -7.24 21.8967 22.0363
      vertex -7.58449 22.4835 22.0363
    endloop
  endfacet
  facet normal 0 0 1
    outer loop
      vertex -6.73049 20.6058 22.0363
      vertex -10.171 24.7457 22.0363
      vertex -10.8525 25.047 22.0363
    endloop
  endfacet
  facet normal 0 0 1
    outer loop
      vertex -10.171 24.7457 22.0363
      vertex -7.58449 22.4835 22.0363
      vertex -7.988 23.0287 22.0363
    endloop
  endfacet
  facet normal 0 0 1
    outer loop
      vertex -6.5705 16.9903 22.0363
      vertex -10.8525 11.798 22.0363
      vertex -6.73049 16.2901 22.0363
    endloop
  endfacet
  facet normal 0 0 1
    outer loop
      vertex -8.96999 23.9882 22.0363
      vertex -7.988 23.0287 22.0363
      vertex -8.45049 23.532 22.0363
    endloop
  endfacet
  facet normal 0 0 1
    outer loop
      vertex -9.54349 24.3928 22.0363
      vertex -7.988 23.0287 22.0363
      vertex -8.96999 23.9882 22.0363
    endloop
  endfacet
  facet normal 0 0 1
    outer loop
      vertex -10.171 24.7457 22.0363
      vertex -7.988 23.0287 22.0363
      vertex -9.54349 24.3928 22.0363
    endloop
  endfacet
  facet normal 0 0 1
    outer loop
      vertex -7.988 13.8376 22.0363
      vertex -8.96999 12.8752 22.0363
      vertex -8.45049 13.333 22.0363
    endloop
  endfacet
  facet normal 0 0 1
    outer loop
      vertex -6.95449 15.617 22.0363
      vertex -9.54349 12.4668 22.0363
      vertex -7.24 14.9797 22.0363
    endloop
  endfacet
  facet normal 0 0 1
    outer loop
      vertex -7.988 13.8376 22.0363
      vertex -9.54349 12.4668 22.0363
      vertex -8.96999 12.8752 22.0363
    endloop
  endfacet
  facet normal 0 0 1
    outer loop
      vertex -7.58449 14.3865 22.0363
      vertex -9.54349 12.4668 22.0363
      vertex -7.988 13.8376 22.0363
    endloop
  endfacet
  facet normal 0 0 1
    outer loop
      vertex -7.24 14.9797 22.0363
      vertex -9.54349 12.4668 22.0363
      vertex -7.58449 14.3865 22.0363
    endloop
  endfacet
  facet normal 0 -0 1
    outer loop
      vertex -9.54349 12.4668 22.0363
      vertex -6.95449 15.617 22.0363
      vertex -10.171 12.1077 22.0363
    endloop
  endfacet
  facet normal 0 0 1
    outer loop
      vertex -6.73049 16.2901 22.0363
      vertex -10.171 12.1077 22.0363
      vertex -6.95449 15.617 22.0363
    endloop
  endfacet
  facet normal 0 -0 1
    outer loop
      vertex -10.171 12.1077 22.0363
      vertex -6.73049 16.2901 22.0363
      vertex -10.8525 11.798 22.0363
    endloop
  endfacet
  facet normal 0 0 1
    outer loop
      vertex -6.47449 17.7176 22.0363
      vertex -11.5836 11.5482 22.0363
      vertex -10.8525 11.798 22.0363
    endloop
  endfacet
  facet normal 0 0 1
    outer loop
      vertex -6.47449 17.7176 22.0363
      vertex -12.359 25.461 22.0363
      vertex -11.5836 11.5482 22.0363
    endloop
  endfacet
  facet normal 0 0 1
    outer loop
      vertex -12.359 25.461 22.0363
      vertex -12.359 11.3698 22.0363
      vertex -11.5836 11.5482 22.0363
    endloop
  endfacet
  facet normal 0 0 1
    outer loop
      vertex -13.1786 25.5645 22.0363
      vertex -12.359 11.3698 22.0363
      vertex -12.359 25.461 22.0363
    endloop
  endfacet
  facet normal 0 0 1
    outer loop
      vertex -13.1786 25.5645 22.0363
      vertex -13.1786 11.2627 22.0363
      vertex -12.359 11.3698 22.0363
    endloop
  endfacet
  facet normal 0 0 1
    outer loop
      vertex -14.0425 25.599 22.0363
      vertex -13.1786 11.2627 22.0363
      vertex -13.1786 25.5645 22.0363
    endloop
  endfacet
  facet normal 0 0 1
    outer loop
      vertex -14.0425 25.599 22.0363
      vertex -14.0425 11.227 22.0363
      vertex -13.1786 11.2627 22.0363
    endloop
  endfacet
  facet normal -0 0 1
    outer loop
      vertex -14.9063 25.5645 22.0363
      vertex -14.0425 11.227 22.0363
      vertex -14.0425 25.599 22.0363
    endloop
  endfacet
  facet normal 0 0 1
    outer loop
      vertex -14.9063 25.5645 22.0363
      vertex -14.9063 11.2627 22.0363
      vertex -14.0425 11.227 22.0363
    endloop
  endfacet
  facet normal -0 0 1
    outer loop
      vertex -15.7257 25.461 22.0363
      vertex -14.9063 11.2627 22.0363
      vertex -14.9063 25.5645 22.0363
    endloop
  endfacet
  facet normal 0 0 1
    outer loop
      vertex -15.7257 25.461 22.0363
      vertex -15.7257 11.3698 22.0363
      vertex -14.9063 11.2627 22.0363
    endloop
  endfacet
  facet normal -0 0 1
    outer loop
      vertex -16.5008 25.2885 22.0363
      vertex -15.7257 11.3698 22.0363
      vertex -15.7257 25.461 22.0363
    endloop
  endfacet
  facet normal 0 0 1
    outer loop
      vertex -16.5008 25.2885 22.0363
      vertex -16.5008 11.5482 22.0363
      vertex -15.7257 11.3698 22.0363
    endloop
  endfacet
  facet normal 0 0 1
    outer loop
      vertex -17.2315 11.798 22.0363
      vertex -16.5008 25.2885 22.0363
      vertex -17.2315 25.047 22.0363
    endloop
  endfacet
  facet normal 0 0 1
    outer loop
      vertex -16.5008 25.2885 22.0363
      vertex -17.2315 11.798 22.0363
      vertex -16.5008 11.5482 22.0363
    endloop
  endfacet
  facet normal 0 0 1
    outer loop
      vertex -17.9121 12.1077 22.0363
      vertex -17.2315 25.047 22.0363
      vertex -17.9121 24.7457 22.0363
    endloop
  endfacet
  facet normal 0 0 1
    outer loop
      vertex -17.2315 25.047 22.0363
      vertex -17.9121 12.1077 22.0363
      vertex -17.2315 11.798 22.0363
    endloop
  endfacet
  facet normal -0 0 1
    outer loop
      vertex -18.536 24.3928 22.0363
      vertex -17.9121 12.1077 22.0363
      vertex -17.9121 24.7457 22.0363
    endloop
  endfacet
  facet normal 0 0 1
    outer loop
      vertex -18.536 24.3928 22.0363
      vertex -18.536 12.4668 22.0363
      vertex -17.9121 12.1077 22.0363
    endloop
  endfacet
  facet normal -0 0 1
    outer loop
      vertex -19.1031 23.9882 22.0363
      vertex -18.536 12.4668 22.0363
      vertex -18.536 24.3928 22.0363
    endloop
  endfacet
  facet normal 0 0 1
    outer loop
      vertex -19.1031 23.9882 22.0363
      vertex -19.1031 12.8752 22.0363
      vertex -18.536 12.4668 22.0363
    endloop
  endfacet
  facet normal -0 0 1
    outer loop
      vertex -19.6135 23.532 22.0363
      vertex -19.1031 12.8752 22.0363
      vertex -19.1031 23.9882 22.0363
    endloop
  endfacet
  facet normal 0 0 1
    outer loop
      vertex -19.6135 23.532 22.0363
      vertex -19.6135 13.333 22.0363
      vertex -19.1031 12.8752 22.0363
    endloop
  endfacet
  facet normal -0 0 1
    outer loop
      vertex -20.0689 23.0287 22.0363
      vertex -19.6135 13.333 22.0363
      vertex -19.6135 23.532 22.0363
    endloop
  endfacet
  facet normal 0 0 1
    outer loop
      vertex -20.0689 23.0287 22.0363
      vertex -20.0689 13.8376 22.0363
      vertex -19.6135 13.333 22.0363
    endloop
  endfacet
  facet normal -0 0 1
    outer loop
      vertex -20.47 22.4835 22.0363
      vertex -20.0689 13.8376 22.0363
      vertex -20.0689 23.0287 22.0363
    endloop
  endfacet
  facet normal 0 0 1
    outer loop
      vertex -20.47 22.4835 22.0363
      vertex -20.47 14.3865 22.0363
      vertex -20.0689 13.8376 22.0363
    endloop
  endfacet
  facet normal -0 0 1
    outer loop
      vertex -20.8169 21.8967 22.0363
      vertex -20.47 14.3865 22.0363
      vertex -20.47 22.4835 22.0363
    endloop
  endfacet
  facet normal 0 0 1
    outer loop
      vertex -20.8169 21.8967 22.0363
      vertex -20.8169 14.9797 22.0363
      vertex -20.47 14.3865 22.0363
    endloop
  endfacet
  facet normal -0 0 1
    outer loop
      vertex -21.1095 21.268 22.0363
      vertex -20.8169 14.9797 22.0363
      vertex -20.8169 21.8967 22.0363
    endloop
  endfacet
  facet normal 0 0 1
    outer loop
      vertex -21.1095 21.268 22.0363
      vertex -21.1095 15.617 22.0363
      vertex -20.8169 14.9797 22.0363
    endloop
  endfacet
  facet normal -0 0 1
    outer loop
      vertex -21.3422 20.6058 22.0363
      vertex -21.1095 15.617 22.0363
      vertex -21.1095 21.268 22.0363
    endloop
  endfacet
  facet normal 0 0 1
    outer loop
      vertex -21.3422 20.6058 22.0363
      vertex -21.3422 16.2901 22.0363
      vertex -21.1095 15.617 22.0363
    endloop
  endfacet
  facet normal -0 0 1
    outer loop
      vertex -21.5085 19.919 22.0363
      vertex -21.3422 16.2901 22.0363
      vertex -21.3422 20.6058 22.0363
    endloop
  endfacet
  facet normal 0 0 1
    outer loop
      vertex -21.5085 19.919 22.0363
      vertex -21.5085 16.9903 22.0363
      vertex -21.3422 16.2901 22.0363
    endloop
  endfacet
  facet normal -0 0 1
    outer loop
      vertex -21.6082 19.2078 22.0363
      vertex -21.5085 16.9903 22.0363
      vertex -21.5085 19.919 22.0363
    endloop
  endfacet
  facet normal 0 0 1
    outer loop
      vertex -21.6082 19.2078 22.0363
      vertex -21.6082 17.7176 22.0363
      vertex -21.5085 16.9903 22.0363
    endloop
  endfacet
  facet normal 0 -0 1
    outer loop
      vertex -21.6082 17.7176 22.0363
      vertex -21.6082 19.2078 22.0363
      vertex -21.6415 18.472 22.0363
    endloop
  endfacet
  facet normal -0.971914 0.235337 0
    outer loop
      vertex -21.5085 19.919 21.7363
      vertex -21.3422 20.6058 22.0363
      vertex -21.3422 20.6058 21.7363
    endloop
  endfacet
  facet normal -0.971914 0.235337 0
    outer loop
      vertex -21.3422 20.6058 22.0363
      vertex -21.5085 19.919 21.7363
      vertex -21.5085 19.919 22.0363
    endloop
  endfacet
  facet normal -0.863229 -0.504812 0
    outer loop
      vertex -20.47 14.3865 21.7363
      vertex -20.8169 14.9797 22.0363
      vertex -20.8169 14.9797 21.7363
    endloop
  endfacet
  facet normal -0.863229 -0.504812 0
    outer loop
      vertex -20.8169 14.9797 22.0363
      vertex -20.47 14.3865 21.7363
      vertex -20.47 14.3865 22.0363
    endloop
  endfacet
  facet normal -0.807405 -0.589998 0
    outer loop
      vertex -20.0689 13.8376 21.7363
      vertex -20.47 14.3865 22.0363
      vertex -20.47 14.3865 21.7363
    endloop
  endfacet
  facet normal -0.807405 -0.589998 0
    outer loop
      vertex -20.47 14.3865 22.0363
      vertex -20.0689 13.8376 21.7363
      vertex -20.0689 13.8376 22.0363
    endloop
  endfacet
  facet normal -0.129603 -0.991566 0
    outer loop
      vertex -15.7257 11.3698 21.7363
      vertex -14.9063 11.2627 22.0363
      vertex -15.7257 11.3698 22.0363
    endloop
  endfacet
  facet normal -0.129603 -0.991566 -0
    outer loop
      vertex -14.9063 11.2627 22.0363
      vertex -15.7257 11.3698 21.7363
      vertex -14.9063 11.2627 21.7363
    endloop
  endfacet
  facet normal 0.947272 0.32043 0
    outer loop
      vertex -6.73049 20.6058 22.0363
      vertex -6.95449 21.268 21.7363
      vertex -6.95449 21.268 22.0363
    endloop
  endfacet
  facet normal 0.947272 0.32043 0
    outer loop
      vertex -6.95449 21.268 21.7363
      vertex -6.73049 20.6058 22.0363
      vertex -6.73049 20.6058 21.7363
    endloop
  endfacet
  facet normal 0.91051 0.413488 0
    outer loop
      vertex -6.95449 21.268 22.0363
      vertex -7.24 21.8967 21.7363
      vertex -7.24 21.8967 22.0363
    endloop
  endfacet
  facet normal 0.91051 0.413488 0
    outer loop
      vertex -7.24 21.8967 21.7363
      vertex -6.95449 21.268 22.0363
      vertex -6.95449 21.268 21.7363
    endloop
  endfacet
  facet normal 0 0 1
    outer loop
      vertex 7.1415 32.016 21.5543
      vertex -20.5785 22.999 21.5543
      vertex 7.1415 22.999 21.5543
    endloop
  endfacet
  facet normal 0 -0 1
    outer loop
      vertex -20.5785 22.999 21.5543
      vertex 7.1415 32.016 21.5543
      vertex -33.9665 32.016 21.5543
    endloop
  endfacet
  facet normal 0 0 1
    outer loop
      vertex -20.5785 22.999 21.5543
      vertex -18.8939 2.67604 21.5543
      vertex -6.97814 2.67604 21.5543
    endloop
  endfacet
  facet normal -0 0 1
    outer loop
      vertex -34.0055 25.44 21.5543
      vertex -20.5785 22.999 21.5543
      vertex -33.9665 32.016 21.5543
    endloop
  endfacet
  facet normal 0 0 1
    outer loop
      vertex -20.5785 22.999 21.5543
      vertex -34.0055 25.44 21.5543
      vertex -18.8939 2.67604 21.5543
    endloop
  endfacet
  facet normal 0 0 -1
    outer loop
      vertex -18.8939 2.67604 21.2543
      vertex -20.5785 22.999 21.2543
      vertex -6.97814 2.67604 21.2543
    endloop
  endfacet
  facet normal 0 0 -1
    outer loop
      vertex -34.0055 25.44 21.2543
      vertex -20.5785 22.999 21.2543
      vertex -18.8939 2.67604 21.2543
    endloop
  endfacet
  facet normal 0 0 -1
    outer loop
      vertex -20.5785 22.999 21.2543
      vertex -34.0055 25.44 21.2543
      vertex -33.9665 32.016 21.2543
    endloop
  endfacet
  facet normal 0 0 -1
    outer loop
      vertex -20.5785 22.999 21.2543
      vertex 7.1415 32.016 21.2543
      vertex 7.1415 22.999 21.2543
    endloop
  endfacet
  facet normal -0 0 -1
    outer loop
      vertex 7.1415 32.016 21.2543
      vertex -20.5785 22.999 21.2543
      vertex -33.9665 32.016 21.2543
    endloop
  endfacet
  facet normal -0.999982 0.00593055 0
    outer loop
      vertex -34.0055 25.44 21.2543
      vertex -33.9665 32.016 21.5543
      vertex -33.9665 32.016 21.2543
    endloop
  endfacet
  facet normal -0.999982 0.00593055 0
    outer loop
      vertex -33.9665 32.016 21.5543
      vertex -34.0055 25.44 21.2543
      vertex -34.0055 25.44 21.5543
    endloop
  endfacet
  facet normal 0 1 -0
    outer loop
      vertex 7.1415 32.016 21.2543
      vertex -33.9665 32.016 21.5543
      vertex 7.1415 32.016 21.5543
    endloop
  endfacet
  facet normal 0 1 0
    outer loop
      vertex -33.9665 32.016 21.5543
      vertex 7.1415 32.016 21.2543
      vertex -33.9665 32.016 21.2543
    endloop
  endfacet
  facet normal 1 -0 0
    outer loop
      vertex 7.1415 22.999 21.5543
      vertex 7.1415 32.016 21.2543
      vertex 7.1415 32.016 21.5543
    endloop
  endfacet
  facet normal 1 0 0
    outer loop
      vertex 7.1415 32.016 21.2543
      vertex 7.1415 22.999 21.5543
      vertex 7.1415 22.999 21.2543
    endloop
  endfacet
  facet normal 0 -1 0
    outer loop
      vertex -20.5785 22.999 21.2543
      vertex 7.1415 22.999 21.5543
      vertex -20.5785 22.999 21.5543
    endloop
  endfacet
  facet normal 0 -1 -0
    outer loop
      vertex 7.1415 22.999 21.5543
      vertex -20.5785 22.999 21.2543
      vertex 7.1415 22.999 21.2543
    endloop
  endfacet
  facet normal 0.831073 0.556164 0
    outer loop
      vertex -6.97814 2.67604 21.5543
      vertex -20.5785 22.999 21.2543
      vertex -20.5785 22.999 21.5543
    endloop
  endfacet
  facet normal 0.831073 0.556164 0
    outer loop
      vertex -20.5785 22.999 21.2543
      vertex -6.97814 2.67604 21.5543
      vertex -6.97814 2.67604 21.2543
    endloop
  endfacet
  facet normal 0 -1 0
    outer loop
      vertex -18.8939 2.67604 21.2543
      vertex -6.97814 2.67604 21.5543
      vertex -18.8939 2.67604 21.5543
    endloop
  endfacet
  facet normal 0 -1 -0
    outer loop
      vertex -6.97814 2.67604 21.5543
      vertex -18.8939 2.67604 21.2543
      vertex -6.97814 2.67604 21.2543
    endloop
  endfacet
  facet normal -0.833136 -0.553068 0
    outer loop
      vertex -18.8939 2.67604 21.2543
      vertex -34.0055 25.44 21.5543
      vertex -34.0055 25.44 21.2543
    endloop
  endfacet
  facet normal -0.833136 -0.553068 0
    outer loop
      vertex -34.0055 25.44 21.5543
      vertex -18.8939 2.67604 21.2543
      vertex -18.8939 2.67604 21.5543
    endloop
  endfacet
endsolid OpenSCAD_Model
