solid OpenSCAD_Model
  facet normal 0.998991 -0.044904 0
    outer loop
      vertex -21.0905 0.611011 22.0261
      vertex -21.0865 0.7 21.7361
      vertex -21.0865 0.7 22.0261
    endloop
  endfacet
  facet normal 0.998991 -0.044904 0
    outer loop
      vertex -21.0865 0.7 21.7361
      vertex -21.0905 0.611011 22.0261
      vertex -21.0905 0.611011 21.7361
    endloop
  endfacet
  facet normal -0.224265 0.974528 0
    outer loop
      vertex -11.0326 -6.3128 21.7361
      vertex -11.808 -6.49124 22.0261
      vertex -11.0326 -6.3128 22.0261
    endloop
  endfacet
  facet normal -0.224265 0.974528 0
    outer loop
      vertex -11.808 -6.49124 22.0261
      vertex -11.0326 -6.3128 21.7361
      vertex -11.808 -6.49124 21.7361
    endloop
  endfacet
  facet normal -0.999056 -0.0434475 0
    outer loop
      vertex -5.8915 0.611011 21.7361
      vertex -5.89537 0.7 22.0261
      vertex -5.89537 0.7 21.7361
    endloop
  endfacet
  facet normal -0.999056 -0.0434475 0
    outer loop
      vertex -5.89537 0.7 22.0261
      vertex -5.8915 0.611011 21.7361
      vertex -5.8915 0.611011 22.0261
    endloop
  endfacet
  facet normal -0.999102 0.0423775 0
    outer loop
      vertex -5.9235 -0.143429 21.7361
      vertex -5.8915 0.611011 22.0261
      vertex -5.8915 0.611011 21.7361
    endloop
  endfacet
  facet normal -0.999102 0.0423775 0
    outer loop
      vertex -5.8915 0.611011 22.0261
      vertex -5.9235 -0.143429 21.7361
      vertex -5.9235 -0.143429 22.0261
    endloop
  endfacet
  facet normal -0.323348 0.94628 0
    outer loop
      vertex -10.3015 -6.06298 21.7361
      vertex -11.0326 -6.3128 22.0261
      vertex -10.3015 -6.06298 22.0261
    endloop
  endfacet
  facet normal -0.323348 0.94628 0
    outer loop
      vertex -11.0326 -6.3128 22.0261
      vertex -10.3015 -6.06298 21.7361
      vertex -11.0326 -6.3128 21.7361
    endloop
  endfacet
  facet normal 0 0 1
    outer loop
      vertex -5.89537 0.7 21.7361
      vertex -5.9235 -0.143429 21.7361
      vertex -5.8915 0.611011 21.7361
    endloop
  endfacet
  facet normal 0 0 1
    outer loop
      vertex -10.3015 -6.06298 21.7361
      vertex -5.9235 -0.143429 21.7361
      vertex -5.89537 0.7 21.7361
    endloop
  endfacet
  facet normal 0 0 1
    outer loop
      vertex -5.9235 -0.143429 21.7361
      vertex -10.3015 -6.06298 21.7361
      vertex -6.01949 -0.870739 21.7361
    endloop
  endfacet
  facet normal 0 0 1
    outer loop
      vertex -6.01949 -0.870739 21.7361
      vertex -9.62 -5.75331 21.7361
      vertex -6.1795 -1.57093 21.7361
    endloop
  endfacet
  facet normal 0 0 1
    outer loop
      vertex -6.1795 -1.57093 21.7361
      vertex -9.62 -5.75331 21.7361
      vertex -6.40349 -2.24398 21.7361
    endloop
  endfacet
  facet normal 0 0 1
    outer loop
      vertex -6.40349 -2.24398 21.7361
      vertex -8.9925 -5.39424 21.7361
      vertex -6.689 -2.88136 21.7361
    endloop
  endfacet
  facet normal 0 0 1
    outer loop
      vertex -6.689 -2.88136 21.7361
      vertex -7.437 -4.02337 21.7361
      vertex -7.0335 -3.4745 21.7361
    endloop
  endfacet
  facet normal 0 0 1
    outer loop
      vertex -6.689 -2.88136 21.7361
      vertex -7.8995 -4.528 21.7361
      vertex -7.437 -4.02337 21.7361
    endloop
  endfacet
  facet normal 0 0 1
    outer loop
      vertex -6.689 -2.88136 21.7361
      vertex -8.419 -4.98581 21.7361
      vertex -7.8995 -4.528 21.7361
    endloop
  endfacet
  facet normal 0 0 1
    outer loop
      vertex -6.689 -2.88136 21.7361
      vertex -8.9925 -5.39424 21.7361
      vertex -8.419 -4.98581 21.7361
    endloop
  endfacet
  facet normal 0 0 1
    outer loop
      vertex -6.40349 -2.24398 21.7361
      vertex -9.62 -5.75331 21.7361
      vertex -8.9925 -5.39424 21.7361
    endloop
  endfacet
  facet normal 0 0 1
    outer loop
      vertex -6.01949 -0.870739 21.7361
      vertex -10.3015 -6.06298 21.7361
      vertex -9.62 -5.75331 21.7361
    endloop
  endfacet
  facet normal 0 0 1
    outer loop
      vertex -5.89537 0.7 21.7361
      vertex -11.0326 -6.3128 21.7361
      vertex -10.3015 -6.06298 21.7361
    endloop
  endfacet
  facet normal 0 0 1
    outer loop
      vertex -5.89537 0.7 21.7361
      vertex -11.808 -6.49124 21.7361
      vertex -11.0326 -6.3128 21.7361
    endloop
  endfacet
  facet normal 0 0 1
    outer loop
      vertex -5.89537 0.7 21.7361
      vertex -12.6276 -6.59831 21.7361
      vertex -11.808 -6.49124 21.7361
    endloop
  endfacet
  facet normal 0 0 1
    outer loop
      vertex -5.89537 0.7 21.7361
      vertex -13.4915 -6.634 21.7361
      vertex -12.6276 -6.59831 21.7361
    endloop
  endfacet
  facet normal -0 0 1
    outer loop
      vertex -21.0865 0.7 21.7361
      vertex -13.4915 -6.634 21.7361
      vertex -5.89537 0.7 21.7361
    endloop
  endfacet
  facet normal 0 0 1
    outer loop
      vertex -13.4915 -6.634 21.7361
      vertex -21.0865 0.7 21.7361
      vertex -14.3553 -6.59831 21.7361
    endloop
  endfacet
  facet normal 0 0 1
    outer loop
      vertex -14.3553 -6.59831 21.7361
      vertex -21.0865 0.7 21.7361
      vertex -15.1747 -6.49124 21.7361
    endloop
  endfacet
  facet normal 0 0 1
    outer loop
      vertex -15.1747 -6.49124 21.7361
      vertex -21.0865 0.7 21.7361
      vertex -15.9498 -6.3128 21.7361
    endloop
  endfacet
  facet normal 0 0 1
    outer loop
      vertex -15.9498 -6.3128 21.7361
      vertex -21.0865 0.7 21.7361
      vertex -16.6805 -6.06298 21.7361
    endloop
  endfacet
  facet normal -0 -0 1
    outer loop
      vertex -21.0572 -0.143429 21.7361
      vertex -16.6805 -6.06298 21.7361
      vertex -21.0865 0.7 21.7361
    endloop
  endfacet
  facet normal 0 0 1
    outer loop
      vertex -16.6805 -6.06298 21.7361
      vertex -21.0572 -0.143429 21.7361
      vertex -17.3611 -5.75331 21.7361
    endloop
  endfacet
  facet normal -0 -0 1
    outer loop
      vertex -20.9575 -0.870739 21.7361
      vertex -17.3611 -5.75331 21.7361
      vertex -21.0572 -0.143429 21.7361
    endloop
  endfacet
  facet normal -0 -0 1
    outer loop
      vertex -20.7912 -1.57093 21.7361
      vertex -17.3611 -5.75331 21.7361
      vertex -20.9575 -0.870739 21.7361
    endloop
  endfacet
  facet normal 0 0 1
    outer loop
      vertex -17.985 -5.39424 21.7361
      vertex -20.7912 -1.57093 21.7361
      vertex -18.5521 -4.98581 21.7361
    endloop
  endfacet
  facet normal 0 0 1
    outer loop
      vertex -19.5179 -4.02337 21.7361
      vertex -20.2659 -2.88136 21.7361
      vertex -19.919 -3.4745 21.7361
    endloop
  endfacet
  facet normal 0 0 1
    outer loop
      vertex -19.5179 -4.02337 21.7361
      vertex -20.5585 -2.24398 21.7361
      vertex -20.2659 -2.88136 21.7361
    endloop
  endfacet
  facet normal 0 0 1
    outer loop
      vertex -19.5179 -4.02337 21.7361
      vertex -20.7912 -1.57093 21.7361
      vertex -20.5585 -2.24398 21.7361
    endloop
  endfacet
  facet normal 0 0 1
    outer loop
      vertex -19.0625 -4.528 21.7361
      vertex -20.7912 -1.57093 21.7361
      vertex -19.5179 -4.02337 21.7361
    endloop
  endfacet
  facet normal 0 0 1
    outer loop
      vertex -18.5521 -4.98581 21.7361
      vertex -20.7912 -1.57093 21.7361
      vertex -19.0625 -4.528 21.7361
    endloop
  endfacet
  facet normal 0 0 1
    outer loop
      vertex -17.3611 -5.75331 21.7361
      vertex -20.7912 -1.57093 21.7361
      vertex -17.985 -5.39424 21.7361
    endloop
  endfacet
  facet normal 0 0 1
    outer loop
      vertex -21.0572 -0.143429 21.7361
      vertex -21.0865 0.7 21.7361
      vertex -21.0905 0.611011 21.7361
    endloop
  endfacet
  facet normal -0.737211 0.675663 0
    outer loop
      vertex -7.8995 -4.528 21.7361
      vertex -7.437 -4.02337 22.0261
      vertex -7.437 -4.02337 21.7361
    endloop
  endfacet
  facet normal -0.737211 0.675663 0
    outer loop
      vertex -7.437 -4.02337 22.0261
      vertex -7.8995 -4.528 21.7361
      vertex -7.8995 -4.528 22.0261
    endloop
  endfacet
  facet normal 0.414142 0.910212 -0
    outer loop
      vertex -16.6805 -6.06298 21.7361
      vertex -17.3611 -5.75331 22.0261
      vertex -16.6805 -6.06298 22.0261
    endloop
  endfacet
  facet normal 0.414142 0.910212 0
    outer loop
      vertex -17.3611 -5.75331 22.0261
      vertex -16.6805 -6.06298 21.7361
      vertex -17.3611 -5.75331 21.7361
    endloop
  endfacet
  facet normal 0.908812 0.417206 0
    outer loop
      vertex -20.2659 -2.88136 22.0261
      vertex -20.5585 -2.24398 21.7361
      vertex -20.5585 -2.24398 22.0261
    endloop
  endfacet
  facet normal 0.908812 0.417206 0
    outer loop
      vertex -20.5585 -2.24398 21.7361
      vertex -20.2659 -2.88136 22.0261
      vertex -20.2659 -2.88136 21.7361
    endloop
  endfacet
  facet normal -0.974869 0.22278 0
    outer loop
      vertex -6.1795 -1.57093 21.7361
      vertex -6.01949 -0.870739 22.0261
      vertex -6.01949 -0.870739 21.7361
    endloop
  endfacet
  facet normal -0.974869 0.22278 0
    outer loop
      vertex -6.01949 -0.870739 22.0261
      vertex -6.1795 -1.57093 21.7361
      vertex -6.1795 -1.57093 22.0261
    endloop
  endfacet
  facet normal -0.864728 0.50224 0
    outer loop
      vertex -7.0335 -3.4745 21.7361
      vertex -6.689 -2.88136 22.0261
      vertex -6.689 -2.88136 21.7361
    endloop
  endfacet
  facet normal -0.864728 0.50224 0
    outer loop
      vertex -6.689 -2.88136 22.0261
      vertex -7.0335 -3.4745 21.7361
      vertex -7.0335 -3.4745 22.0261
    endloop
  endfacet
  facet normal -0.805708 0.592313 0
    outer loop
      vertex -7.437 -4.02337 21.7361
      vertex -7.0335 -3.4745 22.0261
      vertex -7.0335 -3.4745 21.7361
    endloop
  endfacet
  facet normal -0.805708 0.592313 0
    outer loop
      vertex -7.0335 -3.4745 22.0261
      vertex -7.437 -4.02337 21.7361
      vertex -7.437 -4.02337 22.0261
    endloop
  endfacet
  facet normal -0.413689 0.910418 0
    outer loop
      vertex -9.62 -5.75331 21.7361
      vertex -10.3015 -6.06298 22.0261
      vertex -9.62 -5.75331 22.0261
    endloop
  endfacet
  facet normal -0.413689 0.910418 0
    outer loop
      vertex -10.3015 -6.06298 22.0261
      vertex -9.62 -5.75331 21.7361
      vertex -10.3015 -6.06298 21.7361
    endloop
  endfacet
  facet normal 0.584416 0.811454 -0
    outer loop
      vertex -17.985 -5.39424 21.7361
      vertex -18.5521 -4.98581 22.0261
      vertex -17.985 -5.39424 22.0261
    endloop
  endfacet
  facet normal 0.584416 0.811454 0
    outer loop
      vertex -18.5521 -4.98581 22.0261
      vertex -17.985 -5.39424 21.7361
      vertex -18.5521 -4.98581 21.7361
    endloop
  endfacet
  facet normal -0.129536 0.991575 0
    outer loop
      vertex -11.808 -6.49124 21.7361
      vertex -12.6276 -6.59831 22.0261
      vertex -11.808 -6.49124 22.0261
    endloop
  endfacet
  facet normal -0.129536 0.991575 0
    outer loop
      vertex -12.6276 -6.59831 22.0261
      vertex -11.808 -6.49124 21.7361
      vertex -12.6276 -6.59831 21.7361
    endloop
  endfacet
  facet normal 0.224347 0.974509 -0
    outer loop
      vertex -15.1747 -6.49124 21.7361
      vertex -15.9498 -6.3128 22.0261
      vertex -15.1747 -6.49124 22.0261
    endloop
  endfacet
  facet normal 0.224347 0.974509 0
    outer loop
      vertex -15.9498 -6.3128 22.0261
      vertex -15.1747 -6.49124 21.7361
      vertex -15.9498 -6.3128 21.7361
    endloop
  endfacet
  facet normal -0.991403 0.130845 0
    outer loop
      vertex -6.01949 -0.870739 21.7361
      vertex -5.9235 -0.143429 22.0261
      vertex -5.9235 -0.143429 21.7361
    endloop
  endfacet
  facet normal -0.991403 0.130845 0
    outer loop
      vertex -5.9235 -0.143429 22.0261
      vertex -6.01949 -0.870739 21.7361
      vertex -6.01949 -0.870739 22.0261
    endloop
  endfacet
  facet normal 0.498813 0.86671 -0
    outer loop
      vertex -17.3611 -5.75331 21.7361
      vertex -17.985 -5.39424 22.0261
      vertex -17.3611 -5.75331 22.0261
    endloop
  endfacet
  facet normal 0.498813 0.86671 0
    outer loop
      vertex -17.985 -5.39424 22.0261
      vertex -17.3611 -5.75331 21.7361
      vertex -17.985 -5.39424 21.7361
    endloop
  endfacet
  facet normal -0.661157 0.750248 0
    outer loop
      vertex -7.8995 -4.528 21.7361
      vertex -8.419 -4.98581 22.0261
      vertex -7.8995 -4.528 22.0261
    endloop
  endfacet
  facet normal -0.661157 0.750248 0
    outer loop
      vertex -8.419 -4.98581 22.0261
      vertex -7.8995 -4.528 21.7361
      vertex -8.419 -4.98581 21.7361
    endloop
  endfacet
  facet normal 0.742392 0.669966 0
    outer loop
      vertex -19.0625 -4.528 22.0261
      vertex -19.5179 -4.02337 21.7361
      vertex -19.5179 -4.02337 22.0261
    endloop
  endfacet
  facet normal 0.742392 0.669966 0
    outer loop
      vertex -19.5179 -4.02337 21.7361
      vertex -19.0625 -4.528 22.0261
      vertex -19.0625 -4.528 21.7361
    endloop
  endfacet
  facet normal 0.863207 0.50485 0
    outer loop
      vertex -19.919 -3.4745 22.0261
      vertex -20.2659 -2.88136 21.7361
      vertex -20.2659 -2.88136 22.0261
    endloop
  endfacet
  facet normal 0.863207 0.50485 0
    outer loop
      vertex -20.2659 -2.88136 21.7361
      vertex -19.919 -3.4745 22.0261
      vertex -19.919 -3.4745 21.7361
    endloop
  endfacet
  facet normal -0.912623 0.408803 0
    outer loop
      vertex -6.689 -2.88136 21.7361
      vertex -6.40349 -2.24398 22.0261
      vertex -6.40349 -2.24398 21.7361
    endloop
  endfacet
  facet normal -0.912623 0.408803 0
    outer loop
      vertex -6.40349 -2.24398 22.0261
      vertex -6.689 -2.88136 21.7361
      vertex -6.689 -2.88136 22.0261
    endloop
  endfacet
  facet normal 0.667715 0.744417 -0
    outer loop
      vertex -18.5521 -4.98581 21.7361
      vertex -19.0625 -4.528 22.0261
      vertex -18.5521 -4.98581 22.0261
    endloop
  endfacet
  facet normal 0.667715 0.744417 0
    outer loop
      vertex -19.0625 -4.528 22.0261
      vertex -18.5521 -4.98581 21.7361
      vertex -19.0625 -4.528 21.7361
    endloop
  endfacet
  facet normal -0.948835 0.315771 0
    outer loop
      vertex -6.40349 -2.24398 21.7361
      vertex -6.1795 -1.57093 22.0261
      vertex -6.1795 -1.57093 21.7361
    endloop
  endfacet
  facet normal -0.948835 0.315771 0
    outer loop
      vertex -6.1795 -1.57093 22.0261
      vertex -6.40349 -2.24398 21.7361
      vertex -6.40349 -2.24398 22.0261
    endloop
  endfacet
  facet normal -0.580097 0.814547 0
    outer loop
      vertex -8.419 -4.98581 21.7361
      vertex -8.9925 -5.39424 22.0261
      vertex -8.419 -4.98581 22.0261
    endloop
  endfacet
  facet normal -0.580097 0.814547 0
    outer loop
      vertex -8.9925 -5.39424 22.0261
      vertex -8.419 -4.98581 21.7361
      vertex -8.9925 -5.39424 21.7361
    endloop
  endfacet
  facet normal 0.323506 0.946226 -0
    outer loop
      vertex -15.9498 -6.3128 21.7361
      vertex -16.6805 -6.06298 22.0261
      vertex -15.9498 -6.3128 22.0261
    endloop
  endfacet
  facet normal 0.323506 0.946226 0
    outer loop
      vertex -16.6805 -6.06298 22.0261
      vertex -15.9498 -6.3128 21.7361
      vertex -16.6805 -6.06298 21.7361
    endloop
  endfacet
  facet normal 0.0412822 0.999148 -0
    outer loop
      vertex -13.4915 -6.634 21.7361
      vertex -14.3553 -6.59831 22.0261
      vertex -13.4915 -6.634 22.0261
    endloop
  endfacet
  facet normal 0.0412822 0.999148 0
    outer loop
      vertex -14.3553 -6.59831 22.0261
      vertex -13.4915 -6.634 21.7361
      vertex -14.3553 -6.59831 21.7361
    endloop
  endfacet
  facet normal -0.0412774 0.999148 0
    outer loop
      vertex -12.6276 -6.59831 21.7361
      vertex -13.4915 -6.634 22.0261
      vertex -12.6276 -6.59831 22.0261
    endloop
  endfacet
  facet normal -0.0412774 0.999148 0
    outer loop
      vertex -13.4915 -6.634 22.0261
      vertex -12.6276 -6.59831 21.7361
      vertex -13.4915 -6.634 21.7361
    endloop
  endfacet
  facet normal 0.129567 0.991571 -0
    outer loop
      vertex -14.3553 -6.59831 21.7361
      vertex -15.1747 -6.49124 22.0261
      vertex -14.3553 -6.59831 22.0261
    endloop
  endfacet
  facet normal 0.129567 0.991571 0
    outer loop
      vertex -15.1747 -6.49124 22.0261
      vertex -14.3553 -6.59831 21.7361
      vertex -15.1747 -6.49124 21.7361
    endloop
  endfacet
  facet normal -0.496659 0.867946 0
    outer loop
      vertex -8.9925 -5.39424 21.7361
      vertex -9.62 -5.75331 22.0261
      vertex -8.9925 -5.39424 22.0261
    endloop
  endfacet
  facet normal -0.496659 0.867946 0
    outer loop
      vertex -9.62 -5.75331 22.0261
      vertex -8.9925 -5.39424 21.7361
      vertex -9.62 -5.75331 21.7361
    endloop
  endfacet
  facet normal 0.945107 0.326761 0
    outer loop
      vertex -20.5585 -2.24398 22.0261
      vertex -20.7912 -1.57093 21.7361
      vertex -20.7912 -1.57093 22.0261
    endloop
  endfacet
  facet normal 0.945107 0.326761 0
    outer loop
      vertex -20.7912 -1.57093 21.7361
      vertex -20.5585 -2.24398 22.0261
      vertex -20.5585 -2.24398 21.7361
    endloop
  endfacet
  facet normal 0.807389 0.590019 0
    outer loop
      vertex -19.5179 -4.02337 22.0261
      vertex -19.919 -3.4745 21.7361
      vertex -19.919 -3.4745 22.0261
    endloop
  endfacet
  facet normal 0.807389 0.590019 0
    outer loop
      vertex -19.919 -3.4745 21.7361
      vertex -19.5179 -4.02337 22.0261
      vertex -19.5179 -4.02337 21.7361
    endloop
  endfacet
  facet normal 0.972935 0.231079 0
    outer loop
      vertex -20.7912 -1.57093 22.0261
      vertex -20.9575 -0.870739 21.7361
      vertex -20.9575 -0.870739 22.0261
    endloop
  endfacet
  facet normal 0.972935 0.231079 0
    outer loop
      vertex -20.9575 -0.870739 21.7361
      vertex -20.7912 -1.57093 22.0261
      vertex -20.7912 -1.57093 21.7361
    endloop
  endfacet
  facet normal 0.990735 0.13581 0
    outer loop
      vertex -20.9575 -0.870739 22.0261
      vertex -21.0572 -0.143429 21.7361
      vertex -21.0572 -0.143429 22.0261
    endloop
  endfacet
  facet normal 0.990735 0.13581 0
    outer loop
      vertex -21.0572 -0.143429 21.7361
      vertex -20.9575 -0.870739 22.0261
      vertex -20.9575 -0.870739 21.7361
    endloop
  endfacet
  facet normal 0.999027 0.0440958 0
    outer loop
      vertex -21.0572 -0.143429 22.0261
      vertex -21.0905 0.611011 21.7361
      vertex -21.0905 0.611011 22.0261
    endloop
  endfacet
  facet normal 0.999027 0.0440958 0
    outer loop
      vertex -21.0905 0.611011 21.7361
      vertex -21.0572 -0.143429 22.0261
      vertex -21.0572 -0.143429 21.7361
    endloop
  endfacet
  facet normal 0 0 1
    outer loop
      vertex -36.9 -0.699993 22.0261
      vertex -21.0905 0.611011 22.0261
      vertex -21.0865 0.7 22.0261
    endloop
  endfacet
  facet normal 0 0 1
    outer loop
      vertex -21.0905 0.611011 22.0261
      vertex -36.9 -0.699993 22.0261
      vertex -36.9 -11.1717 22.0261
    endloop
  endfacet
  facet normal -0 0 1
    outer loop
      vertex -39.9 0.7 22.0261
      vertex -36.9 -0.699993 22.0261
      vertex -21.0865 0.7 22.0261
    endloop
  endfacet
  facet normal 0 0 1
    outer loop
      vertex -36.9 -0.699993 22.0261
      vertex -39.9 0.7 22.0261
      vertex -39.9 -0.699993 22.0261
    endloop
  endfacet
  facet normal 0 0 1
    outer loop
      vertex 14.1 0.7 22.0261
      vertex 11.1 -0.699993 22.0261
      vertex 14.1 -0.699993 22.0261
    endloop
  endfacet
  facet normal -0 0 1
    outer loop
      vertex -6.40349 -2.24398 22.0261
      vertex 11.1 -11.1717 22.0261
      vertex 11.1 -0.699993 22.0261
    endloop
  endfacet
  facet normal -0 0 1
    outer loop
      vertex -5.9235 -0.143429 22.0261
      vertex 11.1 -0.699993 22.0261
      vertex -5.8915 0.611011 22.0261
    endloop
  endfacet
  facet normal -0 0 1
    outer loop
      vertex -5.89537 0.7 22.0261
      vertex 11.1 -0.699993 22.0261
      vertex 14.1 0.7 22.0261
    endloop
  endfacet
  facet normal 0 0 1
    outer loop
      vertex 11.1 -0.699993 22.0261
      vertex -5.89537 0.7 22.0261
      vertex -5.8915 0.611011 22.0261
    endloop
  endfacet
  facet normal 0 0 1
    outer loop
      vertex 14.1 -11.1717 22.0261
      vertex 14.0992 -39.21 22.0261
      vertex 14.1 -39.21 22.0261
    endloop
  endfacet
  facet normal -0 0 1
    outer loop
      vertex 11.1 -11.1717 22.0261
      vertex 14.0992 -39.21 22.0261
      vertex 14.1 -11.1717 22.0261
    endloop
  endfacet
  facet normal 0 0 1
    outer loop
      vertex 11 -42.3 22.0261
      vertex 14.0992 -39.21 22.0261
      vertex 11.1 -11.1717 22.0261
    endloop
  endfacet
  facet normal 0 0 1
    outer loop
      vertex 14.0992 -39.21 22.0261
      vertex 11 -42.3 22.0261
      vertex 14.0618 -39.6849 22.0261
    endloop
  endfacet
  facet normal 0 0 1
    outer loop
      vertex 14.0618 -39.6849 22.0261
      vertex 11 -42.3 22.0261
      vertex 13.9483 -40.1579 22.0261
    endloop
  endfacet
  facet normal 0 0 1
    outer loop
      vertex 13.9483 -40.1579 22.0261
      vertex 11 -42.3 22.0261
      vertex 13.7621 -40.6074 22.0261
    endloop
  endfacet
  facet normal 0 0 1
    outer loop
      vertex 13.7621 -40.6074 22.0261
      vertex 11 -42.3 22.0261
      vertex 13.5079 -41.0221 22.0261
    endloop
  endfacet
  facet normal 0 0 1
    outer loop
      vertex 13.5079 -41.0221 22.0261
      vertex 11 -42.3 22.0261
      vertex 13.192 -41.392 22.0261
    endloop
  endfacet
  facet normal 0 0 1
    outer loop
      vertex 13.192 -41.392 22.0261
      vertex 11 -42.3 22.0261
      vertex 12.8221 -41.7079 22.0261
    endloop
  endfacet
  facet normal 0 0 1
    outer loop
      vertex 12.8221 -41.7079 22.0261
      vertex 11 -42.3 22.0261
      vertex 12.4074 -41.9621 22.0261
    endloop
  endfacet
  facet normal 0 0 1
    outer loop
      vertex 12.4074 -41.9621 22.0261
      vertex 11 -42.3 22.0261
      vertex 11.9579 -42.1483 22.0261
    endloop
  endfacet
  facet normal 0 0 1
    outer loop
      vertex 11.9579 -42.1483 22.0261
      vertex 11 -42.3 22.0261
      vertex 11.4849 -42.2618 22.0261
    endloop
  endfacet
  facet normal 0 0 1
    outer loop
      vertex -6.01949 -0.870739 22.0261
      vertex 11.1 -0.699993 22.0261
      vertex -5.9235 -0.143429 22.0261
    endloop
  endfacet
  facet normal 0 0 1
    outer loop
      vertex -6.1795 -1.57093 22.0261
      vertex 11.1 -0.699993 22.0261
      vertex -6.01949 -0.870739 22.0261
    endloop
  endfacet
  facet normal 0 0 1
    outer loop
      vertex -6.40349 -2.24398 22.0261
      vertex 11.1 -0.699993 22.0261
      vertex -6.1795 -1.57093 22.0261
    endloop
  endfacet
  facet normal 0 0 1
    outer loop
      vertex 11.1 -11.1717 22.0261
      vertex -6.40349 -2.24398 22.0261
      vertex -6.689 -2.88136 22.0261
    endloop
  endfacet
  facet normal 0 0 1
    outer loop
      vertex 11.1 -11.1717 22.0261
      vertex -6.689 -2.88136 22.0261
      vertex -7.0335 -3.4745 22.0261
    endloop
  endfacet
  facet normal 0 0 1
    outer loop
      vertex 11.1 -11.1717 22.0261
      vertex -7.0335 -3.4745 22.0261
      vertex -7.437 -4.02337 22.0261
    endloop
  endfacet
  facet normal 0 0 1
    outer loop
      vertex 11.1 -11.1717 22.0261
      vertex -7.437 -4.02337 22.0261
      vertex -7.8995 -4.528 22.0261
    endloop
  endfacet
  facet normal 0 0 1
    outer loop
      vertex 11.1 -11.1717 22.0261
      vertex -7.8995 -4.528 22.0261
      vertex -8.419 -4.98581 22.0261
    endloop
  endfacet
  facet normal -0 0 1
    outer loop
      vertex -8.9925 -5.39424 22.0261
      vertex 11.1 -11.1717 22.0261
      vertex -8.419 -4.98581 22.0261
    endloop
  endfacet
  facet normal -0 0 1
    outer loop
      vertex -9.62 -5.75331 22.0261
      vertex 11.1 -11.1717 22.0261
      vertex -8.9925 -5.39424 22.0261
    endloop
  endfacet
  facet normal -0 0 1
    outer loop
      vertex -10.3015 -6.06298 22.0261
      vertex 11.1 -11.1717 22.0261
      vertex -9.62 -5.75331 22.0261
    endloop
  endfacet
  facet normal -0 0 1
    outer loop
      vertex -11.0326 -6.3128 22.0261
      vertex 11.1 -11.1717 22.0261
      vertex -10.3015 -6.06298 22.0261
    endloop
  endfacet
  facet normal 0 0 1
    outer loop
      vertex 11.1 -11.1717 22.0261
      vertex -11.0326 -6.3128 22.0261
      vertex 11 -42.3 22.0261
    endloop
  endfacet
  facet normal -0 0 1
    outer loop
      vertex -11.808 -6.49124 22.0261
      vertex 11 -42.3 22.0261
      vertex -11.0326 -6.3128 22.0261
    endloop
  endfacet
  facet normal -0 0 1
    outer loop
      vertex -12.6276 -6.59831 22.0261
      vertex 11 -42.3 22.0261
      vertex -11.808 -6.49124 22.0261
    endloop
  endfacet
  facet normal -0 0 1
    outer loop
      vertex -13.4915 -6.634 22.0261
      vertex 11 -42.3 22.0261
      vertex -12.6276 -6.59831 22.0261
    endloop
  endfacet
  facet normal 0 0 1
    outer loop
      vertex -36.8 -42.3 22.0261
      vertex -13.4915 -6.634 22.0261
      vertex -14.3553 -6.59831 22.0261
    endloop
  endfacet
  facet normal 0 0 1
    outer loop
      vertex -36.8 -42.3 22.0261
      vertex -14.3553 -6.59831 22.0261
      vertex -15.1747 -6.49124 22.0261
    endloop
  endfacet
  facet normal 0 0 1
    outer loop
      vertex -36.8 -42.3 22.0261
      vertex -15.1747 -6.49124 22.0261
      vertex -15.9498 -6.3128 22.0261
    endloop
  endfacet
  facet normal 0 0 1
    outer loop
      vertex -36.8 -42.3 22.0261
      vertex -15.9498 -6.3128 22.0261
      vertex -16.6805 -6.06298 22.0261
    endloop
  endfacet
  facet normal 0 0 1
    outer loop
      vertex -36.8 -42.3 22.0261
      vertex -16.6805 -6.06298 22.0261
      vertex -17.3611 -5.75331 22.0261
    endloop
  endfacet
  facet normal 0 0 1
    outer loop
      vertex -36.8 -42.3 22.0261
      vertex -17.3611 -5.75331 22.0261
      vertex -17.985 -5.39424 22.0261
    endloop
  endfacet
  facet normal 0 0 1
    outer loop
      vertex -36.8 -42.3 22.0261
      vertex -17.985 -5.39424 22.0261
      vertex -18.5521 -4.98581 22.0261
    endloop
  endfacet
  facet normal 0 0 1
    outer loop
      vertex -36.8 -42.3 22.0261
      vertex -18.5521 -4.98581 22.0261
      vertex -19.0625 -4.528 22.0261
    endloop
  endfacet
  facet normal 0 0 1
    outer loop
      vertex -36.8 -42.3 22.0261
      vertex -19.0625 -4.528 22.0261
      vertex -19.5179 -4.02337 22.0261
    endloop
  endfacet
  facet normal 0 0 1
    outer loop
      vertex -13.4915 -6.634 22.0261
      vertex -36.8 -42.3 22.0261
      vertex 11 -42.3 22.0261
    endloop
  endfacet
  facet normal 0 0 1
    outer loop
      vertex -19.919 -3.4745 22.0261
      vertex -36.8 -42.3 22.0261
      vertex -19.5179 -4.02337 22.0261
    endloop
  endfacet
  facet normal 0 0 1
    outer loop
      vertex -20.2659 -2.88136 22.0261
      vertex -36.8 -42.3 22.0261
      vertex -19.919 -3.4745 22.0261
    endloop
  endfacet
  facet normal 0 0 1
    outer loop
      vertex -20.5585 -2.24398 22.0261
      vertex -36.8 -42.3 22.0261
      vertex -20.2659 -2.88136 22.0261
    endloop
  endfacet
  facet normal 0 0 1
    outer loop
      vertex -20.7912 -1.57093 22.0261
      vertex -36.8 -42.3 22.0261
      vertex -20.5585 -2.24398 22.0261
    endloop
  endfacet
  facet normal 0 0 1
    outer loop
      vertex -20.9575 -0.870739 22.0261
      vertex -36.8 -42.3 22.0261
      vertex -20.7912 -1.57093 22.0261
    endloop
  endfacet
  facet normal 0 0 1
    outer loop
      vertex -21.0572 -0.143429 22.0261
      vertex -36.8 -42.3 22.0261
      vertex -20.9575 -0.870739 22.0261
    endloop
  endfacet
  facet normal 0 0 1
    outer loop
      vertex -36.8 -42.3 22.0261
      vertex -21.0572 -0.143429 22.0261
      vertex -21.0905 0.611011 22.0261
    endloop
  endfacet
  facet normal 0 0 1
    outer loop
      vertex -21.0905 0.611011 22.0261
      vertex -36.9 -11.1717 22.0261
      vertex -36.8 -42.3 22.0261
    endloop
  endfacet
  facet normal -0 0 1
    outer loop
      vertex -39.8992 -39.21 22.0261
      vertex -36.8 -42.3 22.0261
      vertex -36.9 -11.1717 22.0261
    endloop
  endfacet
  facet normal 0 0 1
    outer loop
      vertex -36.8 -42.3 22.0261
      vertex -39.8992 -39.21 22.0261
      vertex -37.285 -42.2618 22.0261
    endloop
  endfacet
  facet normal 0 0 1
    outer loop
      vertex -37.285 -42.2618 22.0261
      vertex -39.8992 -39.21 22.0261
      vertex -37.758 -42.1483 22.0261
    endloop
  endfacet
  facet normal 0 0 1
    outer loop
      vertex -37.758 -42.1483 22.0261
      vertex -39.8992 -39.21 22.0261
      vertex -38.2074 -41.9621 22.0261
    endloop
  endfacet
  facet normal 0 0 1
    outer loop
      vertex -38.2074 -41.9621 22.0261
      vertex -39.8992 -39.21 22.0261
      vertex -38.6221 -41.7079 22.0261
    endloop
  endfacet
  facet normal 0 0 1
    outer loop
      vertex -38.6221 -41.7079 22.0261
      vertex -39.8992 -39.21 22.0261
      vertex -38.992 -41.392 22.0261
    endloop
  endfacet
  facet normal 0 0 1
    outer loop
      vertex -38.992 -41.392 22.0261
      vertex -39.8992 -39.21 22.0261
      vertex -39.308 -41.0221 22.0261
    endloop
  endfacet
  facet normal 0 0 1
    outer loop
      vertex -39.308 -41.0221 22.0261
      vertex -39.8992 -39.21 22.0261
      vertex -39.5621 -40.6074 22.0261
    endloop
  endfacet
  facet normal 0 0 1
    outer loop
      vertex -39.5621 -40.6074 22.0261
      vertex -39.8992 -39.21 22.0261
      vertex -39.7483 -40.1579 22.0261
    endloop
  endfacet
  facet normal 0 0 1
    outer loop
      vertex -39.7483 -40.1579 22.0261
      vertex -39.8992 -39.21 22.0261
      vertex -39.8618 -39.6849 22.0261
    endloop
  endfacet
  facet normal -0 0 1
    outer loop
      vertex -39.9 -11.1717 22.0261
      vertex -39.8992 -39.21 22.0261
      vertex -36.9 -11.1717 22.0261
    endloop
  endfacet
  facet normal 0 0 1
    outer loop
      vertex -39.8992 -39.21 22.0261
      vertex -39.9 -11.1717 22.0261
      vertex -39.9 -39.21 22.0261
    endloop
  endfacet
  facet normal 0 0 -1
    outer loop
      vertex 14.0992 -39.21 21.2641
      vertex 14.1 -11.1717 21.2641
      vertex 14.1 -39.21 21.2641
    endloop
  endfacet
  facet normal 0 0 -1
    outer loop
      vertex 11 -42.3 21.2641
      vertex 14.0992 -39.21 21.2641
      vertex 14.0618 -39.6849 21.2641
    endloop
  endfacet
  facet normal 0 0 -1
    outer loop
      vertex 11 -42.3 21.2641
      vertex 14.0618 -39.6849 21.2641
      vertex 13.9483 -40.1579 21.2641
    endloop
  endfacet
  facet normal 0 0 -1
    outer loop
      vertex 11 -42.3 21.2641
      vertex 13.9483 -40.1579 21.2641
      vertex 13.7621 -40.6074 21.2641
    endloop
  endfacet
  facet normal 0 0 -1
    outer loop
      vertex 11 -42.3 21.2641
      vertex 13.7621 -40.6074 21.2641
      vertex 13.5079 -41.0221 21.2641
    endloop
  endfacet
  facet normal 0 0 -1
    outer loop
      vertex 11 -42.3 21.2641
      vertex 13.5079 -41.0221 21.2641
      vertex 13.192 -41.392 21.2641
    endloop
  endfacet
  facet normal 0 0 -1
    outer loop
      vertex 11 -42.3 21.2641
      vertex 13.192 -41.392 21.2641
      vertex 12.8221 -41.7079 21.2641
    endloop
  endfacet
  facet normal 0 0 -1
    outer loop
      vertex 11 -42.3 21.2641
      vertex 12.8221 -41.7079 21.2641
      vertex 12.4074 -41.9621 21.2641
    endloop
  endfacet
  facet normal 0 0 -1
    outer loop
      vertex 11 -42.3 21.2641
      vertex 12.4074 -41.9621 21.2641
      vertex 11.9579 -42.1483 21.2641
    endloop
  endfacet
  facet normal 0 0 -1
    outer loop
      vertex 11 -42.3 21.2641
      vertex 11.9579 -42.1483 21.2641
      vertex 11.4849 -42.2618 21.2641
    endloop
  endfacet
  facet normal 0 0 -1
    outer loop
      vertex 14.0992 -39.21 21.2641
      vertex 11.1 -11.1717 21.2641
      vertex 14.1 -11.1717 21.2641
    endloop
  endfacet
  facet normal 0 0 -1
    outer loop
      vertex -36.9 -11.1717 21.2641
      vertex 11.1 -11.1717 21.2641
      vertex 11 -42.3 21.2641
    endloop
  endfacet
  facet normal -0 0 -1
    outer loop
      vertex 14.0992 -39.21 21.2641
      vertex 11 -42.3 21.2641
      vertex 11.1 -11.1717 21.2641
    endloop
  endfacet
  facet normal 0 0 -1
    outer loop
      vertex 11.1 -0.699993 21.2641
      vertex 14.1 0.7 21.2641
      vertex 14.1 -0.699993 21.2641
    endloop
  endfacet
  facet normal 0 0 -1
    outer loop
      vertex -36.9 -11.1717 21.2641
      vertex 11 -42.3 21.2641
      vertex -36.8 -42.3 21.2641
    endloop
  endfacet
  facet normal 0 0 -1
    outer loop
      vertex 11.1 -11.1717 21.2641
      vertex -36.9 -11.1717 21.2641
      vertex 11.1 -0.699993 21.2641
    endloop
  endfacet
  facet normal 0 0 -1
    outer loop
      vertex -36.9 -0.699993 21.2641
      vertex 11.1 -0.699993 21.2641
      vertex -36.9 -11.1717 21.2641
    endloop
  endfacet
  facet normal 0 0 -1
    outer loop
      vertex 11.1 -0.699993 21.2641
      vertex -36.9 -0.699993 21.2641
      vertex 14.1 0.7 21.2641
    endloop
  endfacet
  facet normal 0 0 -1
    outer loop
      vertex -39.9 0.7 21.2641
      vertex -36.9 -0.699993 21.2641
      vertex -39.9 -0.699993 21.2641
    endloop
  endfacet
  facet normal 0 0 -1
    outer loop
      vertex -36.9 -0.699993 21.2641
      vertex -39.9 0.7 21.2641
      vertex 14.1 0.7 21.2641
    endloop
  endfacet
  facet normal 0 0 -1
    outer loop
      vertex -39.8992 -39.21 21.2641
      vertex -36.8 -42.3 21.2641
      vertex -37.285 -42.2618 21.2641
    endloop
  endfacet
  facet normal 0 0 -1
    outer loop
      vertex -39.8992 -39.21 21.2641
      vertex -37.285 -42.2618 21.2641
      vertex -37.758 -42.1483 21.2641
    endloop
  endfacet
  facet normal 0 0 -1
    outer loop
      vertex -39.8992 -39.21 21.2641
      vertex -37.758 -42.1483 21.2641
      vertex -38.2074 -41.9621 21.2641
    endloop
  endfacet
  facet normal 0 0 -1
    outer loop
      vertex -39.8992 -39.21 21.2641
      vertex -38.2074 -41.9621 21.2641
      vertex -38.6221 -41.7079 21.2641
    endloop
  endfacet
  facet normal 0 0 -1
    outer loop
      vertex -39.8992 -39.21 21.2641
      vertex -38.6221 -41.7079 21.2641
      vertex -38.992 -41.392 21.2641
    endloop
  endfacet
  facet normal 0 0 -1
    outer loop
      vertex -39.8992 -39.21 21.2641
      vertex -38.992 -41.392 21.2641
      vertex -39.308 -41.0221 21.2641
    endloop
  endfacet
  facet normal 0 0 -1
    outer loop
      vertex -39.8992 -39.21 21.2641
      vertex -39.308 -41.0221 21.2641
      vertex -39.5621 -40.6074 21.2641
    endloop
  endfacet
  facet normal 0 0 -1
    outer loop
      vertex -39.8992 -39.21 21.2641
      vertex -39.5621 -40.6074 21.2641
      vertex -39.7483 -40.1579 21.2641
    endloop
  endfacet
  facet normal 0 0 -1
    outer loop
      vertex -39.8992 -39.21 21.2641
      vertex -39.7483 -40.1579 21.2641
      vertex -39.8618 -39.6849 21.2641
    endloop
  endfacet
  facet normal 0 0 -1
    outer loop
      vertex -36.8 -42.3 21.2641
      vertex -39.8992 -39.21 21.2641
      vertex -36.9 -11.1717 21.2641
    endloop
  endfacet
  facet normal 0 0 -1
    outer loop
      vertex -39.9 -11.1717 21.2641
      vertex -39.8992 -39.21 21.2641
      vertex -39.9 -39.21 21.2641
    endloop
  endfacet
  facet normal 0 0 -1
    outer loop
      vertex -39.8992 -39.21 21.2641
      vertex -39.9 -11.1717 21.2641
      vertex -36.9 -11.1717 21.2641
    endloop
  endfacet
  facet normal 0 -1 0
    outer loop
      vertex 11.1 -0.699993 21.2641
      vertex 14.1 -0.699993 22.0261
      vertex 11.1 -0.699993 22.0261
    endloop
  endfacet
  facet normal 0 -1 -0
    outer loop
      vertex 14.1 -0.699993 22.0261
      vertex 11.1 -0.699993 21.2641
      vertex 14.1 -0.699993 21.2641
    endloop
  endfacet
  facet normal 1 -0 0
    outer loop
      vertex 11.1 -11.1717 22.0261
      vertex 11.1 -0.699993 21.2641
      vertex 11.1 -0.699993 22.0261
    endloop
  endfacet
  facet normal 1 0 0
    outer loop
      vertex 11.1 -0.699993 21.2641
      vertex 11.1 -11.1717 22.0261
      vertex 11.1 -11.1717 21.2641
    endloop
  endfacet
  facet normal 0 1 -0
    outer loop
      vertex 14.1 -11.1717 21.2641
      vertex 11.1 -11.1717 22.0261
      vertex 14.1 -11.1717 22.0261
    endloop
  endfacet
  facet normal 0 1 0
    outer loop
      vertex 11.1 -11.1717 22.0261
      vertex 14.1 -11.1717 21.2641
      vertex 11.1 -11.1717 21.2641
    endloop
  endfacet
  facet normal 1 -0 0
    outer loop
      vertex 14.1 -39.21 22.0261
      vertex 14.1 -11.1717 21.2641
      vertex 14.1 -11.1717 22.0261
    endloop
  endfacet
  facet normal 1 0 0
    outer loop
      vertex 14.1 -11.1717 21.2641
      vertex 14.1 -39.21 22.0261
      vertex 14.1 -39.21 21.2641
    endloop
  endfacet
  facet normal 0 -1 0
    outer loop
      vertex 14.0992 -39.21 21.2641
      vertex 14.1 -39.21 22.0261
      vertex 14.0992 -39.21 22.0261
    endloop
  endfacet
  facet normal 0 -1 -0
    outer loop
      vertex 14.1 -39.21 22.0261
      vertex 14.0992 -39.21 21.2641
      vertex 14.1 -39.21 21.2641
    endloop
  endfacet
  facet normal 0.996913 -0.0785103 0
    outer loop
      vertex 14.0618 -39.6849 22.0261
      vertex 14.0992 -39.21 21.2641
      vertex 14.0992 -39.21 22.0261
    endloop
  endfacet
  facet normal 0.996913 -0.0785103 0
    outer loop
      vertex 14.0992 -39.21 21.2641
      vertex 14.0618 -39.6849 22.0261
      vertex 14.0618 -39.6849 21.2641
    endloop
  endfacet
  facet normal 0.972397 -0.233334 0
    outer loop
      vertex 13.9483 -40.1579 22.0261
      vertex 14.0618 -39.6849 21.2641
      vertex 14.0618 -39.6849 22.0261
    endloop
  endfacet
  facet normal 0.972397 -0.233334 0
    outer loop
      vertex 14.0618 -39.6849 21.2641
      vertex 13.9483 -40.1579 22.0261
      vertex 13.9483 -40.1579 21.2641
    endloop
  endfacet
  facet normal 0.923872 -0.382703 0
    outer loop
      vertex 13.7621 -40.6074 22.0261
      vertex 13.9483 -40.1579 21.2641
      vertex 13.9483 -40.1579 22.0261
    endloop
  endfacet
  facet normal 0.923872 -0.382703 0
    outer loop
      vertex 13.9483 -40.1579 21.2641
      vertex 13.7621 -40.6074 22.0261
      vertex 13.7621 -40.6074 21.2641
    endloop
  endfacet
  facet normal 0.852575 -0.522605 0
    outer loop
      vertex 13.5079 -41.0221 22.0261
      vertex 13.7621 -40.6074 21.2641
      vertex 13.7621 -40.6074 22.0261
    endloop
  endfacet
  facet normal 0.852575 -0.522605 0
    outer loop
      vertex 13.7621 -40.6074 21.2641
      vertex 13.5079 -41.0221 22.0261
      vertex 13.5079 -41.0221 21.2641
    endloop
  endfacet
  facet normal 0.760431 -0.649419 0
    outer loop
      vertex 13.192 -41.392 22.0261
      vertex 13.5079 -41.0221 21.2641
      vertex 13.5079 -41.0221 22.0261
    endloop
  endfacet
  facet normal 0.760431 -0.649419 0
    outer loop
      vertex 13.5079 -41.0221 21.2641
      vertex 13.192 -41.392 22.0261
      vertex 13.192 -41.392 21.2641
    endloop
  endfacet
  facet normal 0.649419 -0.760431 0
    outer loop
      vertex 12.8221 -41.7079 21.2641
      vertex 13.192 -41.392 22.0261
      vertex 12.8221 -41.7079 22.0261
    endloop
  endfacet
  facet normal 0.649419 -0.760431 0
    outer loop
      vertex 13.192 -41.392 22.0261
      vertex 12.8221 -41.7079 21.2641
      vertex 13.192 -41.392 21.2641
    endloop
  endfacet
  facet normal 0.522605 -0.852575 0
    outer loop
      vertex 12.4074 -41.9621 21.2641
      vertex 12.8221 -41.7079 22.0261
      vertex 12.4074 -41.9621 22.0261
    endloop
  endfacet
  facet normal 0.522605 -0.852575 0
    outer loop
      vertex 12.8221 -41.7079 22.0261
      vertex 12.4074 -41.9621 21.2641
      vertex 12.8221 -41.7079 21.2641
    endloop
  endfacet
  facet normal 0.382703 -0.923872 0
    outer loop
      vertex 11.9579 -42.1483 21.2641
      vertex 12.4074 -41.9621 22.0261
      vertex 11.9579 -42.1483 22.0261
    endloop
  endfacet
  facet normal 0.382703 -0.923872 0
    outer loop
      vertex 12.4074 -41.9621 22.0261
      vertex 11.9579 -42.1483 21.2641
      vertex 12.4074 -41.9621 21.2641
    endloop
  endfacet
  facet normal 0.233334 -0.972397 0
    outer loop
      vertex 11.4849 -42.2618 21.2641
      vertex 11.9579 -42.1483 22.0261
      vertex 11.4849 -42.2618 22.0261
    endloop
  endfacet
  facet normal 0.233334 -0.972397 0
    outer loop
      vertex 11.9579 -42.1483 22.0261
      vertex 11.4849 -42.2618 21.2641
      vertex 11.9579 -42.1483 21.2641
    endloop
  endfacet
  facet normal 0.0785358 -0.996911 0
    outer loop
      vertex 11 -42.3 21.2641
      vertex 11.4849 -42.2618 22.0261
      vertex 11 -42.3 22.0261
    endloop
  endfacet
  facet normal 0.0785358 -0.996911 0
    outer loop
      vertex 11.4849 -42.2618 22.0261
      vertex 11 -42.3 21.2641
      vertex 11.4849 -42.2618 21.2641
    endloop
  endfacet
  facet normal 0 -1 0
    outer loop
      vertex -36.8 -42.3 21.2641
      vertex 11 -42.3 22.0261
      vertex -36.8 -42.3 22.0261
    endloop
  endfacet
  facet normal 0 -1 -0
    outer loop
      vertex 11 -42.3 22.0261
      vertex -36.8 -42.3 21.2641
      vertex 11 -42.3 21.2641
    endloop
  endfacet
  facet normal -0.0785197 -0.996913 0
    outer loop
      vertex -37.285 -42.2618 21.2641
      vertex -36.8 -42.3 22.0261
      vertex -37.285 -42.2618 22.0261
    endloop
  endfacet
  facet normal -0.0785197 -0.996913 -0
    outer loop
      vertex -36.8 -42.3 22.0261
      vertex -37.285 -42.2618 21.2641
      vertex -36.8 -42.3 21.2641
    endloop
  endfacet
  facet normal -0.233334 -0.972397 0
    outer loop
      vertex -37.758 -42.1483 21.2641
      vertex -37.285 -42.2618 22.0261
      vertex -37.758 -42.1483 22.0261
    endloop
  endfacet
  facet normal -0.233334 -0.972397 -0
    outer loop
      vertex -37.285 -42.2618 22.0261
      vertex -37.758 -42.1483 21.2641
      vertex -37.285 -42.2618 21.2641
    endloop
  endfacet
  facet normal -0.382775 -0.923841 0
    outer loop
      vertex -38.2074 -41.9621 21.2641
      vertex -37.758 -42.1483 22.0261
      vertex -38.2074 -41.9621 22.0261
    endloop
  endfacet
  facet normal -0.382775 -0.923841 -0
    outer loop
      vertex -37.758 -42.1483 22.0261
      vertex -38.2074 -41.9621 21.2641
      vertex -37.758 -42.1483 21.2641
    endloop
  endfacet
  facet normal -0.522605 -0.852575 0
    outer loop
      vertex -38.6221 -41.7079 21.2641
      vertex -38.2074 -41.9621 22.0261
      vertex -38.6221 -41.7079 22.0261
    endloop
  endfacet
  facet normal -0.522605 -0.852575 -0
    outer loop
      vertex -38.2074 -41.9621 22.0261
      vertex -38.6221 -41.7079 21.2641
      vertex -38.2074 -41.9621 21.2641
    endloop
  endfacet
  facet normal -0.649419 -0.760431 0
    outer loop
      vertex -38.992 -41.392 21.2641
      vertex -38.6221 -41.7079 22.0261
      vertex -38.992 -41.392 22.0261
    endloop
  endfacet
  facet normal -0.649419 -0.760431 -0
    outer loop
      vertex -38.6221 -41.7079 22.0261
      vertex -38.992 -41.392 21.2641
      vertex -38.6221 -41.7079 21.2641
    endloop
  endfacet
  facet normal -0.760329 -0.649538 0
    outer loop
      vertex -38.992 -41.392 21.2641
      vertex -39.308 -41.0221 22.0261
      vertex -39.308 -41.0221 21.2641
    endloop
  endfacet
  facet normal -0.760329 -0.649538 0
    outer loop
      vertex -39.308 -41.0221 22.0261
      vertex -38.992 -41.392 21.2641
      vertex -38.992 -41.392 22.0261
    endloop
  endfacet
  facet normal -0.852666 -0.522456 0
    outer loop
      vertex -39.308 -41.0221 21.2641
      vertex -39.5621 -40.6074 22.0261
      vertex -39.5621 -40.6074 21.2641
    endloop
  endfacet
  facet normal -0.852666 -0.522456 0
    outer loop
      vertex -39.5621 -40.6074 22.0261
      vertex -39.308 -41.0221 21.2641
      vertex -39.308 -41.0221 22.0261
    endloop
  endfacet
  facet normal -0.923872 -0.382703 0
    outer loop
      vertex -39.5621 -40.6074 21.2641
      vertex -39.7483 -40.1579 22.0261
      vertex -39.7483 -40.1579 21.2641
    endloop
  endfacet
  facet normal -0.923872 -0.382703 0
    outer loop
      vertex -39.7483 -40.1579 22.0261
      vertex -39.5621 -40.6074 21.2641
      vertex -39.5621 -40.6074 22.0261
    endloop
  endfacet
  facet normal -0.972397 -0.233334 0
    outer loop
      vertex -39.7483 -40.1579 21.2641
      vertex -39.8618 -39.6849 22.0261
      vertex -39.8618 -39.6849 21.2641
    endloop
  endfacet
  facet normal -0.972397 -0.233334 0
    outer loop
      vertex -39.8618 -39.6849 22.0261
      vertex -39.7483 -40.1579 21.2641
      vertex -39.7483 -40.1579 22.0261
    endloop
  endfacet
  facet normal -0.996913 -0.0785103 0
    outer loop
      vertex -39.8618 -39.6849 21.2641
      vertex -39.8992 -39.21 22.0261
      vertex -39.8992 -39.21 21.2641
    endloop
  endfacet
  facet normal -0.996913 -0.0785103 0
    outer loop
      vertex -39.8992 -39.21 22.0261
      vertex -39.8618 -39.6849 21.2641
      vertex -39.8618 -39.6849 22.0261
    endloop
  endfacet
  facet normal 0 -1 0
    outer loop
      vertex -39.9 -39.21 21.2641
      vertex -39.8992 -39.21 22.0261
      vertex -39.9 -39.21 22.0261
    endloop
  endfacet
  facet normal 0 -1 -0
    outer loop
      vertex -39.8992 -39.21 22.0261
      vertex -39.9 -39.21 21.2641
      vertex -39.8992 -39.21 21.2641
    endloop
  endfacet
  facet normal -1 0 0
    outer loop
      vertex -39.9 -39.21 21.2641
      vertex -39.9 -11.1717 22.0261
      vertex -39.9 -11.1717 21.2641
    endloop
  endfacet
  facet normal -1 -0 0
    outer loop
      vertex -39.9 -11.1717 22.0261
      vertex -39.9 -39.21 21.2641
      vertex -39.9 -39.21 22.0261
    endloop
  endfacet
  facet normal 0 1 -0
    outer loop
      vertex -36.9 -11.1717 21.2641
      vertex -39.9 -11.1717 22.0261
      vertex -36.9 -11.1717 22.0261
    endloop
  endfacet
  facet normal 0 1 0
    outer loop
      vertex -39.9 -11.1717 22.0261
      vertex -36.9 -11.1717 21.2641
      vertex -39.9 -11.1717 21.2641
    endloop
  endfacet
  facet normal -1 0 0
    outer loop
      vertex -36.9 -11.1717 21.2641
      vertex -36.9 -0.699993 22.0261
      vertex -36.9 -0.699993 21.2641
    endloop
  endfacet
  facet normal -1 -0 0
    outer loop
      vertex -36.9 -0.699993 22.0261
      vertex -36.9 -11.1717 21.2641
      vertex -36.9 -11.1717 22.0261
    endloop
  endfacet
  facet normal 0 -1 0
    outer loop
      vertex -39.9 -0.699993 21.2641
      vertex -36.9 -0.699993 22.0261
      vertex -39.9 -0.699993 22.0261
    endloop
  endfacet
  facet normal 0 -1 -0
    outer loop
      vertex -36.9 -0.699993 22.0261
      vertex -39.9 -0.699993 21.2641
      vertex -36.9 -0.699993 21.2641
    endloop
  endfacet
  facet normal -1 0 0
    outer loop
      vertex -39.9 -0.699993 21.2641
      vertex -39.9 0.7 22.0261
      vertex -39.9 0.7 21.2641
    endloop
  endfacet
  facet normal -1 -0 0
    outer loop
      vertex -39.9 0.7 22.0261
      vertex -39.9 -0.699993 21.2641
      vertex -39.9 -0.699993 22.0261
    endloop
  endfacet
  facet normal 0 1 0
    outer loop
      vertex 14.1 0.7 22.0261
      vertex -5.89537 0.7 21.7361
      vertex -5.89537 0.7 22.0261
    endloop
  endfacet
  facet normal 0 1 0
    outer loop
      vertex -5.89537 0.7 21.7361
      vertex 14.1 0.7 21.2641
      vertex -21.0865 0.7 21.7361
    endloop
  endfacet
  facet normal 0 1 -0
    outer loop
      vertex 14.1 0.7 21.2641
      vertex -5.89537 0.7 21.7361
      vertex 14.1 0.7 22.0261
    endloop
  endfacet
  facet normal 0 1 -0
    outer loop
      vertex -21.0865 0.7 21.7361
      vertex -39.9 0.7 22.0261
      vertex -21.0865 0.7 22.0261
    endloop
  endfacet
  facet normal 0 1 0
    outer loop
      vertex -21.0865 0.7 21.7361
      vertex -39.9 0.7 21.2641
      vertex -39.9 0.7 22.0261
    endloop
  endfacet
  facet normal 0 1 0
    outer loop
      vertex -39.9 0.7 21.2641
      vertex -21.0865 0.7 21.7361
      vertex 14.1 0.7 21.2641
    endloop
  endfacet
  facet normal 1 -0 0
    outer loop
      vertex 14.1 -0.699993 22.0261
      vertex 14.1 0.7 21.2641
      vertex 14.1 0.7 22.0261
    endloop
  endfacet
  facet normal 1 0 0
    outer loop
      vertex 14.1 0.7 21.2641
      vertex 14.1 -0.699993 22.0261
      vertex 14.1 -0.699993 21.2641
    endloop
  endfacet
  facet normal 0.580752 -0.814081 0
    outer loop
      vertex -18.5521 8.11322 21.7363
      vertex -17.985 8.51778 22.0263
      vertex -18.5521 8.11322 22.0263
    endloop
  endfacet
  facet normal 0.580752 -0.814081 0
    outer loop
      vertex -17.985 8.51778 22.0263
      vertex -18.5521 8.11322 21.7363
      vertex -17.985 8.51778 21.7363
    endloop
  endfacet
  facet normal 0.990318 -0.13882 0
    outer loop
      vertex -21.0572 3.33278 22.0263
      vertex -20.9575 4.04402 21.7363
      vertex -20.9575 4.04402 22.0263
    endloop
  endfacet
  facet normal 0.990318 -0.13882 0
    outer loop
      vertex -20.9575 4.04402 21.7363
      vertex -21.0572 3.33278 22.0263
      vertex -21.0572 3.33278 21.7363
    endloop
  endfacet
  facet normal 0.943452 -0.331508 0
    outer loop
      vertex -20.7912 4.73077 22.0263
      vertex -20.5585 5.39302 21.7363
      vertex -20.5585 5.39302 22.0263
    endloop
  endfacet
  facet normal 0.943452 -0.331508 0
    outer loop
      vertex -20.5585 5.39302 21.7363
      vertex -20.7912 4.73077 22.0263
      vertex -20.7912 4.73077 21.7363
    endloop
  endfacet
  facet normal -0.40438 -0.914591 0
    outer loop
      vertex -10.3015 9.17203 21.7363
      vertex -9.62 8.87071 22.0263
      vertex -10.3015 9.17203 22.0263
    endloop
  endfacet
  facet normal -0.40438 -0.914591 -0
    outer loop
      vertex -9.62 8.87071 22.0263
      vertex -10.3015 9.17203 21.7363
      vertex -9.62 8.87071 21.7363
    endloop
  endfacet
  facet normal 0.125316 -0.992117 0
    outer loop
      vertex -15.1747 9.58603 21.7363
      vertex -14.3553 9.68953 22.0263
      vertex -15.1747 9.58603 22.0263
    endloop
  endfacet
  facet normal 0.125316 -0.992117 0
    outer loop
      vertex -14.3553 9.68953 22.0263
      vertex -15.1747 9.58603 21.7363
      vertex -14.3553 9.68953 21.7363
    endloop
  endfacet
  facet normal -0.313655 -0.949537 0
    outer loop
      vertex -11.0326 9.41353 21.7363
      vertex -10.3015 9.17203 22.0263
      vertex -11.0326 9.41353 22.0263
    endloop
  endfacet
  facet normal -0.313655 -0.949537 -0
    outer loop
      vertex -10.3015 9.17203 22.0263
      vertex -11.0326 9.41353 21.7363
      vertex -10.3015 9.17203 21.7363
    endloop
  endfacet
  facet normal -0.217157 -0.976137 0
    outer loop
      vertex -11.808 9.58603 21.7363
      vertex -11.0326 9.41353 22.0263
      vertex -11.808 9.58603 22.0263
    endloop
  endfacet
  facet normal -0.217157 -0.976137 -0
    outer loop
      vertex -11.0326 9.41353 22.0263
      vertex -11.808 9.58603 21.7363
      vertex -11.0326 9.41353 21.7363
    endloop
  endfacet
  facet normal 0.217237 -0.976119 0
    outer loop
      vertex -15.9498 9.41353 21.7363
      vertex -15.1747 9.58603 22.0263
      vertex -15.9498 9.41353 22.0263
    endloop
  endfacet
  facet normal 0.217237 -0.976119 0
    outer loop
      vertex -15.1747 9.58603 22.0263
      vertex -15.9498 9.41353 21.7363
      vertex -15.1747 9.58603 21.7363
    endloop
  endfacet
  facet normal 0.998975 -0.0452577 0
    outer loop
      vertex -21.0865 2.68604 22.0263
      vertex -21.0572 3.33278 21.7363
      vertex -21.0572 3.33278 22.0263
    endloop
  endfacet
  facet normal 0.998975 -0.0452577 0
    outer loop
      vertex -21.0572 3.33278 21.7363
      vertex -21.0865 2.68604 22.0263
      vertex -21.0865 2.68604 21.7363
    endloop
  endfacet
  facet normal -0.947284 -0.320396 0
    outer loop
      vertex -6.1795 4.73077 21.7363
      vertex -6.40349 5.39302 22.0263
      vertex -6.40349 5.39302 21.7363
    endloop
  endfacet
  facet normal -0.947284 -0.320396 0
    outer loop
      vertex -6.40349 5.39302 22.0263
      vertex -6.1795 4.73077 21.7363
      vertex -6.1795 4.73077 22.0263
    endloop
  endfacet
  facet normal -0.125286 -0.992121 0
    outer loop
      vertex -12.6276 9.68953 21.7363
      vertex -11.808 9.58603 22.0263
      vertex -12.6276 9.68953 22.0263
    endloop
  endfacet
  facet normal -0.125286 -0.992121 -0
    outer loop
      vertex -11.808 9.58603 22.0263
      vertex -12.6276 9.68953 21.7363
      vertex -11.808 9.58603 21.7363
    endloop
  endfacet
  facet normal -0.973914 -0.226918 0
    outer loop
      vertex -6.01949 4.04402 21.7363
      vertex -6.1795 4.73077 22.0263
      vertex -6.1795 4.73077 21.7363
    endloop
  endfacet
  facet normal -0.973914 -0.226918 0
    outer loop
      vertex -6.1795 4.73077 22.0263
      vertex -6.01949 4.04402 21.7363
      vertex -6.01949 4.04402 22.0263
    endloop
  endfacet
  facet normal -0.862395 -0.506236 0
    outer loop
      vertex -6.689 6.02165 21.7363
      vertex -7.0335 6.60852 22.0263
      vertex -7.0335 6.60852 21.7363
    endloop
  endfacet
  facet normal -0.862395 -0.506236 0
    outer loop
      vertex -7.0335 6.60852 22.0263
      vertex -6.689 6.02165 21.7363
      vertex -6.689 6.02165 22.0263
    endloop
  endfacet
  facet normal 0.906603 -0.421984 0
    outer loop
      vertex -20.5585 5.39302 22.0263
      vertex -20.2659 6.02165 21.7363
      vertex -20.2659 6.02165 22.0263
    endloop
  endfacet
  facet normal 0.906603 -0.421984 0
    outer loop
      vertex -20.2659 6.02165 21.7363
      vertex -20.5585 5.39302 22.0263
      vertex -20.5585 5.39302 21.7363
    endloop
  endfacet
  facet normal 0.860854 -0.508852 0
    outer loop
      vertex -20.2659 6.02165 22.0263
      vertex -19.919 6.60852 21.7363
      vertex -19.919 6.60852 22.0263
    endloop
  endfacet
  facet normal 0.860854 -0.508852 0
    outer loop
      vertex -19.919 6.60852 21.7363
      vertex -20.2659 6.02165 22.0263
      vertex -20.2659 6.02165 21.7363
    endloop
  endfacet
  facet normal 0.666402 -0.745592 0
    outer loop
      vertex -19.0625 7.65703 21.7363
      vertex -18.5521 8.11322 22.0263
      vertex -19.0625 7.65703 22.0263
    endloop
  endfacet
  facet normal 0.666402 -0.745592 0
    outer loop
      vertex -18.5521 8.11322 22.0263
      vertex -19.0625 7.65703 21.7363
      vertex -18.5521 8.11322 21.7363
    endloop
  endfacet
  facet normal 0.31381 -0.949486 0
    outer loop
      vertex -16.6805 9.17203 21.7363
      vertex -15.9498 9.41353 22.0263
      vertex -16.6805 9.17203 22.0263
    endloop
  endfacet
  facet normal 0.31381 -0.949486 0
    outer loop
      vertex -15.9498 9.41353 22.0263
      vertex -16.6805 9.17203 21.7363
      vertex -15.9498 9.41353 21.7363
    endloop
  endfacet
  facet normal -0.659837 -0.751409 0
    outer loop
      vertex -8.419 8.11322 21.7363
      vertex -7.8995 7.65703 22.0263
      vertex -8.419 8.11322 22.0263
    endloop
  endfacet
  facet normal -0.659837 -0.751409 -0
    outer loop
      vertex -7.8995 7.65703 22.0263
      vertex -8.419 8.11322 21.7363
      vertex -7.8995 7.65703 21.7363
    endloop
  endfacet
  facet normal 0.805466 -0.592641 0
    outer loop
      vertex -19.919 6.60852 22.0263
      vertex -19.5179 7.15366 21.7363
      vertex -19.5179 7.15366 22.0263
    endloop
  endfacet
  facet normal 0.805466 -0.592641 0
    outer loop
      vertex -19.5179 7.15366 21.7363
      vertex -19.919 6.60852 22.0263
      vertex -19.919 6.60852 21.7363
    endloop
  endfacet
  facet normal -0.736368 -0.676581 0
    outer loop
      vertex -7.437 7.15366 21.7363
      vertex -7.8995 7.65703 22.0263
      vertex -7.8995 7.65703 21.7363
    endloop
  endfacet
  facet normal -0.736368 -0.676581 0
    outer loop
      vertex -7.8995 7.65703 22.0263
      vertex -7.437 7.15366 21.7363
      vertex -7.437 7.15366 22.0263
    endloop
  endfacet
  facet normal -0.991015 -0.133749 0
    outer loop
      vertex -5.9235 3.33278 21.7363
      vertex -6.01949 4.04402 22.0263
      vertex -6.01949 4.04402 21.7363
    endloop
  endfacet
  facet normal -0.991015 -0.133749 0
    outer loop
      vertex -6.01949 4.04402 22.0263
      vertex -5.9235 3.33278 21.7363
      vertex -5.9235 3.33278 22.0263
    endloop
  endfacet
  facet normal -0.0399034 -0.999204 0
    outer loop
      vertex -13.4915 9.72403 21.7363
      vertex -12.6276 9.68953 22.0263
      vertex -13.4915 9.72403 22.0263
    endloop
  endfacet
  facet normal -0.0399034 -0.999204 -0
    outer loop
      vertex -12.6276 9.68953 22.0263
      vertex -13.4915 9.72403 21.7363
      vertex -12.6276 9.68953 21.7363
    endloop
  endfacet
  facet normal 0.97191 -0.235353 0
    outer loop
      vertex -20.9575 4.04402 22.0263
      vertex -20.7912 4.73077 21.7363
      vertex -20.7912 4.73077 22.0263
    endloop
  endfacet
  facet normal 0.97191 -0.235353 0
    outer loop
      vertex -20.7912 4.73077 21.7363
      vertex -20.9575 4.04402 22.0263
      vertex -20.9575 4.04402 21.7363
    endloop
  endfacet
  facet normal -0.999055 -0.043454 0
    outer loop
      vertex -5.89537 2.68604 21.7363
      vertex -5.9235 3.33278 22.0263
      vertex -5.9235 3.33278 21.7363
    endloop
  endfacet
  facet normal -0.999055 -0.043454 0
    outer loop
      vertex -5.9235 3.33278 22.0263
      vertex -5.89537 2.68604 21.7363
      vertex -5.89537 2.68604 22.0263
    endloop
  endfacet
  facet normal -0.803774 -0.594935 0
    outer loop
      vertex -7.0335 6.60852 21.7363
      vertex -7.437 7.15366 22.0263
      vertex -7.437 7.15366 21.7363
    endloop
  endfacet
  facet normal -0.803774 -0.594935 0
    outer loop
      vertex -7.437 7.15366 22.0263
      vertex -7.0335 6.60852 21.7363
      vertex -7.0335 6.60852 22.0263
    endloop
  endfacet
  facet normal 0.741558 -0.670889 0
    outer loop
      vertex -19.5179 7.15366 22.0263
      vertex -19.0625 7.65703 21.7363
      vertex -19.0625 7.65703 22.0263
    endloop
  endfacet
  facet normal 0.741558 -0.670889 0
    outer loop
      vertex -19.0625 7.65703 21.7363
      vertex -19.5179 7.15366 22.0263
      vertex -19.5179 7.15366 21.7363
    endloop
  endfacet
  facet normal 0.039908 -0.999203 0
    outer loop
      vertex -14.3553 9.68953 21.7363
      vertex -13.4915 9.72403 22.0263
      vertex -14.3553 9.68953 22.0263
    endloop
  endfacet
  facet normal 0.039908 -0.999203 0
    outer loop
      vertex -13.4915 9.72403 22.0263
      vertex -14.3553 9.68953 21.7363
      vertex -13.4915 9.72403 21.7363
    endloop
  endfacet
  facet normal -0.910492 -0.413526 0
    outer loop
      vertex -6.40349 5.39302 21.7363
      vertex -6.689 6.02165 22.0263
      vertex -6.689 6.02165 21.7363
    endloop
  endfacet
  facet normal -0.910492 -0.413526 0
    outer loop
      vertex -6.689 6.02165 22.0263
      vertex -6.40349 5.39302 21.7363
      vertex -6.40349 5.39302 22.0263
    endloop
  endfacet
  facet normal 0.404827 -0.914393 0
    outer loop
      vertex -17.3611 8.87071 21.7363
      vertex -16.6805 9.17203 22.0263
      vertex -17.3611 8.87071 22.0263
    endloop
  endfacet
  facet normal 0.404827 -0.914393 0
    outer loop
      vertex -16.6805 9.17203 22.0263
      vertex -17.3611 8.87071 21.7363
      vertex -16.6805 9.17203 21.7363
    endloop
  endfacet
  facet normal 0.492365 -0.870389 0
    outer loop
      vertex -17.985 8.51778 21.7363
      vertex -17.3611 8.87071 22.0263
      vertex -17.985 8.51778 22.0263
    endloop
  endfacet
  facet normal 0.492365 -0.870389 0
    outer loop
      vertex -17.3611 8.87071 22.0263
      vertex -17.985 8.51778 21.7363
      vertex -17.3611 8.87071 21.7363
    endloop
  endfacet
  facet normal -0.576433 -0.817145 0
    outer loop
      vertex -8.9925 8.51778 21.7363
      vertex -8.419 8.11322 22.0263
      vertex -8.9925 8.51778 22.0263
    endloop
  endfacet
  facet normal -0.576433 -0.817145 -0
    outer loop
      vertex -8.419 8.11322 22.0263
      vertex -8.9925 8.51778 21.7363
      vertex -8.419 8.11322 21.7363
    endloop
  endfacet
  facet normal -0.49022 -0.871599 0
    outer loop
      vertex -9.62 8.87071 21.7363
      vertex -8.9925 8.51778 22.0263
      vertex -9.62 8.87071 22.0263
    endloop
  endfacet
  facet normal -0.49022 -0.871599 -0
    outer loop
      vertex -8.9925 8.51778 22.0263
      vertex -9.62 8.87071 21.7363
      vertex -8.9925 8.51778 21.7363
    endloop
  endfacet
  facet normal 0 0 1
    outer loop
      vertex -6.01949 4.04402 21.7363
      vertex -5.89537 2.68604 21.7363
      vertex -5.9235 3.33278 21.7363
    endloop
  endfacet
  facet normal 0 0 1
    outer loop
      vertex -6.1795 4.73077 21.7363
      vertex -5.89537 2.68604 21.7363
      vertex -6.01949 4.04402 21.7363
    endloop
  endfacet
  facet normal 0 0 1
    outer loop
      vertex -6.40349 5.39302 21.7363
      vertex -5.89537 2.68604 21.7363
      vertex -6.1795 4.73077 21.7363
    endloop
  endfacet
  facet normal 0 0 1
    outer loop
      vertex -6.689 6.02165 21.7363
      vertex -5.89537 2.68604 21.7363
      vertex -6.40349 5.39302 21.7363
    endloop
  endfacet
  facet normal 0 0 1
    outer loop
      vertex -7.0335 6.60852 21.7363
      vertex -5.89537 2.68604 21.7363
      vertex -6.689 6.02165 21.7363
    endloop
  endfacet
  facet normal 0 0 1
    outer loop
      vertex -7.437 7.15366 21.7363
      vertex -5.89537 2.68604 21.7363
      vertex -7.0335 6.60852 21.7363
    endloop
  endfacet
  facet normal 0 0 1
    outer loop
      vertex -7.8995 7.65703 21.7363
      vertex -5.89537 2.68604 21.7363
      vertex -7.437 7.15366 21.7363
    endloop
  endfacet
  facet normal 0 0 1
    outer loop
      vertex -8.419 8.11322 21.7363
      vertex -5.89537 2.68604 21.7363
      vertex -7.8995 7.65703 21.7363
    endloop
  endfacet
  facet normal 0 0 1
    outer loop
      vertex -8.9925 8.51778 21.7363
      vertex -5.89537 2.68604 21.7363
      vertex -8.419 8.11322 21.7363
    endloop
  endfacet
  facet normal 0 0 1
    outer loop
      vertex -9.62 8.87071 21.7363
      vertex -5.89537 2.68604 21.7363
      vertex -8.9925 8.51778 21.7363
    endloop
  endfacet
  facet normal 0 0 1
    outer loop
      vertex -10.3015 9.17203 21.7363
      vertex -5.89537 2.68604 21.7363
      vertex -9.62 8.87071 21.7363
    endloop
  endfacet
  facet normal 0 0 1
    outer loop
      vertex -11.0326 9.41353 21.7363
      vertex -5.89537 2.68604 21.7363
      vertex -10.3015 9.17203 21.7363
    endloop
  endfacet
  facet normal 0 0 1
    outer loop
      vertex -11.808 9.58603 21.7363
      vertex -5.89537 2.68604 21.7363
      vertex -11.0326 9.41353 21.7363
    endloop
  endfacet
  facet normal 0 0 1
    outer loop
      vertex -12.6276 9.68953 21.7363
      vertex -5.89537 2.68604 21.7363
      vertex -11.808 9.58603 21.7363
    endloop
  endfacet
  facet normal 0 0 1
    outer loop
      vertex -13.4915 9.72403 21.7363
      vertex -5.89537 2.68604 21.7363
      vertex -12.6276 9.68953 21.7363
    endloop
  endfacet
  facet normal 0 0 1
    outer loop
      vertex -21.0865 2.68604 21.7363
      vertex -13.4915 9.72403 21.7363
      vertex -14.3553 9.68953 21.7363
    endloop
  endfacet
  facet normal 0 0 1
    outer loop
      vertex -21.0865 2.68604 21.7363
      vertex -14.3553 9.68953 21.7363
      vertex -15.1747 9.58603 21.7363
    endloop
  endfacet
  facet normal 0 0 1
    outer loop
      vertex -21.0865 2.68604 21.7363
      vertex -15.1747 9.58603 21.7363
      vertex -15.9498 9.41353 21.7363
    endloop
  endfacet
  facet normal 0 0 1
    outer loop
      vertex -21.0865 2.68604 21.7363
      vertex -15.9498 9.41353 21.7363
      vertex -16.6805 9.17203 21.7363
    endloop
  endfacet
  facet normal 0 0 1
    outer loop
      vertex -21.0572 3.33278 21.7363
      vertex -16.6805 9.17203 21.7363
      vertex -17.3611 8.87071 21.7363
    endloop
  endfacet
  facet normal 0 0 1
    outer loop
      vertex -21.0572 3.33278 21.7363
      vertex -17.3611 8.87071 21.7363
      vertex -17.985 8.51778 21.7363
    endloop
  endfacet
  facet normal 0 0 1
    outer loop
      vertex -21.0572 3.33278 21.7363
      vertex -17.985 8.51778 21.7363
      vertex -18.5521 8.11322 21.7363
    endloop
  endfacet
  facet normal 0 0 1
    outer loop
      vertex -21.0572 3.33278 21.7363
      vertex -18.5521 8.11322 21.7363
      vertex -19.0625 7.65703 21.7363
    endloop
  endfacet
  facet normal 0 0 1
    outer loop
      vertex -21.0572 3.33278 21.7363
      vertex -19.0625 7.65703 21.7363
      vertex -19.5179 7.15366 21.7363
    endloop
  endfacet
  facet normal 0 0 1
    outer loop
      vertex -20.2659 6.02165 21.7363
      vertex -19.5179 7.15366 21.7363
      vertex -19.919 6.60852 21.7363
    endloop
  endfacet
  facet normal 0 0 1
    outer loop
      vertex -20.5585 5.39302 21.7363
      vertex -19.5179 7.15366 21.7363
      vertex -20.2659 6.02165 21.7363
    endloop
  endfacet
  facet normal 0 0 1
    outer loop
      vertex -20.7912 4.73077 21.7363
      vertex -19.5179 7.15366 21.7363
      vertex -20.5585 5.39302 21.7363
    endloop
  endfacet
  facet normal 0 0 1
    outer loop
      vertex -20.9575 4.04402 21.7363
      vertex -19.5179 7.15366 21.7363
      vertex -20.7912 4.73077 21.7363
    endloop
  endfacet
  facet normal 0 0 1
    outer loop
      vertex -21.0572 3.33278 21.7363
      vertex -19.5179 7.15366 21.7363
      vertex -20.9575 4.04402 21.7363
    endloop
  endfacet
  facet normal 0 0 1
    outer loop
      vertex -16.6805 9.17203 21.7363
      vertex -21.0572 3.33278 21.7363
      vertex -21.0865 2.68604 21.7363
    endloop
  endfacet
  facet normal 0 0 1
    outer loop
      vertex -13.4915 9.72403 21.7363
      vertex -21.0865 2.68604 21.7363
      vertex -5.89537 2.68604 21.7363
    endloop
  endfacet
  facet normal 0 1 -0
    outer loop
      vertex -0.379492 9.02377 21.2643
      vertex -33.1785 9.02377 21.5543
      vertex -0.379492 9.02377 21.5543
    endloop
  endfacet
  facet normal 0 1 0
    outer loop
      vertex -33.1785 9.02377 21.5543
      vertex -0.379492 9.02377 21.2643
      vertex -33.1785 9.02377 21.2643
    endloop
  endfacet
  facet normal 0 0 -1
    outer loop
      vertex -33.1785 9.02377 21.5543
      vertex -0.379492 17.8828 21.5543
      vertex -0.379492 9.02377 21.5543
    endloop
  endfacet
  facet normal -0 0 -1
    outer loop
      vertex -0.379492 17.8828 21.5543
      vertex -33.1785 9.02377 21.5543
      vertex -33.1785 17.8828 21.5543
    endloop
  endfacet
  facet normal 1 -0 0
    outer loop
      vertex -33.1785 9.02377 21.5543
      vertex -33.1785 17.8828 21.2643
      vertex -33.1785 17.8828 21.5543
    endloop
  endfacet
  facet normal 1 0 0
    outer loop
      vertex -33.1785 17.8828 21.2643
      vertex -33.1785 9.02377 21.5543
      vertex -33.1785 9.02377 21.2643
    endloop
  endfacet
  facet normal -1 0 0
    outer loop
      vertex -0.379492 9.02377 21.2643
      vertex -0.379492 17.8828 21.5543
      vertex -0.379492 17.8828 21.2643
    endloop
  endfacet
  facet normal -1 -0 0
    outer loop
      vertex -0.379492 17.8828 21.5543
      vertex -0.379492 9.02377 21.2643
      vertex -0.379492 9.02377 21.5543
    endloop
  endfacet
  facet normal 0 -1 0
    outer loop
      vertex -33.1785 17.8828 21.2643
      vertex -0.379492 17.8828 21.5543
      vertex -33.1785 17.8828 21.5543
    endloop
  endfacet
  facet normal 0 -1 -0
    outer loop
      vertex -0.379492 17.8828 21.5543
      vertex -33.1785 17.8828 21.2643
      vertex -0.379492 17.8828 21.2643
    endloop
  endfacet
  facet normal 0 0 -1
    outer loop
      vertex 14.1 2.68604 21.2643
      vertex 11.1 4.08603 21.2643
      vertex 14.1 4.08603 21.2643
    endloop
  endfacet
  facet normal 0 0 -1
    outer loop
      vertex -0.379492 9.02377 21.2643
      vertex 11.1 14.5577 21.2643
      vertex 11.1 4.08603 21.2643
    endloop
  endfacet
  facet normal -0 0 -1
    outer loop
      vertex 11.1 14.5577 21.2643
      vertex -0.379492 9.02377 21.2643
      vertex -0.379492 17.8828 21.2643
    endloop
  endfacet
  facet normal 0 0 -1
    outer loop
      vertex -36.9 4.08603 21.2643
      vertex 11.1 4.08603 21.2643
      vertex 14.1 2.68604 21.2643
    endloop
  endfacet
  facet normal 0 0 -1
    outer loop
      vertex 11.1 4.08603 21.2643
      vertex -36.9 4.08603 21.2643
      vertex -0.379492 9.02377 21.2643
    endloop
  endfacet
  facet normal 0 0 -1
    outer loop
      vertex -36.9 14.5577 21.2643
      vertex -33.1785 17.8828 21.2643
      vertex -33.1785 9.02377 21.2643
    endloop
  endfacet
  facet normal 0 0 -1
    outer loop
      vertex -36.9 14.5577 21.2643
      vertex -33.1785 9.02377 21.2643
      vertex -36.9 4.08603 21.2643
    endloop
  endfacet
  facet normal -0 0 -1
    outer loop
      vertex -0.379492 9.02377 21.2643
      vertex -36.9 4.08603 21.2643
      vertex -33.1785 9.02377 21.2643
    endloop
  endfacet
  facet normal 0 0 -1
    outer loop
      vertex -39.9 2.68604 21.2643
      vertex -36.9 4.08603 21.2643
      vertex 14.1 2.68604 21.2643
    endloop
  endfacet
  facet normal -0 0 -1
    outer loop
      vertex -36.9 4.08603 21.2643
      vertex -39.9 2.68604 21.2643
      vertex -39.9 4.08603 21.2643
    endloop
  endfacet
  facet normal 0 0 -1
    outer loop
      vertex 14.1 14.5577 21.2643
      vertex 14.0992 42.596 21.2643
      vertex 14.1 42.596 21.2643
    endloop
  endfacet
  facet normal 0 0 -1
    outer loop
      vertex 11.1 14.5577 21.2643
      vertex 14.0992 42.596 21.2643
      vertex 14.1 14.5577 21.2643
    endloop
  endfacet
  facet normal 0 0 -1
    outer loop
      vertex 11 45.686 21.2643
      vertex 14.0992 42.596 21.2643
      vertex 11.1 14.5577 21.2643
    endloop
  endfacet
  facet normal 0 0 -1
    outer loop
      vertex 14.0992 42.596 21.2643
      vertex 11 45.686 21.2643
      vertex 14.0618 43.071 21.2643
    endloop
  endfacet
  facet normal 0 0 -1
    outer loop
      vertex 14.0618 43.071 21.2643
      vertex 11 45.686 21.2643
      vertex 13.9483 43.544 21.2643
    endloop
  endfacet
  facet normal 0 0 -1
    outer loop
      vertex 13.9483 43.544 21.2643
      vertex 11 45.686 21.2643
      vertex 13.7621 43.9934 21.2643
    endloop
  endfacet
  facet normal 0 0 -1
    outer loop
      vertex 13.7621 43.9934 21.2643
      vertex 11 45.686 21.2643
      vertex 13.5079 44.4082 21.2643
    endloop
  endfacet
  facet normal 0 0 -1
    outer loop
      vertex 13.5079 44.4082 21.2643
      vertex 11 45.686 21.2643
      vertex 13.192 44.7781 21.2643
    endloop
  endfacet
  facet normal 0 0 -1
    outer loop
      vertex 13.192 44.7781 21.2643
      vertex 11 45.686 21.2643
      vertex 12.8221 45.094 21.2643
    endloop
  endfacet
  facet normal 0 0 -1
    outer loop
      vertex 12.8221 45.094 21.2643
      vertex 11 45.686 21.2643
      vertex 12.4074 45.3481 21.2643
    endloop
  endfacet
  facet normal 0 0 -1
    outer loop
      vertex 12.4074 45.3481 21.2643
      vertex 11 45.686 21.2643
      vertex 11.9579 45.5343 21.2643
    endloop
  endfacet
  facet normal 0 0 -1
    outer loop
      vertex 11.9579 45.5343 21.2643
      vertex 11 45.686 21.2643
      vertex 11.4849 45.6479 21.2643
    endloop
  endfacet
  facet normal 0 0 -1
    outer loop
      vertex 11.1 14.5577 21.2643
      vertex -0.379492 17.8828 21.2643
      vertex 11 45.686 21.2643
    endloop
  endfacet
  facet normal 0 0 -1
    outer loop
      vertex -36.8 45.686 21.2643
      vertex -0.379492 17.8828 21.2643
      vertex -33.1785 17.8828 21.2643
    endloop
  endfacet
  facet normal 0 0 -1
    outer loop
      vertex -0.379492 17.8828 21.2643
      vertex -36.8 45.686 21.2643
      vertex 11 45.686 21.2643
    endloop
  endfacet
  facet normal 0 0 -1
    outer loop
      vertex -39.9 14.5577 21.2643
      vertex -33.1785 17.8828 21.2643
      vertex -36.9 14.5577 21.2643
    endloop
  endfacet
  facet normal 0 0 -1
    outer loop
      vertex -33.1785 17.8828 21.2643
      vertex -39.8992 42.596 21.2643
      vertex -36.8 45.686 21.2643
    endloop
  endfacet
  facet normal 0 0 -1
    outer loop
      vertex -36.8 45.686 21.2643
      vertex -39.8992 42.596 21.2643
      vertex -37.285 45.6479 21.2643
    endloop
  endfacet
  facet normal 0 0 -1
    outer loop
      vertex -37.285 45.6479 21.2643
      vertex -39.8992 42.596 21.2643
      vertex -37.758 45.5343 21.2643
    endloop
  endfacet
  facet normal 0 0 -1
    outer loop
      vertex -37.758 45.5343 21.2643
      vertex -39.8992 42.596 21.2643
      vertex -38.2074 45.3481 21.2643
    endloop
  endfacet
  facet normal 0 0 -1
    outer loop
      vertex -38.2074 45.3481 21.2643
      vertex -39.8992 42.596 21.2643
      vertex -38.6221 45.094 21.2643
    endloop
  endfacet
  facet normal 0 0 -1
    outer loop
      vertex -38.6221 45.094 21.2643
      vertex -39.8992 42.596 21.2643
      vertex -38.992 44.7781 21.2643
    endloop
  endfacet
  facet normal 0 0 -1
    outer loop
      vertex -38.992 44.7781 21.2643
      vertex -39.8992 42.596 21.2643
      vertex -39.308 44.4082 21.2643
    endloop
  endfacet
  facet normal 0 0 -1
    outer loop
      vertex -39.308 44.4082 21.2643
      vertex -39.8992 42.596 21.2643
      vertex -39.5621 43.9934 21.2643
    endloop
  endfacet
  facet normal 0 0 -1
    outer loop
      vertex -39.5621 43.9934 21.2643
      vertex -39.8992 42.596 21.2643
      vertex -39.7483 43.544 21.2643
    endloop
  endfacet
  facet normal 0 0 -1
    outer loop
      vertex -39.7483 43.544 21.2643
      vertex -39.8992 42.596 21.2643
      vertex -39.8618 43.071 21.2643
    endloop
  endfacet
  facet normal 0 0 -1
    outer loop
      vertex -39.9 42.596 21.2643
      vertex -33.1785 17.8828 21.2643
      vertex -39.9 14.5577 21.2643
    endloop
  endfacet
  facet normal 0 0 -1
    outer loop
      vertex -33.1785 17.8828 21.2643
      vertex -39.9 42.596 21.2643
      vertex -39.8992 42.596 21.2643
    endloop
  endfacet
  facet normal -0 0 1
    outer loop
      vertex 14.0992 42.596 22.0263
      vertex 14.1 14.5577 22.0263
      vertex 14.1 42.596 22.0263
    endloop
  endfacet
  facet normal 0 0 1
    outer loop
      vertex 11 45.686 22.0263
      vertex 14.0992 42.596 22.0263
      vertex 14.0618 43.071 22.0263
    endloop
  endfacet
  facet normal 0 0 1
    outer loop
      vertex 11 45.686 22.0263
      vertex 14.0618 43.071 22.0263
      vertex 13.9483 43.544 22.0263
    endloop
  endfacet
  facet normal 0 0 1
    outer loop
      vertex 11 45.686 22.0263
      vertex 13.9483 43.544 22.0263
      vertex 13.7621 43.9934 22.0263
    endloop
  endfacet
  facet normal 0 0 1
    outer loop
      vertex 11 45.686 22.0263
      vertex 13.7621 43.9934 22.0263
      vertex 13.5079 44.4082 22.0263
    endloop
  endfacet
  facet normal 0 0 1
    outer loop
      vertex 11 45.686 22.0263
      vertex 13.5079 44.4082 22.0263
      vertex 13.192 44.7781 22.0263
    endloop
  endfacet
  facet normal 0 0 1
    outer loop
      vertex 11 45.686 22.0263
      vertex 13.192 44.7781 22.0263
      vertex 12.8221 45.094 22.0263
    endloop
  endfacet
  facet normal 0 0 1
    outer loop
      vertex 11 45.686 22.0263
      vertex 12.8221 45.094 22.0263
      vertex 12.4074 45.3481 22.0263
    endloop
  endfacet
  facet normal 0 0 1
    outer loop
      vertex 11 45.686 22.0263
      vertex 12.4074 45.3481 22.0263
      vertex 11.9579 45.5343 22.0263
    endloop
  endfacet
  facet normal 0 0 1
    outer loop
      vertex 11 45.686 22.0263
      vertex 11.9579 45.5343 22.0263
      vertex 11.4849 45.6479 22.0263
    endloop
  endfacet
  facet normal 0 0 1
    outer loop
      vertex 14.0992 42.596 22.0263
      vertex 11.1 14.5577 22.0263
      vertex 14.1 14.5577 22.0263
    endloop
  endfacet
  facet normal 0 0 1
    outer loop
      vertex -11.0326 9.41353 22.0263
      vertex 11.1 14.5577 22.0263
      vertex 11 45.686 22.0263
    endloop
  endfacet
  facet normal 0 0 1
    outer loop
      vertex 14.0992 42.596 22.0263
      vertex 11 45.686 22.0263
      vertex 11.1 14.5577 22.0263
    endloop
  endfacet
  facet normal -0 0 1
    outer loop
      vertex 11.1 4.08603 22.0263
      vertex 14.1 2.68604 22.0263
      vertex 14.1 4.08603 22.0263
    endloop
  endfacet
  facet normal 0 0 1
    outer loop
      vertex 11.1 4.08603 22.0263
      vertex -5.89537 2.68604 22.0263
      vertex 14.1 2.68604 22.0263
    endloop
  endfacet
  facet normal 0 -0 1
    outer loop
      vertex -7.8995 7.65703 22.0263
      vertex 11.1 14.5577 22.0263
      vertex -8.419 8.11322 22.0263
    endloop
  endfacet
  facet normal 0 0 1
    outer loop
      vertex 11.1 4.08603 22.0263
      vertex -5.9235 3.33278 22.0263
      vertex -5.89537 2.68604 22.0263
    endloop
  endfacet
  facet normal 0 0 1
    outer loop
      vertex 11.1 4.08603 22.0263
      vertex -6.01949 4.04402 22.0263
      vertex -5.9235 3.33278 22.0263
    endloop
  endfacet
  facet normal 0 0 1
    outer loop
      vertex 11.1 4.08603 22.0263
      vertex -6.1795 4.73077 22.0263
      vertex -6.01949 4.04402 22.0263
    endloop
  endfacet
  facet normal 0 0 1
    outer loop
      vertex 11.1 4.08603 22.0263
      vertex -6.40349 5.39302 22.0263
      vertex -6.1795 4.73077 22.0263
    endloop
  endfacet
  facet normal 0 0 1
    outer loop
      vertex 11.1 14.5577 22.0263
      vertex -6.40349 5.39302 22.0263
      vertex 11.1 4.08603 22.0263
    endloop
  endfacet
  facet normal 0 -0 1
    outer loop
      vertex -6.40349 5.39302 22.0263
      vertex 11.1 14.5577 22.0263
      vertex -6.689 6.02165 22.0263
    endloop
  endfacet
  facet normal 0 -0 1
    outer loop
      vertex -6.689 6.02165 22.0263
      vertex 11.1 14.5577 22.0263
      vertex -7.0335 6.60852 22.0263
    endloop
  endfacet
  facet normal 0 -0 1
    outer loop
      vertex -7.0335 6.60852 22.0263
      vertex 11.1 14.5577 22.0263
      vertex -7.437 7.15366 22.0263
    endloop
  endfacet
  facet normal 0 -0 1
    outer loop
      vertex -7.437 7.15366 22.0263
      vertex 11.1 14.5577 22.0263
      vertex -7.8995 7.65703 22.0263
    endloop
  endfacet
  facet normal 0 0 1
    outer loop
      vertex 11.1 14.5577 22.0263
      vertex -8.9925 8.51778 22.0263
      vertex -8.419 8.11322 22.0263
    endloop
  endfacet
  facet normal 0 0 1
    outer loop
      vertex 11.1 14.5577 22.0263
      vertex -9.62 8.87071 22.0263
      vertex -8.9925 8.51778 22.0263
    endloop
  endfacet
  facet normal 0 0 1
    outer loop
      vertex 11.1 14.5577 22.0263
      vertex -10.3015 9.17203 22.0263
      vertex -9.62 8.87071 22.0263
    endloop
  endfacet
  facet normal 0 0 1
    outer loop
      vertex 11.1 14.5577 22.0263
      vertex -11.0326 9.41353 22.0263
      vertex -10.3015 9.17203 22.0263
    endloop
  endfacet
  facet normal 0 0 1
    outer loop
      vertex 11 45.686 22.0263
      vertex -11.808 9.58603 22.0263
      vertex -11.0326 9.41353 22.0263
    endloop
  endfacet
  facet normal 0 0 1
    outer loop
      vertex 11 45.686 22.0263
      vertex -12.6276 9.68953 22.0263
      vertex -11.808 9.58603 22.0263
    endloop
  endfacet
  facet normal 0 0 1
    outer loop
      vertex 11 45.686 22.0263
      vertex -13.4915 9.72403 22.0263
      vertex -12.6276 9.68953 22.0263
    endloop
  endfacet
  facet normal -0 0 1
    outer loop
      vertex -36.8 45.686 22.0263
      vertex -13.4915 9.72403 22.0263
      vertex 11 45.686 22.0263
    endloop
  endfacet
  facet normal 0 0 1
    outer loop
      vertex -13.4915 9.72403 22.0263
      vertex -36.8 45.686 22.0263
      vertex -14.3553 9.68953 22.0263
    endloop
  endfacet
  facet normal 0 0 1
    outer loop
      vertex -14.3553 9.68953 22.0263
      vertex -36.8 45.686 22.0263
      vertex -15.1747 9.58603 22.0263
    endloop
  endfacet
  facet normal 0 0 1
    outer loop
      vertex -15.1747 9.58603 22.0263
      vertex -36.8 45.686 22.0263
      vertex -15.9498 9.41353 22.0263
    endloop
  endfacet
  facet normal -0 0 1
    outer loop
      vertex -36.9 14.5577 22.0263
      vertex -15.9498 9.41353 22.0263
      vertex -36.8 45.686 22.0263
    endloop
  endfacet
  facet normal 0 0 1
    outer loop
      vertex -15.9498 9.41353 22.0263
      vertex -36.9 14.5577 22.0263
      vertex -16.6805 9.17203 22.0263
    endloop
  endfacet
  facet normal 0 0 1
    outer loop
      vertex -16.6805 9.17203 22.0263
      vertex -36.9 14.5577 22.0263
      vertex -17.3611 8.87071 22.0263
    endloop
  endfacet
  facet normal 0 0 1
    outer loop
      vertex -17.3611 8.87071 22.0263
      vertex -36.9 14.5577 22.0263
      vertex -17.985 8.51778 22.0263
    endloop
  endfacet
  facet normal 0 0 1
    outer loop
      vertex -17.985 8.51778 22.0263
      vertex -36.9 14.5577 22.0263
      vertex -18.5521 8.11322 22.0263
    endloop
  endfacet
  facet normal 0 0 1
    outer loop
      vertex -18.5521 8.11322 22.0263
      vertex -36.9 14.5577 22.0263
      vertex -19.0625 7.65703 22.0263
    endloop
  endfacet
  facet normal 0 0 1
    outer loop
      vertex -19.0625 7.65703 22.0263
      vertex -36.9 14.5577 22.0263
      vertex -19.5179 7.15366 22.0263
    endloop
  endfacet
  facet normal 0 0 1
    outer loop
      vertex -19.5179 7.15366 22.0263
      vertex -36.9 14.5577 22.0263
      vertex -19.919 6.60852 22.0263
    endloop
  endfacet
  facet normal 0 0 1
    outer loop
      vertex -19.919 6.60852 22.0263
      vertex -36.9 14.5577 22.0263
      vertex -20.2659 6.02165 22.0263
    endloop
  endfacet
  facet normal 0 0 1
    outer loop
      vertex -20.2659 6.02165 22.0263
      vertex -36.9 14.5577 22.0263
      vertex -20.5585 5.39302 22.0263
    endloop
  endfacet
  facet normal 0 0 1
    outer loop
      vertex -36.9 4.08603 22.0263
      vertex -20.5585 5.39302 22.0263
      vertex -36.9 14.5577 22.0263
    endloop
  endfacet
  facet normal 0 0 1
    outer loop
      vertex -20.5585 5.39302 22.0263
      vertex -36.9 4.08603 22.0263
      vertex -20.7912 4.73077 22.0263
    endloop
  endfacet
  facet normal 0 0 1
    outer loop
      vertex -20.7912 4.73077 22.0263
      vertex -36.9 4.08603 22.0263
      vertex -20.9575 4.04402 22.0263
    endloop
  endfacet
  facet normal 0 0 1
    outer loop
      vertex -20.9575 4.04402 22.0263
      vertex -36.9 4.08603 22.0263
      vertex -21.0572 3.33278 22.0263
    endloop
  endfacet
  facet normal 0 0 1
    outer loop
      vertex -21.0572 3.33278 22.0263
      vertex -36.9 4.08603 22.0263
      vertex -21.0865 2.68604 22.0263
    endloop
  endfacet
  facet normal 0 0 1
    outer loop
      vertex -39.9 2.68604 22.0263
      vertex -36.9 4.08603 22.0263
      vertex -39.9 4.08603 22.0263
    endloop
  endfacet
  facet normal 0 0 1
    outer loop
      vertex -36.9 4.08603 22.0263
      vertex -39.9 2.68604 22.0263
      vertex -21.0865 2.68604 22.0263
    endloop
  endfacet
  facet normal 0 0 1
    outer loop
      vertex -39.8992 42.596 22.0263
      vertex -36.8 45.686 22.0263
      vertex -37.285 45.6479 22.0263
    endloop
  endfacet
  facet normal 0 0 1
    outer loop
      vertex -39.8992 42.596 22.0263
      vertex -37.285 45.6479 22.0263
      vertex -37.758 45.5343 22.0263
    endloop
  endfacet
  facet normal 0 0 1
    outer loop
      vertex -39.8992 42.596 22.0263
      vertex -37.758 45.5343 22.0263
      vertex -38.2074 45.3481 22.0263
    endloop
  endfacet
  facet normal 0 0 1
    outer loop
      vertex -39.8992 42.596 22.0263
      vertex -38.2074 45.3481 22.0263
      vertex -38.6221 45.094 22.0263
    endloop
  endfacet
  facet normal 0 0 1
    outer loop
      vertex -39.8992 42.596 22.0263
      vertex -38.6221 45.094 22.0263
      vertex -38.992 44.7781 22.0263
    endloop
  endfacet
  facet normal 0 0 1
    outer loop
      vertex -39.8992 42.596 22.0263
      vertex -38.992 44.7781 22.0263
      vertex -39.308 44.4082 22.0263
    endloop
  endfacet
  facet normal 0 0 1
    outer loop
      vertex -39.8992 42.596 22.0263
      vertex -39.308 44.4082 22.0263
      vertex -39.5621 43.9934 22.0263
    endloop
  endfacet
  facet normal 0 0 1
    outer loop
      vertex -39.8992 42.596 22.0263
      vertex -39.5621 43.9934 22.0263
      vertex -39.7483 43.544 22.0263
    endloop
  endfacet
  facet normal 0 0 1
    outer loop
      vertex -39.8992 42.596 22.0263
      vertex -39.7483 43.544 22.0263
      vertex -39.8618 43.071 22.0263
    endloop
  endfacet
  facet normal 0 0 1
    outer loop
      vertex -36.8 45.686 22.0263
      vertex -39.8992 42.596 22.0263
      vertex -36.9 14.5577 22.0263
    endloop
  endfacet
  facet normal 0 0 1
    outer loop
      vertex -39.9 14.5577 22.0263
      vertex -39.8992 42.596 22.0263
      vertex -39.9 42.596 22.0263
    endloop
  endfacet
  facet normal 0 0 1
    outer loop
      vertex -39.8992 42.596 22.0263
      vertex -39.9 14.5577 22.0263
      vertex -36.9 14.5577 22.0263
    endloop
  endfacet
  facet normal 0 1 -0
    outer loop
      vertex 14.1 4.08603 21.2643
      vertex 11.1 4.08603 22.0263
      vertex 14.1 4.08603 22.0263
    endloop
  endfacet
  facet normal 0 1 0
    outer loop
      vertex 11.1 4.08603 22.0263
      vertex 14.1 4.08603 21.2643
      vertex 11.1 4.08603 21.2643
    endloop
  endfacet
  facet normal 1 -0 0
    outer loop
      vertex 11.1 4.08603 22.0263
      vertex 11.1 14.5577 21.2643
      vertex 11.1 14.5577 22.0263
    endloop
  endfacet
  facet normal 1 0 0
    outer loop
      vertex 11.1 14.5577 21.2643
      vertex 11.1 4.08603 22.0263
      vertex 11.1 4.08603 21.2643
    endloop
  endfacet
  facet normal 0 -1 0
    outer loop
      vertex 11.1 14.5577 21.2643
      vertex 14.1 14.5577 22.0263
      vertex 11.1 14.5577 22.0263
    endloop
  endfacet
  facet normal 0 -1 -0
    outer loop
      vertex 14.1 14.5577 22.0263
      vertex 11.1 14.5577 21.2643
      vertex 14.1 14.5577 21.2643
    endloop
  endfacet
  facet normal 1 -0 0
    outer loop
      vertex 14.1 14.5577 22.0263
      vertex 14.1 42.596 21.2643
      vertex 14.1 42.596 22.0263
    endloop
  endfacet
  facet normal 1 0 0
    outer loop
      vertex 14.1 42.596 21.2643
      vertex 14.1 14.5577 22.0263
      vertex 14.1 14.5577 21.2643
    endloop
  endfacet
  facet normal 0 1 -0
    outer loop
      vertex 14.1 42.596 21.2643
      vertex 14.0992 42.596 22.0263
      vertex 14.1 42.596 22.0263
    endloop
  endfacet
  facet normal 0 1 0
    outer loop
      vertex 14.0992 42.596 22.0263
      vertex 14.1 42.596 21.2643
      vertex 14.0992 42.596 21.2643
    endloop
  endfacet
  facet normal 0.996915 0.0784939 0
    outer loop
      vertex 14.0992 42.596 22.0263
      vertex 14.0618 43.071 21.2643
      vertex 14.0618 43.071 22.0263
    endloop
  endfacet
  facet normal 0.996915 0.0784939 0
    outer loop
      vertex 14.0618 43.071 21.2643
      vertex 14.0992 42.596 22.0263
      vertex 14.0992 42.596 21.2643
    endloop
  endfacet
  facet normal 0.972397 0.233334 0
    outer loop
      vertex 14.0618 43.071 22.0263
      vertex 13.9483 43.544 21.2643
      vertex 13.9483 43.544 22.0263
    endloop
  endfacet
  facet normal 0.972397 0.233334 0
    outer loop
      vertex 13.9483 43.544 21.2643
      vertex 14.0618 43.071 22.0263
      vertex 14.0618 43.071 21.2643
    endloop
  endfacet
  facet normal 0.923841 0.382775 0
    outer loop
      vertex 13.9483 43.544 22.0263
      vertex 13.7621 43.9934 21.2643
      vertex 13.7621 43.9934 22.0263
    endloop
  endfacet
  facet normal 0.923841 0.382775 0
    outer loop
      vertex 13.7621 43.9934 21.2643
      vertex 13.9483 43.544 22.0263
      vertex 13.9483 43.544 21.2643
    endloop
  endfacet
  facet normal 0.852631 0.522514 0
    outer loop
      vertex 13.7621 43.9934 22.0263
      vertex 13.5079 44.4082 21.2643
      vertex 13.5079 44.4082 22.0263
    endloop
  endfacet
  facet normal 0.852631 0.522514 0
    outer loop
      vertex 13.5079 44.4082 21.2643
      vertex 13.7621 43.9934 22.0263
      vertex 13.7621 43.9934 21.2643
    endloop
  endfacet
  facet normal 0.760431 0.649419 0
    outer loop
      vertex 13.5079 44.4082 22.0263
      vertex 13.192 44.7781 21.2643
      vertex 13.192 44.7781 22.0263
    endloop
  endfacet
  facet normal 0.760431 0.649419 0
    outer loop
      vertex 13.192 44.7781 21.2643
      vertex 13.5079 44.4082 22.0263
      vertex 13.5079 44.4082 21.2643
    endloop
  endfacet
  facet normal 0.649419 0.760431 -0
    outer loop
      vertex 13.192 44.7781 21.2643
      vertex 12.8221 45.094 22.0263
      vertex 13.192 44.7781 22.0263
    endloop
  endfacet
  facet normal 0.649419 0.760431 0
    outer loop
      vertex 12.8221 45.094 22.0263
      vertex 13.192 44.7781 21.2643
      vertex 12.8221 45.094 21.2643
    endloop
  endfacet
  facet normal 0.522456 0.852666 -0
    outer loop
      vertex 12.8221 45.094 21.2643
      vertex 12.4074 45.3481 22.0263
      vertex 12.8221 45.094 22.0263
    endloop
  endfacet
  facet normal 0.522456 0.852666 0
    outer loop
      vertex 12.4074 45.3481 22.0263
      vertex 12.8221 45.094 21.2643
      vertex 12.4074 45.3481 21.2643
    endloop
  endfacet
  facet normal 0.382703 0.923872 -0
    outer loop
      vertex 12.4074 45.3481 21.2643
      vertex 11.9579 45.5343 22.0263
      vertex 12.4074 45.3481 22.0263
    endloop
  endfacet
  facet normal 0.382703 0.923872 0
    outer loop
      vertex 11.9579 45.5343 22.0263
      vertex 12.4074 45.3481 21.2643
      vertex 11.9579 45.5343 21.2643
    endloop
  endfacet
  facet normal 0.233528 0.97235 -0
    outer loop
      vertex 11.9579 45.5343 21.2643
      vertex 11.4849 45.6479 22.0263
      vertex 11.9579 45.5343 22.0263
    endloop
  endfacet
  facet normal 0.233528 0.97235 0
    outer loop
      vertex 11.4849 45.6479 22.0263
      vertex 11.9579 45.5343 21.2643
      vertex 11.4849 45.6479 21.2643
    endloop
  endfacet
  facet normal 0.0783315 0.996927 -0
    outer loop
      vertex 11.4849 45.6479 21.2643
      vertex 11 45.686 22.0263
      vertex 11.4849 45.6479 22.0263
    endloop
  endfacet
  facet normal 0.0783315 0.996927 0
    outer loop
      vertex 11 45.686 22.0263
      vertex 11.4849 45.6479 21.2643
      vertex 11 45.686 21.2643
    endloop
  endfacet
  facet normal 0 1 -0
    outer loop
      vertex 11 45.686 21.2643
      vertex -36.8 45.686 22.0263
      vertex 11 45.686 22.0263
    endloop
  endfacet
  facet normal 0 1 0
    outer loop
      vertex -36.8 45.686 22.0263
      vertex 11 45.686 21.2643
      vertex -36.8 45.686 21.2643
    endloop
  endfacet
  facet normal -0.0783154 0.996929 0
    outer loop
      vertex -36.8 45.686 21.2643
      vertex -37.285 45.6479 22.0263
      vertex -36.8 45.686 22.0263
    endloop
  endfacet
  facet normal -0.0783154 0.996929 0
    outer loop
      vertex -37.285 45.6479 22.0263
      vertex -36.8 45.686 21.2643
      vertex -37.285 45.6479 21.2643
    endloop
  endfacet
  facet normal -0.233528 0.97235 0
    outer loop
      vertex -37.285 45.6479 21.2643
      vertex -37.758 45.5343 22.0263
      vertex -37.285 45.6479 22.0263
    endloop
  endfacet
  facet normal -0.233528 0.97235 0
    outer loop
      vertex -37.758 45.5343 22.0263
      vertex -37.285 45.6479 21.2643
      vertex -37.758 45.5343 21.2643
    endloop
  endfacet
  facet normal -0.382775 0.923841 0
    outer loop
      vertex -37.758 45.5343 21.2643
      vertex -38.2074 45.3481 22.0263
      vertex -37.758 45.5343 22.0263
    endloop
  endfacet
  facet normal -0.382775 0.923841 0
    outer loop
      vertex -38.2074 45.3481 22.0263
      vertex -37.758 45.5343 21.2643
      vertex -38.2074 45.3481 21.2643
    endloop
  endfacet
  facet normal -0.522456 0.852666 0
    outer loop
      vertex -38.2074 45.3481 21.2643
      vertex -38.6221 45.094 22.0263
      vertex -38.2074 45.3481 22.0263
    endloop
  endfacet
  facet normal -0.522456 0.852666 0
    outer loop
      vertex -38.6221 45.094 22.0263
      vertex -38.2074 45.3481 21.2643
      vertex -38.6221 45.094 21.2643
    endloop
  endfacet
  facet normal -0.649419 0.760431 0
    outer loop
      vertex -38.6221 45.094 21.2643
      vertex -38.992 44.7781 22.0263
      vertex -38.6221 45.094 22.0263
    endloop
  endfacet
  facet normal -0.649419 0.760431 0
    outer loop
      vertex -38.992 44.7781 22.0263
      vertex -38.6221 45.094 21.2643
      vertex -38.992 44.7781 21.2643
    endloop
  endfacet
  facet normal -0.760329 0.649538 0
    outer loop
      vertex -39.308 44.4082 21.2643
      vertex -38.992 44.7781 22.0263
      vertex -38.992 44.7781 21.2643
    endloop
  endfacet
  facet normal -0.760329 0.649538 0
    outer loop
      vertex -38.992 44.7781 22.0263
      vertex -39.308 44.4082 21.2643
      vertex -39.308 44.4082 22.0263
    endloop
  endfacet
  facet normal -0.852722 0.522364 0
    outer loop
      vertex -39.5621 43.9934 21.2643
      vertex -39.308 44.4082 22.0263
      vertex -39.308 44.4082 21.2643
    endloop
  endfacet
  facet normal -0.852722 0.522364 0
    outer loop
      vertex -39.308 44.4082 22.0263
      vertex -39.5621 43.9934 21.2643
      vertex -39.5621 43.9934 22.0263
    endloop
  endfacet
  facet normal -0.923841 0.382775 0
    outer loop
      vertex -39.7483 43.544 21.2643
      vertex -39.5621 43.9934 22.0263
      vertex -39.5621 43.9934 21.2643
    endloop
  endfacet
  facet normal -0.923841 0.382775 0
    outer loop
      vertex -39.5621 43.9934 22.0263
      vertex -39.7483 43.544 21.2643
      vertex -39.7483 43.544 22.0263
    endloop
  endfacet
  facet normal -0.972397 0.233334 0
    outer loop
      vertex -39.8618 43.071 21.2643
      vertex -39.7483 43.544 22.0263
      vertex -39.7483 43.544 21.2643
    endloop
  endfacet
  facet normal -0.972397 0.233334 0
    outer loop
      vertex -39.7483 43.544 22.0263
      vertex -39.8618 43.071 21.2643
      vertex -39.8618 43.071 22.0263
    endloop
  endfacet
  facet normal -0.996915 0.0784939 0
    outer loop
      vertex -39.8992 42.596 21.2643
      vertex -39.8618 43.071 22.0263
      vertex -39.8618 43.071 21.2643
    endloop
  endfacet
  facet normal -0.996915 0.0784939 0
    outer loop
      vertex -39.8618 43.071 22.0263
      vertex -39.8992 42.596 21.2643
      vertex -39.8992 42.596 22.0263
    endloop
  endfacet
  facet normal 0 1 -0
    outer loop
      vertex -39.8992 42.596 21.2643
      vertex -39.9 42.596 22.0263
      vertex -39.8992 42.596 22.0263
    endloop
  endfacet
  facet normal 0 1 0
    outer loop
      vertex -39.9 42.596 22.0263
      vertex -39.8992 42.596 21.2643
      vertex -39.9 42.596 21.2643
    endloop
  endfacet
  facet normal -1 0 0
    outer loop
      vertex -39.9 14.5577 21.2643
      vertex -39.9 42.596 22.0263
      vertex -39.9 42.596 21.2643
    endloop
  endfacet
  facet normal -1 -0 0
    outer loop
      vertex -39.9 42.596 22.0263
      vertex -39.9 14.5577 21.2643
      vertex -39.9 14.5577 22.0263
    endloop
  endfacet
  facet normal 0 -1 0
    outer loop
      vertex -39.9 14.5577 21.2643
      vertex -36.9 14.5577 22.0263
      vertex -39.9 14.5577 22.0263
    endloop
  endfacet
  facet normal 0 -1 -0
    outer loop
      vertex -36.9 14.5577 22.0263
      vertex -39.9 14.5577 21.2643
      vertex -36.9 14.5577 21.2643
    endloop
  endfacet
  facet normal -1 0 0
    outer loop
      vertex -36.9 4.08603 21.2643
      vertex -36.9 14.5577 22.0263
      vertex -36.9 14.5577 21.2643
    endloop
  endfacet
  facet normal -1 -0 0
    outer loop
      vertex -36.9 14.5577 22.0263
      vertex -36.9 4.08603 21.2643
      vertex -36.9 4.08603 22.0263
    endloop
  endfacet
  facet normal 0 1 -0
    outer loop
      vertex -36.9 4.08603 21.2643
      vertex -39.9 4.08603 22.0263
      vertex -36.9 4.08603 22.0263
    endloop
  endfacet
  facet normal 0 1 0
    outer loop
      vertex -39.9 4.08603 22.0263
      vertex -36.9 4.08603 21.2643
      vertex -39.9 4.08603 21.2643
    endloop
  endfacet
  facet normal -1 0 0
    outer loop
      vertex -39.9 2.68604 21.2643
      vertex -39.9 4.08603 22.0263
      vertex -39.9 4.08603 21.2643
    endloop
  endfacet
  facet normal -1 -0 0
    outer loop
      vertex -39.9 4.08603 22.0263
      vertex -39.9 2.68604 21.2643
      vertex -39.9 2.68604 22.0263
    endloop
  endfacet
  facet normal 0 -1 0
    outer loop
      vertex -39.9 2.68604 22.0263
      vertex -21.0865 2.68604 21.7363
      vertex -21.0865 2.68604 22.0263
    endloop
  endfacet
  facet normal 0 -1 -0
    outer loop
      vertex -21.0865 2.68604 21.7363
      vertex -39.9 2.68604 21.2643
      vertex -5.89537 2.68604 21.7363
    endloop
  endfacet
  facet normal 0 -1 0
    outer loop
      vertex -39.9 2.68604 21.2643
      vertex -21.0865 2.68604 21.7363
      vertex -39.9 2.68604 22.0263
    endloop
  endfacet
  facet normal 0 -1 0
    outer loop
      vertex -5.89537 2.68604 21.7363
      vertex 14.1 2.68604 22.0263
      vertex -5.89537 2.68604 22.0263
    endloop
  endfacet
  facet normal 0 -1 0
    outer loop
      vertex -5.89537 2.68604 21.7363
      vertex 14.1 2.68604 21.2643
      vertex 14.1 2.68604 22.0263
    endloop
  endfacet
  facet normal 0 -1 0
    outer loop
      vertex 14.1 2.68604 21.2643
      vertex -5.89537 2.68604 21.7363
      vertex -39.9 2.68604 21.2643
    endloop
  endfacet
  facet normal 1 -0 0
    outer loop
      vertex 14.1 2.68604 22.0263
      vertex 14.1 4.08603 21.2643
      vertex 14.1 4.08603 22.0263
    endloop
  endfacet
  facet normal 1 0 0
    outer loop
      vertex 14.1 4.08603 21.2643
      vertex 14.1 2.68604 22.0263
      vertex 14.1 2.68604 21.2643
    endloop
  endfacet
endsolid OpenSCAD_Model
