solid OpenSCAD_Model
  facet normal -0.998968 0.0454154 0
    outer loop
      vertex -21.0905 0.611011 21.7361
      vertex -21.086 0.709994 22.0361
      vertex -21.086 0.709994 21.7361
    endloop
  endfacet
  facet normal -0.998968 0.0454154 0
    outer loop
      vertex -21.086 0.709994 22.0361
      vertex -21.0905 0.611011 21.7361
      vertex -21.0905 0.611011 22.0361
    endloop
  endfacet
  facet normal 0.224265 -0.974528 0
    outer loop
      vertex -11.808 -6.49124 21.7361
      vertex -11.0326 -6.3128 22.0361
      vertex -11.808 -6.49124 22.0361
    endloop
  endfacet
  facet normal 0.224265 -0.974528 0
    outer loop
      vertex -11.0326 -6.3128 22.0361
      vertex -11.808 -6.49124 21.7361
      vertex -11.0326 -6.3128 21.7361
    endloop
  endfacet
  facet normal 0.999058 0.0434009 0
    outer loop
      vertex -5.8915 0.611011 22.0361
      vertex -5.8958 0.709994 21.7361
      vertex -5.8958 0.709994 22.0361
    endloop
  endfacet
  facet normal 0.999058 0.0434009 0
    outer loop
      vertex -5.8958 0.709994 21.7361
      vertex -5.8915 0.611011 22.0361
      vertex -5.8915 0.611011 21.7361
    endloop
  endfacet
  facet normal 0.999102 -0.0423775 0
    outer loop
      vertex -5.9235 -0.143429 22.0361
      vertex -5.8915 0.611011 21.7361
      vertex -5.8915 0.611011 22.0361
    endloop
  endfacet
  facet normal 0.999102 -0.0423775 0
    outer loop
      vertex -5.8915 0.611011 21.7361
      vertex -5.9235 -0.143429 22.0361
      vertex -5.9235 -0.143429 21.7361
    endloop
  endfacet
  facet normal 0.323348 -0.94628 0
    outer loop
      vertex -11.0326 -6.3128 21.7361
      vertex -10.3015 -6.06298 22.0361
      vertex -11.0326 -6.3128 22.0361
    endloop
  endfacet
  facet normal 0.323348 -0.94628 0
    outer loop
      vertex -10.3015 -6.06298 22.0361
      vertex -11.0326 -6.3128 21.7361
      vertex -10.3015 -6.06298 21.7361
    endloop
  endfacet
  facet normal 0 1 -0
    outer loop
      vertex -5.8958 0.709994 21.7361
      vertex -21.086 0.709994 22.0361
      vertex -5.8958 0.709994 22.0361
    endloop
  endfacet
  facet normal 0 1 0
    outer loop
      vertex -21.086 0.709994 22.0361
      vertex -5.8958 0.709994 21.7361
      vertex -21.086 0.709994 21.7361
    endloop
  endfacet
  facet normal 0 0 -1
    outer loop
      vertex -5.9235 -0.143429 21.7361
      vertex -5.8958 0.709994 21.7361
      vertex -5.8915 0.611011 21.7361
    endloop
  endfacet
  facet normal 0 0 -1
    outer loop
      vertex -10.3015 -6.06298 21.7361
      vertex -5.9235 -0.143429 21.7361
      vertex -6.01949 -0.870739 21.7361
    endloop
  endfacet
  facet normal 0 0 -1
    outer loop
      vertex -9.62 -5.75331 21.7361
      vertex -6.01949 -0.870739 21.7361
      vertex -6.1795 -1.57093 21.7361
    endloop
  endfacet
  facet normal 0 0 -1
    outer loop
      vertex -9.62 -5.75331 21.7361
      vertex -6.1795 -1.57093 21.7361
      vertex -6.40349 -2.24398 21.7361
    endloop
  endfacet
  facet normal 0 0 -1
    outer loop
      vertex -8.9925 -5.39424 21.7361
      vertex -6.40349 -2.24398 21.7361
      vertex -6.689 -2.88136 21.7361
    endloop
  endfacet
  facet normal 0 0 -1
    outer loop
      vertex -7.437 -4.02337 21.7361
      vertex -6.689 -2.88136 21.7361
      vertex -7.0335 -3.4745 21.7361
    endloop
  endfacet
  facet normal 0 0 -1
    outer loop
      vertex -7.8995 -4.528 21.7361
      vertex -6.689 -2.88136 21.7361
      vertex -7.437 -4.02337 21.7361
    endloop
  endfacet
  facet normal 0 0 -1
    outer loop
      vertex -8.419 -4.98581 21.7361
      vertex -6.689 -2.88136 21.7361
      vertex -7.8995 -4.528 21.7361
    endloop
  endfacet
  facet normal 0 0 -1
    outer loop
      vertex -8.9925 -5.39424 21.7361
      vertex -6.689 -2.88136 21.7361
      vertex -8.419 -4.98581 21.7361
    endloop
  endfacet
  facet normal 0 0 -1
    outer loop
      vertex -9.62 -5.75331 21.7361
      vertex -6.40349 -2.24398 21.7361
      vertex -8.9925 -5.39424 21.7361
    endloop
  endfacet
  facet normal 0 0 -1
    outer loop
      vertex -10.3015 -6.06298 21.7361
      vertex -6.01949 -0.870739 21.7361
      vertex -9.62 -5.75331 21.7361
    endloop
  endfacet
  facet normal -0 0 -1
    outer loop
      vertex -5.9235 -0.143429 21.7361
      vertex -10.3015 -6.06298 21.7361
      vertex -5.8958 0.709994 21.7361
    endloop
  endfacet
  facet normal 0 0 -1
    outer loop
      vertex -11.0326 -6.3128 21.7361
      vertex -5.8958 0.709994 21.7361
      vertex -10.3015 -6.06298 21.7361
    endloop
  endfacet
  facet normal 0 0 -1
    outer loop
      vertex -11.808 -6.49124 21.7361
      vertex -5.8958 0.709994 21.7361
      vertex -11.0326 -6.3128 21.7361
    endloop
  endfacet
  facet normal 0 0 -1
    outer loop
      vertex -12.6276 -6.59831 21.7361
      vertex -5.8958 0.709994 21.7361
      vertex -11.808 -6.49124 21.7361
    endloop
  endfacet
  facet normal 0 0 -1
    outer loop
      vertex -13.4915 -6.634 21.7361
      vertex -5.8958 0.709994 21.7361
      vertex -12.6276 -6.59831 21.7361
    endloop
  endfacet
  facet normal 0 0 -1
    outer loop
      vertex -21.086 0.709994 21.7361
      vertex -13.4915 -6.634 21.7361
      vertex -14.3553 -6.59831 21.7361
    endloop
  endfacet
  facet normal 0 0 -1
    outer loop
      vertex -21.086 0.709994 21.7361
      vertex -14.3553 -6.59831 21.7361
      vertex -15.1747 -6.49124 21.7361
    endloop
  endfacet
  facet normal 0 0 -1
    outer loop
      vertex -21.086 0.709994 21.7361
      vertex -15.1747 -6.49124 21.7361
      vertex -15.9498 -6.3128 21.7361
    endloop
  endfacet
  facet normal 0 0 -1
    outer loop
      vertex -21.086 0.709994 21.7361
      vertex -15.9498 -6.3128 21.7361
      vertex -16.6805 -6.06298 21.7361
    endloop
  endfacet
  facet normal 0 0 -1
    outer loop
      vertex -21.0572 -0.143429 21.7361
      vertex -16.6805 -6.06298 21.7361
      vertex -17.3611 -5.75331 21.7361
    endloop
  endfacet
  facet normal 0 0 -1
    outer loop
      vertex -20.7912 -1.57093 21.7361
      vertex -17.3611 -5.75331 21.7361
      vertex -17.985 -5.39424 21.7361
    endloop
  endfacet
  facet normal 0 0 -1
    outer loop
      vertex -20.7912 -1.57093 21.7361
      vertex -17.985 -5.39424 21.7361
      vertex -18.5521 -4.98581 21.7361
    endloop
  endfacet
  facet normal 0 0 -1
    outer loop
      vertex -20.7912 -1.57093 21.7361
      vertex -18.5521 -4.98581 21.7361
      vertex -19.0625 -4.528 21.7361
    endloop
  endfacet
  facet normal 0 0 -1
    outer loop
      vertex -20.7912 -1.57093 21.7361
      vertex -19.0625 -4.528 21.7361
      vertex -19.5179 -4.02337 21.7361
    endloop
  endfacet
  facet normal 0 0 -1
    outer loop
      vertex -20.2659 -2.88136 21.7361
      vertex -19.5179 -4.02337 21.7361
      vertex -19.919 -3.4745 21.7361
    endloop
  endfacet
  facet normal 0 0 -1
    outer loop
      vertex -20.5585 -2.24398 21.7361
      vertex -19.5179 -4.02337 21.7361
      vertex -20.2659 -2.88136 21.7361
    endloop
  endfacet
  facet normal 0 0 -1
    outer loop
      vertex -20.7912 -1.57093 21.7361
      vertex -19.5179 -4.02337 21.7361
      vertex -20.5585 -2.24398 21.7361
    endloop
  endfacet
  facet normal 0 0 -1
    outer loop
      vertex -17.3611 -5.75331 21.7361
      vertex -20.7912 -1.57093 21.7361
      vertex -20.9575 -0.870739 21.7361
    endloop
  endfacet
  facet normal 0 0 -1
    outer loop
      vertex -17.3611 -5.75331 21.7361
      vertex -20.9575 -0.870739 21.7361
      vertex -21.0572 -0.143429 21.7361
    endloop
  endfacet
  facet normal 0 0 -1
    outer loop
      vertex -16.6805 -6.06298 21.7361
      vertex -21.0572 -0.143429 21.7361
      vertex -21.086 0.709994 21.7361
    endloop
  endfacet
  facet normal 0 0 -1
    outer loop
      vertex -13.4915 -6.634 21.7361
      vertex -21.086 0.709994 21.7361
      vertex -5.8958 0.709994 21.7361
    endloop
  endfacet
  facet normal 0 -0 -1
    outer loop
      vertex -21.086 0.709994 21.7361
      vertex -21.0572 -0.143429 21.7361
      vertex -21.0905 0.611011 21.7361
    endloop
  endfacet
  facet normal 0.737211 -0.675663 0
    outer loop
      vertex -7.8995 -4.528 22.0361
      vertex -7.437 -4.02337 21.7361
      vertex -7.437 -4.02337 22.0361
    endloop
  endfacet
  facet normal 0.737211 -0.675663 0
    outer loop
      vertex -7.437 -4.02337 21.7361
      vertex -7.8995 -4.528 22.0361
      vertex -7.8995 -4.528 21.7361
    endloop
  endfacet
  facet normal -0.414142 -0.910212 0
    outer loop
      vertex -17.3611 -5.75331 21.7361
      vertex -16.6805 -6.06298 22.0361
      vertex -17.3611 -5.75331 22.0361
    endloop
  endfacet
  facet normal -0.414142 -0.910212 -0
    outer loop
      vertex -16.6805 -6.06298 22.0361
      vertex -17.3611 -5.75331 21.7361
      vertex -16.6805 -6.06298 21.7361
    endloop
  endfacet
  facet normal -0.908812 -0.417206 0
    outer loop
      vertex -20.2659 -2.88136 21.7361
      vertex -20.5585 -2.24398 22.0361
      vertex -20.5585 -2.24398 21.7361
    endloop
  endfacet
  facet normal -0.908812 -0.417206 0
    outer loop
      vertex -20.5585 -2.24398 22.0361
      vertex -20.2659 -2.88136 21.7361
      vertex -20.2659 -2.88136 22.0361
    endloop
  endfacet
  facet normal 0.974869 -0.22278 0
    outer loop
      vertex -6.1795 -1.57093 22.0361
      vertex -6.01949 -0.870739 21.7361
      vertex -6.01949 -0.870739 22.0361
    endloop
  endfacet
  facet normal 0.974869 -0.22278 0
    outer loop
      vertex -6.01949 -0.870739 21.7361
      vertex -6.1795 -1.57093 22.0361
      vertex -6.1795 -1.57093 21.7361
    endloop
  endfacet
  facet normal 0.864728 -0.50224 0
    outer loop
      vertex -7.0335 -3.4745 22.0361
      vertex -6.689 -2.88136 21.7361
      vertex -6.689 -2.88136 22.0361
    endloop
  endfacet
  facet normal 0.864728 -0.50224 0
    outer loop
      vertex -6.689 -2.88136 21.7361
      vertex -7.0335 -3.4745 22.0361
      vertex -7.0335 -3.4745 21.7361
    endloop
  endfacet
  facet normal 0.805708 -0.592313 0
    outer loop
      vertex -7.437 -4.02337 22.0361
      vertex -7.0335 -3.4745 21.7361
      vertex -7.0335 -3.4745 22.0361
    endloop
  endfacet
  facet normal 0.805708 -0.592313 0
    outer loop
      vertex -7.0335 -3.4745 21.7361
      vertex -7.437 -4.02337 22.0361
      vertex -7.437 -4.02337 21.7361
    endloop
  endfacet
  facet normal 0.413689 -0.910418 0
    outer loop
      vertex -10.3015 -6.06298 21.7361
      vertex -9.62 -5.75331 22.0361
      vertex -10.3015 -6.06298 22.0361
    endloop
  endfacet
  facet normal 0.413689 -0.910418 0
    outer loop
      vertex -9.62 -5.75331 22.0361
      vertex -10.3015 -6.06298 21.7361
      vertex -9.62 -5.75331 21.7361
    endloop
  endfacet
  facet normal -0.584416 -0.811454 0
    outer loop
      vertex -18.5521 -4.98581 21.7361
      vertex -17.985 -5.39424 22.0361
      vertex -18.5521 -4.98581 22.0361
    endloop
  endfacet
  facet normal -0.584416 -0.811454 -0
    outer loop
      vertex -17.985 -5.39424 22.0361
      vertex -18.5521 -4.98581 21.7361
      vertex -17.985 -5.39424 21.7361
    endloop
  endfacet
  facet normal 0.129536 -0.991575 0
    outer loop
      vertex -12.6276 -6.59831 21.7361
      vertex -11.808 -6.49124 22.0361
      vertex -12.6276 -6.59831 22.0361
    endloop
  endfacet
  facet normal 0.129536 -0.991575 0
    outer loop
      vertex -11.808 -6.49124 22.0361
      vertex -12.6276 -6.59831 21.7361
      vertex -11.808 -6.49124 21.7361
    endloop
  endfacet
  facet normal -0.224347 -0.974509 0
    outer loop
      vertex -15.9498 -6.3128 21.7361
      vertex -15.1747 -6.49124 22.0361
      vertex -15.9498 -6.3128 22.0361
    endloop
  endfacet
  facet normal -0.224347 -0.974509 -0
    outer loop
      vertex -15.1747 -6.49124 22.0361
      vertex -15.9498 -6.3128 21.7361
      vertex -15.1747 -6.49124 21.7361
    endloop
  endfacet
  facet normal 0.991403 -0.130845 0
    outer loop
      vertex -6.01949 -0.870739 22.0361
      vertex -5.9235 -0.143429 21.7361
      vertex -5.9235 -0.143429 22.0361
    endloop
  endfacet
  facet normal 0.991403 -0.130845 0
    outer loop
      vertex -5.9235 -0.143429 21.7361
      vertex -6.01949 -0.870739 22.0361
      vertex -6.01949 -0.870739 21.7361
    endloop
  endfacet
  facet normal -0.498813 -0.86671 0
    outer loop
      vertex -17.985 -5.39424 21.7361
      vertex -17.3611 -5.75331 22.0361
      vertex -17.985 -5.39424 22.0361
    endloop
  endfacet
  facet normal -0.498813 -0.86671 -0
    outer loop
      vertex -17.3611 -5.75331 22.0361
      vertex -17.985 -5.39424 21.7361
      vertex -17.3611 -5.75331 21.7361
    endloop
  endfacet
  facet normal 0.661157 -0.750248 0
    outer loop
      vertex -8.419 -4.98581 21.7361
      vertex -7.8995 -4.528 22.0361
      vertex -8.419 -4.98581 22.0361
    endloop
  endfacet
  facet normal 0.661157 -0.750248 0
    outer loop
      vertex -7.8995 -4.528 22.0361
      vertex -8.419 -4.98581 21.7361
      vertex -7.8995 -4.528 21.7361
    endloop
  endfacet
  facet normal -0.742392 -0.669966 0
    outer loop
      vertex -19.0625 -4.528 21.7361
      vertex -19.5179 -4.02337 22.0361
      vertex -19.5179 -4.02337 21.7361
    endloop
  endfacet
  facet normal -0.742392 -0.669966 0
    outer loop
      vertex -19.5179 -4.02337 22.0361
      vertex -19.0625 -4.528 21.7361
      vertex -19.0625 -4.528 22.0361
    endloop
  endfacet
  facet normal -0.863207 -0.50485 0
    outer loop
      vertex -19.919 -3.4745 21.7361
      vertex -20.2659 -2.88136 22.0361
      vertex -20.2659 -2.88136 21.7361
    endloop
  endfacet
  facet normal -0.863207 -0.50485 0
    outer loop
      vertex -20.2659 -2.88136 22.0361
      vertex -19.919 -3.4745 21.7361
      vertex -19.919 -3.4745 22.0361
    endloop
  endfacet
  facet normal 0.912623 -0.408803 0
    outer loop
      vertex -6.689 -2.88136 22.0361
      vertex -6.40349 -2.24398 21.7361
      vertex -6.40349 -2.24398 22.0361
    endloop
  endfacet
  facet normal 0.912623 -0.408803 0
    outer loop
      vertex -6.40349 -2.24398 21.7361
      vertex -6.689 -2.88136 22.0361
      vertex -6.689 -2.88136 21.7361
    endloop
  endfacet
  facet normal -0.667715 -0.744417 0
    outer loop
      vertex -19.0625 -4.528 21.7361
      vertex -18.5521 -4.98581 22.0361
      vertex -19.0625 -4.528 22.0361
    endloop
  endfacet
  facet normal -0.667715 -0.744417 -0
    outer loop
      vertex -18.5521 -4.98581 22.0361
      vertex -19.0625 -4.528 21.7361
      vertex -18.5521 -4.98581 21.7361
    endloop
  endfacet
  facet normal 0.948835 -0.315771 0
    outer loop
      vertex -6.40349 -2.24398 22.0361
      vertex -6.1795 -1.57093 21.7361
      vertex -6.1795 -1.57093 22.0361
    endloop
  endfacet
  facet normal 0.948835 -0.315771 0
    outer loop
      vertex -6.1795 -1.57093 21.7361
      vertex -6.40349 -2.24398 22.0361
      vertex -6.40349 -2.24398 21.7361
    endloop
  endfacet
  facet normal 0 0 1
    outer loop
      vertex -5.8958 0.709994 22.0361
      vertex -5.9235 -0.143429 22.0361
      vertex -5.8915 0.611011 22.0361
    endloop
  endfacet
  facet normal 0 0 1
    outer loop
      vertex -10.3015 -6.06298 22.0361
      vertex -5.9235 -0.143429 22.0361
      vertex -5.8958 0.709994 22.0361
    endloop
  endfacet
  facet normal 0 0 1
    outer loop
      vertex -5.9235 -0.143429 22.0361
      vertex -10.3015 -6.06298 22.0361
      vertex -6.01949 -0.870739 22.0361
    endloop
  endfacet
  facet normal 0 0 1
    outer loop
      vertex -6.01949 -0.870739 22.0361
      vertex -9.62 -5.75331 22.0361
      vertex -6.1795 -1.57093 22.0361
    endloop
  endfacet
  facet normal 0 0 1
    outer loop
      vertex -6.1795 -1.57093 22.0361
      vertex -9.62 -5.75331 22.0361
      vertex -6.40349 -2.24398 22.0361
    endloop
  endfacet
  facet normal 0 0 1
    outer loop
      vertex -6.40349 -2.24398 22.0361
      vertex -8.9925 -5.39424 22.0361
      vertex -6.689 -2.88136 22.0361
    endloop
  endfacet
  facet normal 0 0 1
    outer loop
      vertex -6.689 -2.88136 22.0361
      vertex -7.437 -4.02337 22.0361
      vertex -7.0335 -3.4745 22.0361
    endloop
  endfacet
  facet normal 0 0 1
    outer loop
      vertex -6.689 -2.88136 22.0361
      vertex -7.8995 -4.528 22.0361
      vertex -7.437 -4.02337 22.0361
    endloop
  endfacet
  facet normal 0 0 1
    outer loop
      vertex -6.689 -2.88136 22.0361
      vertex -8.419 -4.98581 22.0361
      vertex -7.8995 -4.528 22.0361
    endloop
  endfacet
  facet normal 0 0 1
    outer loop
      vertex -6.689 -2.88136 22.0361
      vertex -8.9925 -5.39424 22.0361
      vertex -8.419 -4.98581 22.0361
    endloop
  endfacet
  facet normal 0 0 1
    outer loop
      vertex -6.40349 -2.24398 22.0361
      vertex -9.62 -5.75331 22.0361
      vertex -8.9925 -5.39424 22.0361
    endloop
  endfacet
  facet normal 0 0 1
    outer loop
      vertex -6.01949 -0.870739 22.0361
      vertex -10.3015 -6.06298 22.0361
      vertex -9.62 -5.75331 22.0361
    endloop
  endfacet
  facet normal 0 0 1
    outer loop
      vertex -5.8958 0.709994 22.0361
      vertex -11.0326 -6.3128 22.0361
      vertex -10.3015 -6.06298 22.0361
    endloop
  endfacet
  facet normal 0 0 1
    outer loop
      vertex -5.8958 0.709994 22.0361
      vertex -11.808 -6.49124 22.0361
      vertex -11.0326 -6.3128 22.0361
    endloop
  endfacet
  facet normal 0 0 1
    outer loop
      vertex -5.8958 0.709994 22.0361
      vertex -12.6276 -6.59831 22.0361
      vertex -11.808 -6.49124 22.0361
    endloop
  endfacet
  facet normal 0 0 1
    outer loop
      vertex -5.8958 0.709994 22.0361
      vertex -13.4915 -6.634 22.0361
      vertex -12.6276 -6.59831 22.0361
    endloop
  endfacet
  facet normal -0 0 1
    outer loop
      vertex -21.086 0.709994 22.0361
      vertex -13.4915 -6.634 22.0361
      vertex -5.8958 0.709994 22.0361
    endloop
  endfacet
  facet normal 0 0 1
    outer loop
      vertex -13.4915 -6.634 22.0361
      vertex -21.086 0.709994 22.0361
      vertex -14.3553 -6.59831 22.0361
    endloop
  endfacet
  facet normal 0 0 1
    outer loop
      vertex -14.3553 -6.59831 22.0361
      vertex -21.086 0.709994 22.0361
      vertex -15.1747 -6.49124 22.0361
    endloop
  endfacet
  facet normal 0 0 1
    outer loop
      vertex -15.1747 -6.49124 22.0361
      vertex -21.086 0.709994 22.0361
      vertex -15.9498 -6.3128 22.0361
    endloop
  endfacet
  facet normal 0 0 1
    outer loop
      vertex -15.9498 -6.3128 22.0361
      vertex -21.086 0.709994 22.0361
      vertex -16.6805 -6.06298 22.0361
    endloop
  endfacet
  facet normal -0 -0 1
    outer loop
      vertex -21.0572 -0.143429 22.0361
      vertex -16.6805 -6.06298 22.0361
      vertex -21.086 0.709994 22.0361
    endloop
  endfacet
  facet normal 0 0 1
    outer loop
      vertex -16.6805 -6.06298 22.0361
      vertex -21.0572 -0.143429 22.0361
      vertex -17.3611 -5.75331 22.0361
    endloop
  endfacet
  facet normal -0 -0 1
    outer loop
      vertex -20.9575 -0.870739 22.0361
      vertex -17.3611 -5.75331 22.0361
      vertex -21.0572 -0.143429 22.0361
    endloop
  endfacet
  facet normal -0 -0 1
    outer loop
      vertex -20.7912 -1.57093 22.0361
      vertex -17.3611 -5.75331 22.0361
      vertex -20.9575 -0.870739 22.0361
    endloop
  endfacet
  facet normal 0 0 1
    outer loop
      vertex -17.985 -5.39424 22.0361
      vertex -20.7912 -1.57093 22.0361
      vertex -18.5521 -4.98581 22.0361
    endloop
  endfacet
  facet normal 0 0 1
    outer loop
      vertex -19.5179 -4.02337 22.0361
      vertex -20.2659 -2.88136 22.0361
      vertex -19.919 -3.4745 22.0361
    endloop
  endfacet
  facet normal 0 0 1
    outer loop
      vertex -19.5179 -4.02337 22.0361
      vertex -20.5585 -2.24398 22.0361
      vertex -20.2659 -2.88136 22.0361
    endloop
  endfacet
  facet normal 0 0 1
    outer loop
      vertex -19.5179 -4.02337 22.0361
      vertex -20.7912 -1.57093 22.0361
      vertex -20.5585 -2.24398 22.0361
    endloop
  endfacet
  facet normal 0 0 1
    outer loop
      vertex -19.0625 -4.528 22.0361
      vertex -20.7912 -1.57093 22.0361
      vertex -19.5179 -4.02337 22.0361
    endloop
  endfacet
  facet normal 0 0 1
    outer loop
      vertex -18.5521 -4.98581 22.0361
      vertex -20.7912 -1.57093 22.0361
      vertex -19.0625 -4.528 22.0361
    endloop
  endfacet
  facet normal 0 0 1
    outer loop
      vertex -17.3611 -5.75331 22.0361
      vertex -20.7912 -1.57093 22.0361
      vertex -17.985 -5.39424 22.0361
    endloop
  endfacet
  facet normal 0 0 1
    outer loop
      vertex -21.0572 -0.143429 22.0361
      vertex -21.086 0.709994 22.0361
      vertex -21.0905 0.611011 22.0361
    endloop
  endfacet
  facet normal 0.580097 -0.814547 0
    outer loop
      vertex -8.9925 -5.39424 21.7361
      vertex -8.419 -4.98581 22.0361
      vertex -8.9925 -5.39424 22.0361
    endloop
  endfacet
  facet normal 0.580097 -0.814547 0
    outer loop
      vertex -8.419 -4.98581 22.0361
      vertex -8.9925 -5.39424 21.7361
      vertex -8.419 -4.98581 21.7361
    endloop
  endfacet
  facet normal -0.323506 -0.946226 0
    outer loop
      vertex -16.6805 -6.06298 21.7361
      vertex -15.9498 -6.3128 22.0361
      vertex -16.6805 -6.06298 22.0361
    endloop
  endfacet
  facet normal -0.323506 -0.946226 -0
    outer loop
      vertex -15.9498 -6.3128 22.0361
      vertex -16.6805 -6.06298 21.7361
      vertex -15.9498 -6.3128 21.7361
    endloop
  endfacet
  facet normal -0.0412822 -0.999148 0
    outer loop
      vertex -14.3553 -6.59831 21.7361
      vertex -13.4915 -6.634 22.0361
      vertex -14.3553 -6.59831 22.0361
    endloop
  endfacet
  facet normal -0.0412822 -0.999148 -0
    outer loop
      vertex -13.4915 -6.634 22.0361
      vertex -14.3553 -6.59831 21.7361
      vertex -13.4915 -6.634 21.7361
    endloop
  endfacet
  facet normal 0.0412774 -0.999148 0
    outer loop
      vertex -13.4915 -6.634 21.7361
      vertex -12.6276 -6.59831 22.0361
      vertex -13.4915 -6.634 22.0361
    endloop
  endfacet
  facet normal 0.0412774 -0.999148 0
    outer loop
      vertex -12.6276 -6.59831 22.0361
      vertex -13.4915 -6.634 21.7361
      vertex -12.6276 -6.59831 21.7361
    endloop
  endfacet
  facet normal -0.129567 -0.991571 0
    outer loop
      vertex -15.1747 -6.49124 21.7361
      vertex -14.3553 -6.59831 22.0361
      vertex -15.1747 -6.49124 22.0361
    endloop
  endfacet
  facet normal -0.129567 -0.991571 -0
    outer loop
      vertex -14.3553 -6.59831 22.0361
      vertex -15.1747 -6.49124 21.7361
      vertex -14.3553 -6.59831 21.7361
    endloop
  endfacet
  facet normal 0.496659 -0.867946 0
    outer loop
      vertex -9.62 -5.75331 21.7361
      vertex -8.9925 -5.39424 22.0361
      vertex -9.62 -5.75331 22.0361
    endloop
  endfacet
  facet normal 0.496659 -0.867946 0
    outer loop
      vertex -8.9925 -5.39424 22.0361
      vertex -9.62 -5.75331 21.7361
      vertex -8.9925 -5.39424 21.7361
    endloop
  endfacet
  facet normal -0.945107 -0.326761 0
    outer loop
      vertex -20.5585 -2.24398 21.7361
      vertex -20.7912 -1.57093 22.0361
      vertex -20.7912 -1.57093 21.7361
    endloop
  endfacet
  facet normal -0.945107 -0.326761 0
    outer loop
      vertex -20.7912 -1.57093 22.0361
      vertex -20.5585 -2.24398 21.7361
      vertex -20.5585 -2.24398 22.0361
    endloop
  endfacet
  facet normal -0.807389 -0.590019 0
    outer loop
      vertex -19.5179 -4.02337 21.7361
      vertex -19.919 -3.4745 22.0361
      vertex -19.919 -3.4745 21.7361
    endloop
  endfacet
  facet normal -0.807389 -0.590019 0
    outer loop
      vertex -19.919 -3.4745 22.0361
      vertex -19.5179 -4.02337 21.7361
      vertex -19.5179 -4.02337 22.0361
    endloop
  endfacet
  facet normal -0.972935 -0.231079 0
    outer loop
      vertex -20.7912 -1.57093 21.7361
      vertex -20.9575 -0.870739 22.0361
      vertex -20.9575 -0.870739 21.7361
    endloop
  endfacet
  facet normal -0.972935 -0.231079 0
    outer loop
      vertex -20.9575 -0.870739 22.0361
      vertex -20.7912 -1.57093 21.7361
      vertex -20.7912 -1.57093 22.0361
    endloop
  endfacet
  facet normal -0.990735 -0.13581 0
    outer loop
      vertex -20.9575 -0.870739 21.7361
      vertex -21.0572 -0.143429 22.0361
      vertex -21.0572 -0.143429 21.7361
    endloop
  endfacet
  facet normal -0.990735 -0.13581 0
    outer loop
      vertex -21.0572 -0.143429 22.0361
      vertex -20.9575 -0.870739 21.7361
      vertex -20.9575 -0.870739 22.0361
    endloop
  endfacet
  facet normal -0.999027 -0.0440958 0
    outer loop
      vertex -21.0572 -0.143429 21.7361
      vertex -21.0905 0.611011 22.0361
      vertex -21.0905 0.611011 21.7361
    endloop
  endfacet
  facet normal -0.999027 -0.0440958 0
    outer loop
      vertex -21.0905 0.611011 22.0361
      vertex -21.0572 -0.143429 21.7361
      vertex -21.0572 -0.143429 22.0361
    endloop
  endfacet
  facet normal -0.580752 0.814081 0
    outer loop
      vertex -17.985 8.51778 21.7363
      vertex -18.5521 8.11322 22.0363
      vertex -17.985 8.51778 22.0363
    endloop
  endfacet
  facet normal -0.580752 0.814081 0
    outer loop
      vertex -18.5521 8.11322 22.0363
      vertex -17.985 8.51778 21.7363
      vertex -18.5521 8.11322 21.7363
    endloop
  endfacet
  facet normal -0.990318 0.13882 0
    outer loop
      vertex -21.0572 3.33278 21.7363
      vertex -20.9575 4.04402 22.0363
      vertex -20.9575 4.04402 21.7363
    endloop
  endfacet
  facet normal -0.990318 0.13882 0
    outer loop
      vertex -20.9575 4.04402 22.0363
      vertex -21.0572 3.33278 21.7363
      vertex -21.0572 3.33278 22.0363
    endloop
  endfacet
  facet normal -0.039908 0.999203 0
    outer loop
      vertex -13.4915 9.72403 21.7363
      vertex -14.3553 9.68953 22.0363
      vertex -13.4915 9.72403 22.0363
    endloop
  endfacet
  facet normal -0.039908 0.999203 0
    outer loop
      vertex -14.3553 9.68953 22.0363
      vertex -13.4915 9.72403 21.7363
      vertex -14.3553 9.68953 21.7363
    endloop
  endfacet
  facet normal -0.943452 0.331508 0
    outer loop
      vertex -20.7912 4.73077 21.7363
      vertex -20.5585 5.39302 22.0363
      vertex -20.5585 5.39302 21.7363
    endloop
  endfacet
  facet normal -0.943452 0.331508 0
    outer loop
      vertex -20.5585 5.39302 22.0363
      vertex -20.7912 4.73077 21.7363
      vertex -20.7912 4.73077 22.0363
    endloop
  endfacet
  facet normal 0.40438 0.914591 -0
    outer loop
      vertex -9.62 8.87071 21.7363
      vertex -10.3015 9.17203 22.0363
      vertex -9.62 8.87071 22.0363
    endloop
  endfacet
  facet normal 0.40438 0.914591 0
    outer loop
      vertex -10.3015 9.17203 22.0363
      vertex -9.62 8.87071 21.7363
      vertex -10.3015 9.17203 21.7363
    endloop
  endfacet
  facet normal -0.125316 0.992117 0
    outer loop
      vertex -14.3553 9.68953 21.7363
      vertex -15.1747 9.58603 22.0363
      vertex -14.3553 9.68953 22.0363
    endloop
  endfacet
  facet normal -0.125316 0.992117 0
    outer loop
      vertex -15.1747 9.58603 22.0363
      vertex -14.3553 9.68953 21.7363
      vertex -15.1747 9.58603 21.7363
    endloop
  endfacet
  facet normal 0 -1 0
    outer loop
      vertex -21.0869 2.67604 21.7363
      vertex -5.89493 2.67604 22.0363
      vertex -21.0869 2.67604 22.0363
    endloop
  endfacet
  facet normal 0 -1 -0
    outer loop
      vertex -5.89493 2.67604 22.0363
      vertex -21.0869 2.67604 21.7363
      vertex -5.89493 2.67604 21.7363
    endloop
  endfacet
  facet normal 0.313655 0.949537 -0
    outer loop
      vertex -10.3015 9.17203 21.7363
      vertex -11.0326 9.41353 22.0363
      vertex -10.3015 9.17203 22.0363
    endloop
  endfacet
  facet normal 0.313655 0.949537 0
    outer loop
      vertex -11.0326 9.41353 22.0363
      vertex -10.3015 9.17203 21.7363
      vertex -11.0326 9.41353 21.7363
    endloop
  endfacet
  facet normal 0.217157 0.976137 -0
    outer loop
      vertex -11.0326 9.41353 21.7363
      vertex -11.808 9.58603 22.0363
      vertex -11.0326 9.41353 22.0363
    endloop
  endfacet
  facet normal 0.217157 0.976137 0
    outer loop
      vertex -11.808 9.58603 22.0363
      vertex -11.0326 9.41353 21.7363
      vertex -11.808 9.58603 21.7363
    endloop
  endfacet
  facet normal -0.998979 0.0451772 0
    outer loop
      vertex -21.0869 2.67604 21.7363
      vertex -21.0572 3.33278 22.0363
      vertex -21.0572 3.33278 21.7363
    endloop
  endfacet
  facet normal -0.998979 0.0451772 0
    outer loop
      vertex -21.0572 3.33278 22.0363
      vertex -21.0869 2.67604 21.7363
      vertex -21.0869 2.67604 22.0363
    endloop
  endfacet
  facet normal 0.947284 0.320396 0
    outer loop
      vertex -6.1795 4.73077 22.0363
      vertex -6.40349 5.39302 21.7363
      vertex -6.40349 5.39302 22.0363
    endloop
  endfacet
  facet normal 0.947284 0.320396 0
    outer loop
      vertex -6.40349 5.39302 21.7363
      vertex -6.1795 4.73077 22.0363
      vertex -6.1795 4.73077 21.7363
    endloop
  endfacet
  facet normal 0.125286 0.992121 -0
    outer loop
      vertex -11.808 9.58603 21.7363
      vertex -12.6276 9.68953 22.0363
      vertex -11.808 9.58603 22.0363
    endloop
  endfacet
  facet normal 0.125286 0.992121 0
    outer loop
      vertex -12.6276 9.68953 22.0363
      vertex -11.808 9.58603 21.7363
      vertex -12.6276 9.68953 21.7363
    endloop
  endfacet
  facet normal 0.973914 0.226918 0
    outer loop
      vertex -6.01949 4.04402 22.0363
      vertex -6.1795 4.73077 21.7363
      vertex -6.1795 4.73077 22.0363
    endloop
  endfacet
  facet normal 0.973914 0.226918 0
    outer loop
      vertex -6.1795 4.73077 21.7363
      vertex -6.01949 4.04402 22.0363
      vertex -6.01949 4.04402 21.7363
    endloop
  endfacet
  facet normal 0.862395 0.506236 0
    outer loop
      vertex -6.689 6.02165 22.0363
      vertex -7.0335 6.60852 21.7363
      vertex -7.0335 6.60852 22.0363
    endloop
  endfacet
  facet normal 0.862395 0.506236 0
    outer loop
      vertex -7.0335 6.60852 21.7363
      vertex -6.689 6.02165 22.0363
      vertex -6.689 6.02165 21.7363
    endloop
  endfacet
  facet normal -0.906603 0.421984 0
    outer loop
      vertex -20.5585 5.39302 21.7363
      vertex -20.2659 6.02165 22.0363
      vertex -20.2659 6.02165 21.7363
    endloop
  endfacet
  facet normal -0.906603 0.421984 0
    outer loop
      vertex -20.2659 6.02165 22.0363
      vertex -20.5585 5.39302 21.7363
      vertex -20.5585 5.39302 22.0363
    endloop
  endfacet
  facet normal -0.860854 0.508852 0
    outer loop
      vertex -20.2659 6.02165 21.7363
      vertex -19.919 6.60852 22.0363
      vertex -19.919 6.60852 21.7363
    endloop
  endfacet
  facet normal -0.860854 0.508852 0
    outer loop
      vertex -19.919 6.60852 22.0363
      vertex -20.2659 6.02165 21.7363
      vertex -20.2659 6.02165 22.0363
    endloop
  endfacet
  facet normal -0.666402 0.745592 0
    outer loop
      vertex -18.5521 8.11322 21.7363
      vertex -19.0625 7.65703 22.0363
      vertex -18.5521 8.11322 22.0363
    endloop
  endfacet
  facet normal -0.666402 0.745592 0
    outer loop
      vertex -19.0625 7.65703 22.0363
      vertex -18.5521 8.11322 21.7363
      vertex -19.0625 7.65703 21.7363
    endloop
  endfacet
  facet normal -0.31381 0.949486 0
    outer loop
      vertex -15.9498 9.41353 21.7363
      vertex -16.6805 9.17203 22.0363
      vertex -15.9498 9.41353 22.0363
    endloop
  endfacet
  facet normal -0.31381 0.949486 0
    outer loop
      vertex -16.6805 9.17203 22.0363
      vertex -15.9498 9.41353 21.7363
      vertex -16.6805 9.17203 21.7363
    endloop
  endfacet
  facet normal 0.659837 0.751409 -0
    outer loop
      vertex -7.8995 7.65703 21.7363
      vertex -8.419 8.11322 22.0363
      vertex -7.8995 7.65703 22.0363
    endloop
  endfacet
  facet normal 0.659837 0.751409 0
    outer loop
      vertex -8.419 8.11322 22.0363
      vertex -7.8995 7.65703 21.7363
      vertex -8.419 8.11322 21.7363
    endloop
  endfacet
  facet normal -0.805466 0.592641 0
    outer loop
      vertex -19.919 6.60852 21.7363
      vertex -19.5179 7.15366 22.0363
      vertex -19.5179 7.15366 21.7363
    endloop
  endfacet
  facet normal -0.805466 0.592641 0
    outer loop
      vertex -19.5179 7.15366 22.0363
      vertex -19.919 6.60852 21.7363
      vertex -19.919 6.60852 22.0363
    endloop
  endfacet
  facet normal 0.736368 0.676581 0
    outer loop
      vertex -7.437 7.15366 22.0363
      vertex -7.8995 7.65703 21.7363
      vertex -7.8995 7.65703 22.0363
    endloop
  endfacet
  facet normal 0.736368 0.676581 0
    outer loop
      vertex -7.8995 7.65703 21.7363
      vertex -7.437 7.15366 22.0363
      vertex -7.437 7.15366 21.7363
    endloop
  endfacet
  facet normal 0.991015 0.133749 0
    outer loop
      vertex -5.9235 3.33278 22.0363
      vertex -6.01949 4.04402 21.7363
      vertex -6.01949 4.04402 22.0363
    endloop
  endfacet
  facet normal 0.991015 0.133749 0
    outer loop
      vertex -6.01949 4.04402 21.7363
      vertex -5.9235 3.33278 22.0363
      vertex -5.9235 3.33278 21.7363
    endloop
  endfacet
  facet normal -0.217237 0.976119 0
    outer loop
      vertex -15.1747 9.58603 21.7363
      vertex -15.9498 9.41353 22.0363
      vertex -15.1747 9.58603 22.0363
    endloop
  endfacet
  facet normal -0.217237 0.976119 0
    outer loop
      vertex -15.9498 9.41353 22.0363
      vertex -15.1747 9.58603 21.7363
      vertex -15.9498 9.41353 21.7363
    endloop
  endfacet
  facet normal 0.0399034 0.999204 -0
    outer loop
      vertex -12.6276 9.68953 21.7363
      vertex -13.4915 9.72403 22.0363
      vertex -12.6276 9.68953 22.0363
    endloop
  endfacet
  facet normal 0.0399034 0.999204 0
    outer loop
      vertex -13.4915 9.72403 22.0363
      vertex -12.6276 9.68953 21.7363
      vertex -13.4915 9.72403 21.7363
    endloop
  endfacet
  facet normal -0.97191 0.235353 0
    outer loop
      vertex -20.9575 4.04402 21.7363
      vertex -20.7912 4.73077 22.0363
      vertex -20.7912 4.73077 21.7363
    endloop
  endfacet
  facet normal -0.97191 0.235353 0
    outer loop
      vertex -20.7912 4.73077 22.0363
      vertex -20.9575 4.04402 21.7363
      vertex -20.9575 4.04402 22.0363
    endloop
  endfacet
  facet normal 0.999055 0.0434617 0
    outer loop
      vertex -5.89493 2.67604 22.0363
      vertex -5.9235 3.33278 21.7363
      vertex -5.9235 3.33278 22.0363
    endloop
  endfacet
  facet normal 0.999055 0.0434617 0
    outer loop
      vertex -5.9235 3.33278 21.7363
      vertex -5.89493 2.67604 22.0363
      vertex -5.89493 2.67604 21.7363
    endloop
  endfacet
  facet normal 0.803774 0.594935 0
    outer loop
      vertex -7.0335 6.60852 22.0363
      vertex -7.437 7.15366 21.7363
      vertex -7.437 7.15366 22.0363
    endloop
  endfacet
  facet normal 0.803774 0.594935 0
    outer loop
      vertex -7.437 7.15366 21.7363
      vertex -7.0335 6.60852 22.0363
      vertex -7.0335 6.60852 21.7363
    endloop
  endfacet
  facet normal -0.741558 0.670889 0
    outer loop
      vertex -19.5179 7.15366 21.7363
      vertex -19.0625 7.65703 22.0363
      vertex -19.0625 7.65703 21.7363
    endloop
  endfacet
  facet normal -0.741558 0.670889 0
    outer loop
      vertex -19.0625 7.65703 22.0363
      vertex -19.5179 7.15366 21.7363
      vertex -19.5179 7.15366 22.0363
    endloop
  endfacet
  facet normal 0.910492 0.413526 0
    outer loop
      vertex -6.40349 5.39302 22.0363
      vertex -6.689 6.02165 21.7363
      vertex -6.689 6.02165 22.0363
    endloop
  endfacet
  facet normal 0.910492 0.413526 0
    outer loop
      vertex -6.689 6.02165 21.7363
      vertex -6.40349 5.39302 22.0363
      vertex -6.40349 5.39302 21.7363
    endloop
  endfacet
  facet normal -0.404827 0.914393 0
    outer loop
      vertex -16.6805 9.17203 21.7363
      vertex -17.3611 8.87071 22.0363
      vertex -16.6805 9.17203 22.0363
    endloop
  endfacet
  facet normal -0.404827 0.914393 0
    outer loop
      vertex -17.3611 8.87071 22.0363
      vertex -16.6805 9.17203 21.7363
      vertex -17.3611 8.87071 21.7363
    endloop
  endfacet
  facet normal -0.492365 0.870389 0
    outer loop
      vertex -17.3611 8.87071 21.7363
      vertex -17.985 8.51778 22.0363
      vertex -17.3611 8.87071 22.0363
    endloop
  endfacet
  facet normal -0.492365 0.870389 0
    outer loop
      vertex -17.985 8.51778 22.0363
      vertex -17.3611 8.87071 21.7363
      vertex -17.985 8.51778 21.7363
    endloop
  endfacet
  facet normal 0.576433 0.817145 -0
    outer loop
      vertex -8.419 8.11322 21.7363
      vertex -8.9925 8.51778 22.0363
      vertex -8.419 8.11322 22.0363
    endloop
  endfacet
  facet normal 0.576433 0.817145 0
    outer loop
      vertex -8.9925 8.51778 22.0363
      vertex -8.419 8.11322 21.7363
      vertex -8.9925 8.51778 21.7363
    endloop
  endfacet
  facet normal 0.49022 0.871599 -0
    outer loop
      vertex -8.9925 8.51778 21.7363
      vertex -9.62 8.87071 22.0363
      vertex -8.9925 8.51778 22.0363
    endloop
  endfacet
  facet normal 0.49022 0.871599 0
    outer loop
      vertex -9.62 8.87071 22.0363
      vertex -8.9925 8.51778 21.7363
      vertex -9.62 8.87071 21.7363
    endloop
  endfacet
  facet normal 0 0 -1
    outer loop
      vertex -5.89493 2.67604 21.7363
      vertex -6.01949 4.04402 21.7363
      vertex -5.9235 3.33278 21.7363
    endloop
  endfacet
  facet normal 0 0 -1
    outer loop
      vertex -5.89493 2.67604 21.7363
      vertex -6.1795 4.73077 21.7363
      vertex -6.01949 4.04402 21.7363
    endloop
  endfacet
  facet normal 0 0 -1
    outer loop
      vertex -5.89493 2.67604 21.7363
      vertex -6.40349 5.39302 21.7363
      vertex -6.1795 4.73077 21.7363
    endloop
  endfacet
  facet normal 0 0 -1
    outer loop
      vertex -5.89493 2.67604 21.7363
      vertex -6.689 6.02165 21.7363
      vertex -6.40349 5.39302 21.7363
    endloop
  endfacet
  facet normal 0 0 -1
    outer loop
      vertex -5.89493 2.67604 21.7363
      vertex -7.0335 6.60852 21.7363
      vertex -6.689 6.02165 21.7363
    endloop
  endfacet
  facet normal 0 0 -1
    outer loop
      vertex -5.89493 2.67604 21.7363
      vertex -7.437 7.15366 21.7363
      vertex -7.0335 6.60852 21.7363
    endloop
  endfacet
  facet normal 0 0 -1
    outer loop
      vertex -5.89493 2.67604 21.7363
      vertex -7.8995 7.65703 21.7363
      vertex -7.437 7.15366 21.7363
    endloop
  endfacet
  facet normal 0 0 -1
    outer loop
      vertex -5.89493 2.67604 21.7363
      vertex -8.419 8.11322 21.7363
      vertex -7.8995 7.65703 21.7363
    endloop
  endfacet
  facet normal 0 0 -1
    outer loop
      vertex -5.89493 2.67604 21.7363
      vertex -8.9925 8.51778 21.7363
      vertex -8.419 8.11322 21.7363
    endloop
  endfacet
  facet normal 0 0 -1
    outer loop
      vertex -5.89493 2.67604 21.7363
      vertex -9.62 8.87071 21.7363
      vertex -8.9925 8.51778 21.7363
    endloop
  endfacet
  facet normal 0 0 -1
    outer loop
      vertex -5.89493 2.67604 21.7363
      vertex -10.3015 9.17203 21.7363
      vertex -9.62 8.87071 21.7363
    endloop
  endfacet
  facet normal 0 0 -1
    outer loop
      vertex -5.89493 2.67604 21.7363
      vertex -11.0326 9.41353 21.7363
      vertex -10.3015 9.17203 21.7363
    endloop
  endfacet
  facet normal 0 0 -1
    outer loop
      vertex -5.89493 2.67604 21.7363
      vertex -11.808 9.58603 21.7363
      vertex -11.0326 9.41353 21.7363
    endloop
  endfacet
  facet normal 0 0 -1
    outer loop
      vertex -5.89493 2.67604 21.7363
      vertex -12.6276 9.68953 21.7363
      vertex -11.808 9.58603 21.7363
    endloop
  endfacet
  facet normal 0 0 -1
    outer loop
      vertex -5.89493 2.67604 21.7363
      vertex -13.4915 9.72403 21.7363
      vertex -12.6276 9.68953 21.7363
    endloop
  endfacet
  facet normal 0 0 -1
    outer loop
      vertex -21.0869 2.67604 21.7363
      vertex -13.4915 9.72403 21.7363
      vertex -5.89493 2.67604 21.7363
    endloop
  endfacet
  facet normal 0 0 -1
    outer loop
      vertex -13.4915 9.72403 21.7363
      vertex -21.0869 2.67604 21.7363
      vertex -14.3553 9.68953 21.7363
    endloop
  endfacet
  facet normal 0 0 -1
    outer loop
      vertex -14.3553 9.68953 21.7363
      vertex -21.0869 2.67604 21.7363
      vertex -15.1747 9.58603 21.7363
    endloop
  endfacet
  facet normal 0 0 -1
    outer loop
      vertex -15.1747 9.58603 21.7363
      vertex -21.0869 2.67604 21.7363
      vertex -15.9498 9.41353 21.7363
    endloop
  endfacet
  facet normal 0 0 -1
    outer loop
      vertex -15.9498 9.41353 21.7363
      vertex -21.0869 2.67604 21.7363
      vertex -16.6805 9.17203 21.7363
    endloop
  endfacet
  facet normal 0 -0 -1
    outer loop
      vertex -21.0572 3.33278 21.7363
      vertex -16.6805 9.17203 21.7363
      vertex -21.0869 2.67604 21.7363
    endloop
  endfacet
  facet normal 0 0 -1
    outer loop
      vertex -16.6805 9.17203 21.7363
      vertex -21.0572 3.33278 21.7363
      vertex -17.3611 8.87071 21.7363
    endloop
  endfacet
  facet normal 0 0 -1
    outer loop
      vertex -17.3611 8.87071 21.7363
      vertex -21.0572 3.33278 21.7363
      vertex -17.985 8.51778 21.7363
    endloop
  endfacet
  facet normal 0 0 -1
    outer loop
      vertex -17.985 8.51778 21.7363
      vertex -21.0572 3.33278 21.7363
      vertex -18.5521 8.11322 21.7363
    endloop
  endfacet
  facet normal 0 0 -1
    outer loop
      vertex -18.5521 8.11322 21.7363
      vertex -21.0572 3.33278 21.7363
      vertex -19.0625 7.65703 21.7363
    endloop
  endfacet
  facet normal 0 0 -1
    outer loop
      vertex -19.5179 7.15366 21.7363
      vertex -20.2659 6.02165 21.7363
      vertex -19.919 6.60852 21.7363
    endloop
  endfacet
  facet normal 0 0 -1
    outer loop
      vertex -19.5179 7.15366 21.7363
      vertex -20.5585 5.39302 21.7363
      vertex -20.2659 6.02165 21.7363
    endloop
  endfacet
  facet normal 0 0 -1
    outer loop
      vertex -19.5179 7.15366 21.7363
      vertex -20.7912 4.73077 21.7363
      vertex -20.5585 5.39302 21.7363
    endloop
  endfacet
  facet normal 0 0 -1
    outer loop
      vertex -19.5179 7.15366 21.7363
      vertex -20.9575 4.04402 21.7363
      vertex -20.7912 4.73077 21.7363
    endloop
  endfacet
  facet normal 0 0 -1
    outer loop
      vertex -19.5179 7.15366 21.7363
      vertex -21.0572 3.33278 21.7363
      vertex -20.9575 4.04402 21.7363
    endloop
  endfacet
  facet normal 0 0 -1
    outer loop
      vertex -19.0625 7.65703 21.7363
      vertex -21.0572 3.33278 21.7363
      vertex -19.5179 7.15366 21.7363
    endloop
  endfacet
  facet normal 0 0 1
    outer loop
      vertex -6.01949 4.04402 22.0363
      vertex -5.89493 2.67604 22.0363
      vertex -5.9235 3.33278 22.0363
    endloop
  endfacet
  facet normal 0 0 1
    outer loop
      vertex -6.1795 4.73077 22.0363
      vertex -5.89493 2.67604 22.0363
      vertex -6.01949 4.04402 22.0363
    endloop
  endfacet
  facet normal 0 0 1
    outer loop
      vertex -6.40349 5.39302 22.0363
      vertex -5.89493 2.67604 22.0363
      vertex -6.1795 4.73077 22.0363
    endloop
  endfacet
  facet normal 0 0 1
    outer loop
      vertex -6.689 6.02165 22.0363
      vertex -5.89493 2.67604 22.0363
      vertex -6.40349 5.39302 22.0363
    endloop
  endfacet
  facet normal 0 0 1
    outer loop
      vertex -7.0335 6.60852 22.0363
      vertex -5.89493 2.67604 22.0363
      vertex -6.689 6.02165 22.0363
    endloop
  endfacet
  facet normal 0 0 1
    outer loop
      vertex -7.437 7.15366 22.0363
      vertex -5.89493 2.67604 22.0363
      vertex -7.0335 6.60852 22.0363
    endloop
  endfacet
  facet normal 0 0 1
    outer loop
      vertex -7.8995 7.65703 22.0363
      vertex -5.89493 2.67604 22.0363
      vertex -7.437 7.15366 22.0363
    endloop
  endfacet
  facet normal 0 0 1
    outer loop
      vertex -8.419 8.11322 22.0363
      vertex -5.89493 2.67604 22.0363
      vertex -7.8995 7.65703 22.0363
    endloop
  endfacet
  facet normal 0 0 1
    outer loop
      vertex -8.9925 8.51778 22.0363
      vertex -5.89493 2.67604 22.0363
      vertex -8.419 8.11322 22.0363
    endloop
  endfacet
  facet normal 0 0 1
    outer loop
      vertex -9.62 8.87071 22.0363
      vertex -5.89493 2.67604 22.0363
      vertex -8.9925 8.51778 22.0363
    endloop
  endfacet
  facet normal 0 0 1
    outer loop
      vertex -10.3015 9.17203 22.0363
      vertex -5.89493 2.67604 22.0363
      vertex -9.62 8.87071 22.0363
    endloop
  endfacet
  facet normal 0 0 1
    outer loop
      vertex -11.0326 9.41353 22.0363
      vertex -5.89493 2.67604 22.0363
      vertex -10.3015 9.17203 22.0363
    endloop
  endfacet
  facet normal 0 0 1
    outer loop
      vertex -11.808 9.58603 22.0363
      vertex -5.89493 2.67604 22.0363
      vertex -11.0326 9.41353 22.0363
    endloop
  endfacet
  facet normal 0 0 1
    outer loop
      vertex -12.6276 9.68953 22.0363
      vertex -5.89493 2.67604 22.0363
      vertex -11.808 9.58603 22.0363
    endloop
  endfacet
  facet normal 0 0 1
    outer loop
      vertex -13.4915 9.72403 22.0363
      vertex -5.89493 2.67604 22.0363
      vertex -12.6276 9.68953 22.0363
    endloop
  endfacet
  facet normal 0 0 1
    outer loop
      vertex -21.0869 2.67604 22.0363
      vertex -13.4915 9.72403 22.0363
      vertex -14.3553 9.68953 22.0363
    endloop
  endfacet
  facet normal 0 0 1
    outer loop
      vertex -21.0869 2.67604 22.0363
      vertex -14.3553 9.68953 22.0363
      vertex -15.1747 9.58603 22.0363
    endloop
  endfacet
  facet normal 0 0 1
    outer loop
      vertex -21.0869 2.67604 22.0363
      vertex -15.1747 9.58603 22.0363
      vertex -15.9498 9.41353 22.0363
    endloop
  endfacet
  facet normal 0 0 1
    outer loop
      vertex -21.0869 2.67604 22.0363
      vertex -15.9498 9.41353 22.0363
      vertex -16.6805 9.17203 22.0363
    endloop
  endfacet
  facet normal 0 0 1
    outer loop
      vertex -21.0572 3.33278 22.0363
      vertex -16.6805 9.17203 22.0363
      vertex -17.3611 8.87071 22.0363
    endloop
  endfacet
  facet normal 0 0 1
    outer loop
      vertex -21.0572 3.33278 22.0363
      vertex -17.3611 8.87071 22.0363
      vertex -17.985 8.51778 22.0363
    endloop
  endfacet
  facet normal 0 0 1
    outer loop
      vertex -21.0572 3.33278 22.0363
      vertex -17.985 8.51778 22.0363
      vertex -18.5521 8.11322 22.0363
    endloop
  endfacet
  facet normal 0 0 1
    outer loop
      vertex -21.0572 3.33278 22.0363
      vertex -18.5521 8.11322 22.0363
      vertex -19.0625 7.65703 22.0363
    endloop
  endfacet
  facet normal 0 0 1
    outer loop
      vertex -21.0572 3.33278 22.0363
      vertex -19.0625 7.65703 22.0363
      vertex -19.5179 7.15366 22.0363
    endloop
  endfacet
  facet normal 0 0 1
    outer loop
      vertex -20.2659 6.02165 22.0363
      vertex -19.5179 7.15366 22.0363
      vertex -19.919 6.60852 22.0363
    endloop
  endfacet
  facet normal 0 0 1
    outer loop
      vertex -20.5585 5.39302 22.0363
      vertex -19.5179 7.15366 22.0363
      vertex -20.2659 6.02165 22.0363
    endloop
  endfacet
  facet normal 0 0 1
    outer loop
      vertex -20.7912 4.73077 22.0363
      vertex -19.5179 7.15366 22.0363
      vertex -20.5585 5.39302 22.0363
    endloop
  endfacet
  facet normal 0 0 1
    outer loop
      vertex -20.9575 4.04402 22.0363
      vertex -19.5179 7.15366 22.0363
      vertex -20.7912 4.73077 22.0363
    endloop
  endfacet
  facet normal 0 0 1
    outer loop
      vertex -21.0572 3.33278 22.0363
      vertex -19.5179 7.15366 22.0363
      vertex -20.9575 4.04402 22.0363
    endloop
  endfacet
  facet normal 0 0 1
    outer loop
      vertex -16.6805 9.17203 22.0363
      vertex -21.0572 3.33278 22.0363
      vertex -21.0869 2.67604 22.0363
    endloop
  endfacet
  facet normal 0 0 1
    outer loop
      vertex -13.4915 9.72403 22.0363
      vertex -21.0869 2.67604 22.0363
      vertex -5.89493 2.67604 22.0363
    endloop
  endfacet
  facet normal 0 -1 0
    outer loop
      vertex -33.1785 9.02377 21.2543
      vertex -0.379492 9.02377 21.5543
      vertex -33.1785 9.02377 21.5543
    endloop
  endfacet
  facet normal 0 -1 -0
    outer loop
      vertex -0.379492 9.02377 21.5543
      vertex -33.1785 9.02377 21.2543
      vertex -0.379492 9.02377 21.2543
    endloop
  endfacet
  facet normal -0 0 1
    outer loop
      vertex -33.1785 17.8828 21.5543
      vertex -0.379492 9.02377 21.5543
      vertex -0.379492 17.8828 21.5543
    endloop
  endfacet
  facet normal 0 0 1
    outer loop
      vertex -0.379492 9.02377 21.5543
      vertex -33.1785 17.8828 21.5543
      vertex -33.1785 9.02377 21.5543
    endloop
  endfacet
  facet normal -1 0 0
    outer loop
      vertex -33.1785 9.02377 21.2543
      vertex -33.1785 17.8828 21.5543
      vertex -33.1785 17.8828 21.2543
    endloop
  endfacet
  facet normal -1 -0 0
    outer loop
      vertex -33.1785 17.8828 21.5543
      vertex -33.1785 9.02377 21.2543
      vertex -33.1785 9.02377 21.5543
    endloop
  endfacet
  facet normal 0 0 -1
    outer loop
      vertex -33.1785 9.02377 21.2543
      vertex -0.379492 17.8828 21.2543
      vertex -0.379492 9.02377 21.2543
    endloop
  endfacet
  facet normal -0 0 -1
    outer loop
      vertex -0.379492 17.8828 21.2543
      vertex -33.1785 9.02377 21.2543
      vertex -33.1785 17.8828 21.2543
    endloop
  endfacet
  facet normal 1 -0 0
    outer loop
      vertex -0.379492 9.02377 21.5543
      vertex -0.379492 17.8828 21.2543
      vertex -0.379492 17.8828 21.5543
    endloop
  endfacet
  facet normal 1 0 0
    outer loop
      vertex -0.379492 17.8828 21.2543
      vertex -0.379492 9.02377 21.5543
      vertex -0.379492 9.02377 21.2543
    endloop
  endfacet
  facet normal 0 1 -0
    outer loop
      vertex -0.379492 17.8828 21.2543
      vertex -33.1785 17.8828 21.5543
      vertex -0.379492 17.8828 21.5543
    endloop
  endfacet
  facet normal 0 1 0
    outer loop
      vertex -33.1785 17.8828 21.5543
      vertex -0.379492 17.8828 21.2543
      vertex -33.1785 17.8828 21.2543
    endloop
  endfacet
endsolid OpenSCAD_Model
